<?xml version="1.0" encoding="utf-8"?>
<svg viewBox="739.5 553.4 232 232" width="232" height="232" xmlns="http://www.w3.org/2000/svg">
  <path d="M 739.5 553.400024 H 971.5 V 785.400024 H 739.5 V 553.400024 Z" id="XMLID_541_" class="st1" style="fill: rgb(13, 76, 133);"/>
  <g id="XMLID_308_">
    <path id="XMLID_377_" class="st0" d="M771.8,637.7c0,0-10.2-6.2-0.9-12.5c9.3-6.2,25.4-0.9,33.7,2c8.3,2.8,10.5,6.4,8.9,7.2 c-1.5,0.8-10-3.7-20.5-4.4c-10.5-0.7-12.9,5.3-12.9,9.6s4.9,6.2,4.9,6.2s0-5.9,6.9-7.1c-0.9,3.5,2.4,7.4,2.4,7.4 s0.4-4.6,7.8-6.2c7.4-1.6,21.7-0.1,23.6,1.9c-1.3,2-0.1,3.6,0.5,4.3c0.7,0.7,3.2,2.3,6.1-0.7c3-3,1.3-5.5,0.7-6.1 c-0.7-0.7-2.3-1.9-4.3-0.5c-2.1-1.9-3.5-16.2-1.9-23.6c1.6-7.4,6.2-7.8,6.2-7.8s-3.9-3.3-7.4-2.4c1.2-6.9,7.1-6.9,7.1-6.9 s-1.9-4.9-6.2-4.9c-4.4,0-10.3,2.4-9.6,12.9c0.7,10.5,5.3,19,4.4,20.5c-0.8,1.5-4.4-0.6-7.2-8.9c-2.8-8.3-8.2-24.4-2-33.7 c6.2-9.3,12.5,0.9,12.5,0.9s3.1-7.7-3.7-11.6c-6.8-3.9-12.9,7-12.9,7s-4-2.7-6.8-1.1c-2.7,1.6-3.3,4.8,0.8,12.4 c-3.9,1.8-3.7,5-1.3,8.7c2.4,3.7,4.5,5.2,6.4,9.3c2,4.2,1.4,6.2,0,6.1c-1.2-0.1-1.8-0.3-3.8-4c-0.1-0.2-6.7-18.8-10.3-23.7 c-3.6-4.8-7.5-10.5-6.8-24.6c-6.1,4.6-9.1,10.4-8.9,15.8c-3.6-5.3-6-11.2-5.6-18c-4.5,2.7-5.7,6.6-5.7,6.6 c-6.2-4.5-11.4-0.2-11.4-0.2s-4.3,5.1,0.2,11.4c0,0-3.8,1.2-6.6,5.7c6.6-0.3,12.3,2.1,17.6,5.5c-5.3-0.1-10.9,2.9-15.5,8.9 c14.2-0.8,19.8,3.1,24.6,6.8c4.8,3.6,23.5,10.3,23.7,10.3c3.7,2,3.9,2.6,4,3.8c0.1,1.4-2,2-6.1,0c-4.2-2-5.6-4-9.3-6.4 c-3.7-2.4-7-2.6-8.7,1.3c-7.6-4-10.7-3.5-12.4-0.8c-1.6,2.7,1.1,6.8,1.1,6.8s-10.9,6.1-7,12.9 C764.2,640.7,771.8,637.7,771.8,637.7z M770.4,584.6c-2-2.1-3.9-4.1-5.5-5.8c-3.2-3.5-5.2-5.9-5.2-5.9s2.4,2,5.9,5.2 c1.7,1.6,3.7,3.4,5.8,5.5c2.1,2,4.3,4.2,6.6,6.4c2.2,2.2,4.4,4.4,6.4,6.6c2,2.1,3.9,4.1,5.5,5.8c3.2,3.5,5.2,5.9,5.2,5.9 s-2.4-2-5.9-5.2c-1.7-1.6-3.7-3.4-5.8-5.5c-2.1-2-4.3-4.2-6.6-6.4C774.7,589,772.5,586.8,770.4,584.6z" style="fill: rgb(255, 255, 255);"/>
    <path id="XMLID_312_" class="st0" d="M764.9,662.5c0.8,3.1,7.5,3.1,7.5,3.1s-0.1-6.6,13.1-16.1c0,0-14,3.1-22.1-5.8 c0,0-5,4.8-3.6,8.3c-7.3,2.5-4.9,10.4-4.9,10.4S759.6,664.2,764.9,662.5z" style="fill: rgb(255, 255, 255);"/>
    <path id="XMLID_306_" class="st0" d="M835.6,599.5c9.5-13.3,16.1-13.1,16.1-13.1s0-6.7-3.1-7.5c1.7-5.3-0.1-10-0.1-10 s-7.8-2.4-10.4,4.9c-3.5-1.4-8.3,3.6-8.3,3.6C838.7,585.5,835.6,599.5,835.6,599.5z" style="fill: rgb(255, 255, 255);"/>
  </g>
  <path id="XMLID_550_" class="st0" d="M950.8,634c3.9-6.8-7-12.9-7-12.9s2.7-4,1.1-6.8c-1.6-2.7-4.8-3.3-12.4,0.8 c-1.8-3.9-5-3.7-8.7-1.3c-3.7,2.4-5.2,4.5-9.3,6.4c-4.2,2-6.2,1.4-6.1,0c0.1-1.2,0.3-1.8,4-3.8c0.2-0.1,18.8-6.7,23.7-10.3 c4.8-3.6,10.5-7.5,24.6-6.8c-4.5-6-10.1-9-15.5-8.9c5.3-3.5,11-5.8,17.6-5.5c-2.7-4.5-6.6-5.7-6.6-5.7 c4.5-6.2,0.2-11.4,0.2-11.4s-5.1-4.3-11.4,0.2c0,0-1.2-3.8-5.7-6.6c0.4,6.8-2,12.6-5.6,18c0.2-5.4-2.8-11.2-8.9-15.8 c0.8,14.2-3.1,19.8-6.8,24.6c-3.6,4.8-10.3,23.5-10.3,23.7c-2,3.7-2.6,3.9-3.8,4c-1.4,0.1-2-2,0-6.1c2-4.2,4-5.6,6.4-9.3 c2.4-3.7,2.6-7-1.3-8.7c4-7.6,3.5-10.7,0.8-12.4c-2.7-1.6-6.8,1.1-6.8,1.1s-6.1-10.9-12.9-7c-6.8,3.9-3.7,11.6-3.7,11.6 s6.2-10.2,12.5-0.9c6.2,9.3,0.9,25.4-2,33.7c-2.8,8.3-6.4,10.5-7.2,8.9c-0.8-1.5,3.7-10,4.4-20.5c0.7-10.5-5.3-12.9-9.6-12.9 c-4.4,0-6.2,4.9-6.2,4.9s5.9,0,7.1,6.9c-3.5-0.9-7.4,2.4-7.4,2.4s4.6,0.4,6.2,7.8c1.6,7.4,0.1,21.7-1.9,23.6 c-2-1.3-3.6-0.1-4.3,0.5c-0.7,0.7-2.3,3.2,0.7,6.1s5.5,1.3,6.1,0.7c0.7-0.7,1.9-2.3,0.5-4.3c1.9-2.1,16.2-3.5,23.6-1.9 c7.4,1.6,7.8,6.2,7.8,6.2s3.3-3.9,2.4-7.4c6.9,1.2,6.9,7.1,6.9,7.1s4.9-1.9,4.9-6.2s-2.4-10.3-12.9-9.6 c-10.5,0.7-19,5.3-20.5,4.4c-1.5-0.8,0.6-4.4,8.9-7.2c8.3-2.8,24.4-8.2,33.7-2c9.3,6.2-0.9,12.5-0.9,12.5S946.8,640.7,950.8,634 z M934.1,591.2c-2.2,2.2-4.4,4.4-6.6,6.4c-2.1,2-4.1,3.9-5.8,5.5c-3.5,3.2-5.9,5.2-5.9,5.2s2-2.4,5.2-5.9 c1.6-1.7,3.4-3.7,5.5-5.8c2-2.1,4.2-4.3,6.4-6.6c2.2-2.2,4.4-4.4,6.6-6.4c2.1-2,4.1-3.9,5.8-5.5c3.5-3.2,5.9-5.2,5.9-5.2 s-2,2.4-5.2,5.9c-1.6,1.7-3.4,3.7-5.5,5.8C938.5,586.8,936.3,589,934.1,591.2z" style="fill: rgb(255, 255, 255);"/>
  <path id="XMLID_431_" class="st0" d="M946.1,662.5c-0.8,3.1-7.5,3.1-7.5,3.1s0.1-6.6-13.1-16.1c0,0,14,3.1,22.1-5.8 c0,0,5,4.8,3.6,8.3c7.3,2.5,4.9,10.4,4.9,10.4S951.4,664.2,946.1,662.5z" style="fill: rgb(255, 255, 255);"/>
  <path id="XMLID_411_" class="st0" d="M875.4,599.5c-9.5-13.3-16.1-13.1-16.1-13.1s0-6.7,3.1-7.5c-1.7-5.3,0.1-10,0.1-10 s7.8-2.4,10.4,4.9c3.5-1.4,8.3,3.6,8.3,3.6C872.3,585.5,875.4,599.5,875.4,599.5z" style="fill: rgb(255, 255, 255);"/>
  <path id="XMLID_587_" class="st0" d="M760.2,704.8c-3.9,6.8,7,12.9,7,12.9s-2.7,4-1.1,6.8c1.6,2.7,4.8,3.3,12.4-0.8 c1.8,3.9,5,3.7,8.7,1.3c3.7-2.4,5.2-4.5,9.3-6.4c4.2-2,6.2-1.4,6.1,0c-0.1,1.2-0.3,1.8-4,3.8c-0.2,0.1-18.8,6.7-23.7,10.3 c-4.8,3.6-10.5,7.5-24.6,6.8c4.5,6,10.1,9,15.5,8.9c-5.3,3.5-11,5.8-17.6,5.5c2.7,4.5,6.6,5.7,6.6,5.7 c-4.5,6.2-0.2,11.4-0.2,11.4s5.1,4.3,11.4-0.2c0,0,1.2,3.8,5.7,6.6c-0.4-6.8,2-12.6,5.6-18c-0.2,5.4,2.8,11.2,8.9,15.8 c-0.8-14.2,3.1-19.8,6.8-24.6c3.6-4.8,10.3-23.5,10.3-23.7c2-3.7,2.6-3.9,3.8-4c1.4-0.1,2,2,0,6.1c-2,4.2-4,5.6-6.4,9.3 s-2.6,7,1.3,8.7c-4,7.6-3.5,10.7-0.8,12.4c2.7,1.6,6.8-1.1,6.8-1.1s6.1,10.9,12.9,7c6.8-3.9,3.7-11.6,3.7-11.6 s-6.2,10.2-12.5,0.9c-6.2-9.3-0.9-25.4,2-33.7c2.8-8.3,6.4-10.5,7.2-8.9c0.8,1.5-3.7,10-4.4,20.5c-0.7,10.5,5.3,12.9,9.6,12.9 c4.4,0,6.2-4.9,6.2-4.9s-5.9,0-7.1-6.9c3.5,0.9,7.4-2.4,7.4-2.4s-4.6-0.4-6.2-7.8c-1.6-7.4-0.1-21.7,1.9-23.6 c2,1.3,3.6,0.1,4.3-0.5c0.7-0.7,2.3-3.2-0.7-6.1c-3-3-5.5-1.3-6.1-0.7c-0.7,0.7-1.9,2.3-0.5,4.3c-1.9,2.1-16.2,3.5-23.6,1.9 c-7.4-1.6-7.8-6.2-7.8-6.2s-3.3,3.9-2.4,7.4c-6.9-1.2-6.9-7.1-6.9-7.1s-4.9,1.9-4.9,6.2c0,4.4,2.4,10.3,12.9,9.6 c10.5-0.7,19-5.3,20.5-4.4c1.5,0.8-0.6,4.4-8.9,7.2c-8.3,2.8-24.4,8.2-33.7,2c-9.3-6.2,0.9-12.5,0.9-12.5S764.2,698,760.2,704.8 z M776.9,747.6c2.2-2.2,4.4-4.4,6.6-6.4c2.1-2,4.1-3.9,5.8-5.5c3.5-3.2,5.9-5.2,5.9-5.2s-2,2.4-5.2,5.9 c-1.6,1.7-3.4,3.7-5.5,5.8c-2,2.1-4.2,4.3-6.4,6.6c-2.2,2.2-4.4,4.4-6.6,6.4c-2.1,2-4.1,3.9-5.8,5.5c-3.5,3.2-5.9,5.2-5.9,5.2 s2-2.4,5.2-5.9c1.6-1.7,3.4-3.7,5.5-5.8C772.5,752,774.7,749.8,776.9,747.6z" style="fill: rgb(255, 255, 255);"/>
  <path id="XMLID_583_" class="st0" d="M764.9,676.3c0.8-3.1,7.5-3.1,7.5-3.1s-0.1,6.6,13.1,16.1c0,0-14-3.1-22.1,5.8 c0,0-5-4.8-3.6-8.3c-7.3-2.5-4.9-10.4-4.9-10.4S759.6,674.6,764.9,676.3z" style="fill: rgb(255, 255, 255);"/>
  <path id="XMLID_580_" class="st0" d="M835.6,739.3c9.5,13.3,16.1,13.1,16.1,13.1s0,6.7-3.1,7.5c1.7,5.3-0.1,10-0.1,10 s-7.8,2.4-10.4-4.9c-3.5,1.4-8.3-3.6-8.3-3.6C838.7,753.3,835.6,739.3,835.6,739.3z" style="fill: rgb(255, 255, 255);"/>
  <path id="XMLID_560_" class="st0" d="M939.2,701.1c0,0,10.2,6.2,0.9,12.5c-9.3,6.2-25.4,0.9-33.7-2c-8.3-2.8-10.5-6.4-8.9-7.2 c1.5-0.8,10,3.7,20.5,4.4c10.5,0.7,12.9-5.3,12.9-9.6c0-4.4-4.9-6.2-4.9-6.2s0,5.9-6.9,7.1c0.9-3.5-2.4-7.4-2.4-7.4 s-0.4,4.6-7.8,6.2c-7.4,1.6-21.7,0.1-23.6-1.9c1.3-2,0.1-3.6-0.5-4.3c-0.7-0.7-3.2-2.3-6.1,0.7c-3,3-1.3,5.5-0.7,6.1 c0.7,0.7,2.3,1.9,4.3,0.5c2.1,1.9,3.5,16.2,1.9,23.6c-1.6,7.4-6.2,7.8-6.2,7.8s3.9,3.3,7.4,2.4c-1.2,6.9-7.1,6.9-7.1,6.9 s1.9,4.9,6.2,4.9c4.4,0,10.3-2.4,9.6-12.9c-0.7-10.5-5.3-19-4.4-20.5c0.8-1.5,4.4,0.6,7.2,8.9c2.8,8.3,8.2,24.4,2,33.7 c-6.2,9.3-12.5-0.9-12.5-0.9s-3.1,7.7,3.7,11.6c6.8,3.9,12.9-7,12.9-7s4,2.7,6.8,1.1c2.7-1.6,3.3-4.8-0.8-12.4 c3.9-1.8,3.7-5,1.3-8.7c-2.4-3.7-4.5-5.2-6.4-9.3c-2-4.2-1.4-6.2,0-6.1c1.2,0.1,1.8,0.3,3.8,4c0.1,0.2,6.7,18.8,10.3,23.7 c3.6,4.8,7.5,10.5,6.8,24.6c6.1-4.6,9.1-10.4,8.9-15.8c3.6,5.3,6,11.2,5.6,18c4.5-2.7,5.7-6.6,5.7-6.6 c6.2,4.5,11.4,0.2,11.4,0.2s4.3-5.1-0.2-11.4c0,0,3.8-1.2,6.6-5.7c-6.6,0.3-12.3-2.1-17.6-5.5c5.3,0.1,10.9-2.9,15.5-8.9 c-14.2,0.8-19.8-3.1-24.6-6.8c-4.8-3.6-23.5-10.3-23.7-10.3c-3.7-2-3.9-2.6-4-3.8c-0.1-1.4,2-2,6.1,0c4.2,2,5.6,4,9.3,6.4 c3.7,2.4,7,2.6,8.7-1.3c7.6,4,10.7,3.5,12.4,0.8c1.6-2.7-1.1-6.8-1.1-6.8s10.9-6.1,7-12.9C946.8,698,939.2,701.1,939.2,701.1z M940.5,754.1c2,2.1,3.9,4.1,5.5,5.8c3.2,3.5,5.2,5.9,5.2,5.9s-2.4-2-5.9-5.2c-1.7-1.6-3.7-3.4-5.8-5.5c-2.1-2-4.3-4.2-6.6-6.4 c-2.2-2.2-4.4-4.4-6.4-6.6c-2-2.1-3.9-4.1-5.5-5.8c-3.2-3.5-5.2-5.9-5.2-5.9s2.4,2,5.9,5.2c1.7,1.6,3.7,3.4,5.8,5.5 c2.1,2,4.3,4.2,6.6,6.4C936.3,749.8,938.5,752,940.5,754.1z" style="fill: rgb(255, 255, 255);"/>
  <path id="XMLID_557_" class="st0" d="M946.1,676.3c-0.8-3.1-7.5-3.1-7.5-3.1s0.1,6.6-13.1,16.1c0,0,14-3.1,22.1,5.8 c0,0,5-4.8,3.6-8.3c7.3-2.5,4.9-10.4,4.9-10.4S951.4,674.6,946.1,676.3z" style="fill: rgb(255, 255, 255);"/>
  <path id="XMLID_426_" class="st0" d="M875.4,739.3c-9.5,13.3-16.1,13.1-16.1,13.1s0,6.7,3.1,7.5c-1.7,5.3,0.1,10,0.1,10 s7.8,2.4,10.4-4.9c3.5,1.4,8.3-3.6,8.3-3.6C872.3,753.3,875.4,739.3,875.4,739.3z" style="fill: rgb(255, 255, 255);"/>
  <path id="XMLID_549_" class="st3" d="M855.5,741.6c-7.2-4.2-11.7-11.9-11.7-20.4v-40.1h-40.1c-8.5,0-16.2-4.4-20.4-11.7 c4.2-7.2,11.9-11.7,20.4-11.7h40.1v-40.1c0-8.5,4.4-16.2,11.7-20.4c7.2,4.2,11.7,11.9,11.7,20.4v40.1h40.1 c8.5,0,16.2,4.4,20.4,11.7c-4.2,7.2-11.9,11.7-20.4,11.7h-40.1v40.1C867.2,729.7,862.7,737.4,855.5,741.6z" style="fill: rgb(113, 174, 202);"/>
  <path id="XMLID_433_" class="st0" d="M855.5,600.8c5.4,3.8,8.6,10,8.6,16.7v37.1v6.1h6.1h37.1c6.8,0,12.9,3.2,16.7,8.6 c-3.8,5.4-10,8.6-16.7,8.6h-37.1h-6.1v6.1v37.1c0,6.8-3.2,12.9-8.6,16.7c-5.4-3.8-8.6-10-8.6-16.7v-37.1V678h-6.1h-37.1 c-6.8,0-12.9-3.2-16.7-8.6c3.8-5.4,10-8.6,16.7-8.6h37.1h6.1v-6.1v-37.1C846.9,610.8,850.1,604.7,855.5,600.8 M855.5,593.7 c-9,4.5-14.7,13.8-14.7,23.9v37.1h-37.1c-10.1,0-19.4,5.7-23.9,14.7c4.5,9,13.8,14.7,23.9,14.7h37.1v37.1 c0,10.1,5.7,19.4,14.7,23.9c9-4.5,14.7-13.8,14.7-23.9v-37.1h37.1c10.1,0,19.4-5.7,23.9-14.7c-4.5-9-13.8-14.7-23.9-14.7h-37.1 v-37.1C870.2,607.5,864.5,598.2,855.5,593.7L855.5,593.7z" style="fill: rgb(255, 255, 255);"/>
  <path id="XMLID_432_" class="st1" d="M855.2,670.8c-22.4,0-43.2-0.7-60.7-1.9c17.5-1.2,38.3-1.9,60.7-1.9 c22.4,0,43.2,0.7,60.7,1.9C898.4,670.1,877.5,670.8,855.2,670.8z" style="fill: rgb(13, 76, 133);"/>
  <path id="XMLID_555_" class="st1" d="M853.2,668.8c0-22.4,0.7-43.2,1.9-60.7c1.2,17.5,1.9,38.3,1.9,60.7s-0.7,43.2-1.9,60.7 C853.9,712,853.2,691.2,853.2,668.8z" style="fill: rgb(13, 76, 133);"/>
</svg>