<?xml version="1.0" encoding="utf-8"?>
<svg viewBox="739.819 197.061 227.362 227.777" xmlns="http://www.w3.org/2000/svg">
  <path d="M 740.200012 197.699997 H 966.700012 V 424.199997 H 740.200012 V 197.699997 Z" id="XMLID_193_" class="st0" style="fill: rgb(255, 255, 255);"/>
  <g id="XMLID_186_">
    <path id="XMLID_156_" class="st2" d="M761.1,315.9c-14.7-1.4-22.6,10.4-21.1,19.2c1.5,8.7,8.4,12.7,15.6,12.5 c7.2-0.2,6.5-8.7,1.4-10.2c-5.1-1.5-9.1,2.5-9.1,2.5s0.1-5.4,3.7-7c3.6-1.7,6.5-0.1,10,3.1c5.8-6.1,13.6-3.9,16.4-1.7 s5,4.4,5,4.4s-12.2-4.7-17.2,3.1c5.4,5.4,8.5,3.5,12.2,5.6c3.7,2.1,4.3,9.6,4.3,9.6s-2.4-4.4-6.6-5c-4.2-0.6-7.8-0.6-7.8-0.6 s1.9,3.9,5.3,7.2c3.3,3.3,6.9,5.3,5.8,10.3s-1.9,6.7-1.9,6.7s0.1-2.4-3.3-6.1c-3.5-3.7-3.5-3.7-3.5-3.7s4.4,17.2-6.2,35.1 c0,0,17.2-18.3,23.3-40.5C793.3,337.8,775.8,317.3,761.1,315.9z" style="fill: rgb(40, 112, 158);"/>
    <path id="XMLID_80_" class="st2" d="M848.5,403.4c-1.4-14.7-21.9-32.2-44.1-26.1c-22.2,6.1-40.5,23.3-40.5,23.3 c17.9-10.7,35.1-6.2,35.1-6.2s0,0-3.7-3.5s-6.1-3.3-6.1-3.3s1.7-0.8,6.7-1.9c5-1.1,6.9,2.5,10.3,5.8c3.3,3.3,7.2,5.3,7.2,5.3 s0-3.6-0.6-7.8c-0.6-4.2-5-6.6-5-6.6s7.5,0.6,9.6,4.3c2.1,3.7,0.1,6.8,5.6,12.2c7.8-5,3.1-17.2,3.1-17.2s2.2,2.2,4.4,5 c2.2,2.8,4.4,10.5-1.7,16.4c3.2,3.5,4.7,6.4,3.1,10c-1.7,3.6-7,3.7-7,3.7s4-4,2.5-9.1c-1.5-5.1-10-5.8-10.2,1.4 c-0.2,7.2,3.7,14,12.5,15.6C838.1,426,849.9,418.1,848.5,403.4z" style="fill: rgb(40, 112, 158);"/>
    <path id="XMLID_77_" class="st1" d="M809.5,407.4c-6.4-6.9-12.9-7.4-29.7-5.6c-16.8,1.8-28.7,11.5-28.7,11.5s9.7-11.9,11.5-28.7 c1.8-16.8,1.4-23.3-5.6-29.7c-6.9-6.4-14.2,3.9-14.2,3.9s7.3-3.2,9.7,3.9c2.4,7.1-2.7,7.6-1.1,13.1c1.6,5.5,3.9,9.7,3.9,9.7 s-4-1.7-7.6-5.9c-3.6-4.2-4-5.7-4-5.7s-0.8,5.3,1.5,10.1c2.4,4.9,4.2,3.9,3.1,8.3c-1.1,4.4,4.2,5.8,3.7,10.1 c-0.4,4.3-1.5,6.8-4.3,4.9c-2.8-1.9-3.3-5-3.3-5s-1.5,2.6-1.7,7.2c-0.1,4.6,1.4,10.8,1.4,10.8s6.2,1.5,10.8,1.4 c4.6-0.1,7.2-1.7,7.2-1.7s-3.1-0.6-5-3.3c-1.9-2.8,0.6-3.9,4.9-4.3c4.3-0.4,5.7,4.9,10.1,3.7c4.4-1.1,3.5,0.7,8.3,3.1 c4.9,2.4,10.1,1.5,10.1,1.5s-1.5-0.4-5.7-4.1c-4.2-3.6-5.9-7.6-5.9-7.6s4.2,2.2,9.7,3.9c5.5,1.6,6-3.4,13.1-1.1 c7.1,2.4,3.9,9.7,3.9,9.7S815.9,414.3,809.5,407.4z" style="fill: rgb(13, 76, 133);"/>
  </g>
  <path id="XMLID_209_" class="st2" d="M945.9,315c14.7-1.4,22.6,10.4,21.1,19.2c-1.5,8.7-8.4,12.7-15.6,12.5 c-7.2-0.2-6.5-8.7-1.4-10.2c5.1-1.5,9.1,2.5,9.1,2.5s-0.1-5.4-3.7-7c-3.6-1.7-6.5-0.1-10,3.1c-5.8-6.1-13.6-3.9-16.4-1.7 s-5,4.4-5,4.4s12.2-4.7,17.2,3.1c-5.4,5.4-8.5,3.5-12.2,5.6c-3.7,2.1-4.3,9.6-4.3,9.6s2.4-4.4,6.6-5c4.2-0.6,7.8-0.6,7.8-0.6 s-1.9,3.9-5.3,7.2c-3.3,3.3-6.9,5.3-5.8,10.3c1.1,5,1.9,6.7,1.9,6.7s-0.1-2.4,3.3-6.1c3.5-3.7,3.5-3.7,3.5-3.7 s-4.4,17.2,6.2,35.1c0,0-17.2-18.3-23.3-40.5C913.7,337,931.2,316.4,945.9,315z" style="fill: rgb(40, 112, 158);"/>
  <path id="XMLID_163_" class="st2" d="M858.4,402.5c1.4-14.7,21.9-32.2,44.1-26.1c22.2,6.1,40.5,23.3,40.5,23.3 c-17.9-10.7-35.1-6.2-35.1-6.2s0,0,3.7-3.5s6.1-3.3,6.1-3.3s-1.7-0.8-6.7-1.9c-5-1.1-6.9,2.5-10.3,5.8c-3.3,3.3-7.2,5.3-7.2,5.3 s0-3.6,0.6-7.8c0.6-4.2,5-6.6,5-6.6s-7.5,0.6-9.6,4.3c-2.1,3.7-0.1,6.8-5.6,12.2c-7.8-5-3.1-17.2-3.1-17.2s-2.2,2.2-4.4,5 c-2.2,2.8-4.4,10.5,1.7,16.4c-3.2,3.5-4.7,6.4-3.1,10c1.7,3.6,7,3.7,7,3.7s-4-4-2.5-9.1c1.5-5.1,10-5.8,10.2,1.4 c0.2,7.2-3.7,14-12.5,15.6C868.9,425.1,857.1,417.2,858.4,402.5z" style="fill: rgb(40, 112, 158);"/>
  <path id="XMLID_114_" class="st1" d="M897.4,406.5c6.4-6.9,12.9-7.4,29.7-5.6c16.8,1.8,28.7,11.5,28.7,11.5s-9.7-11.9-11.5-28.7 c-1.8-16.8-1.4-23.3,5.6-29.7c6.9-6.4,14.2,3.9,14.2,3.9s-7.3-3.2-9.7,3.9c-2.4,7.1,2.7,7.6,1.1,13.1c-1.6,5.5-3.9,9.7-3.9,9.7 s4-1.7,7.6-5.9c3.6-4.2,4.1-5.7,4.1-5.7s0.8,5.3-1.5,10.1c-2.4,4.9-4.2,3.9-3.1,8.3c1.1,4.4-4.2,5.8-3.7,10.1 c0.4,4.3,1.5,6.8,4.3,4.9c2.8-1.9,3.3-5,3.3-5s1.5,2.6,1.7,7.2c0.1,4.6-1.4,10.8-1.4,10.8s-6.2,1.5-10.8,1.4 c-4.6-0.1-7.2-1.7-7.2-1.7s3.1-0.6,5-3.3c1.9-2.8-0.6-3.9-4.9-4.3c-4.3-0.4-5.7,4.9-10.1,3.7c-4.4-1.1-3.5,0.7-8.3,3.1 c-4.9,2.4-10.1,1.5-10.1,1.5s1.5-0.4,5.7-4.1c4.2-3.6,5.9-7.6,5.9-7.6s-4.2,2.2-9.7,3.9c-5.5,1.6-6-3.4-13.1-1.1 c-7.1,2.4-3.9,9.7-3.9,9.7S891.1,413.4,897.4,406.5z" style="fill: rgb(13, 76, 133);"/>
  <path id="XMLID_232_" class="st2" d="M761.1,306c-14.7,1.4-22.6-10.4-21.1-19.2c1.5-8.7,8.4-12.7,15.6-12.5 c7.2,0.2,6.5,8.7,1.4,10.2c-5.1,1.5-9.1-2.5-9.1-2.5s0.1,5.4,3.7,7c3.6,1.7,6.5,0.1,10-3.1c5.8,6.1,13.6,3.9,16.4,1.7 s5-4.4,5-4.4s-12.2,4.7-17.2-3.1c5.4-5.4,8.5-3.5,12.2-5.6c3.7-2.1,4.3-9.6,4.3-9.6s-2.4,4.4-6.6,5c-4.2,0.6-7.8,0.6-7.8,0.6 s1.9-3.9,5.3-7.2c3.3-3.3,6.9-5.3,5.8-10.3c-1.1-5-1.9-6.7-1.9-6.7s0.1,2.4-3.3,6.1c-3.5,3.7-3.5,3.7-3.5,3.7s4.4-17.2-6.2-35.1 c0,0,17.2,18.3,23.3,40.5C793.3,284.1,775.8,304.6,761.1,306z" style="fill: rgb(40, 112, 158);"/>
  <path id="XMLID_229_" class="st2" d="M848.5,218.5c-1.4,14.7-21.9,32.2-44.1,26.1c-22.2-6.1-40.5-23.3-40.5-23.3 c17.9,10.7,35.1,6.2,35.1,6.2s0,0-3.7,3.5c-3.7,3.5-6.1,3.3-6.1,3.3s1.7,0.8,6.7,1.9c5,1.1,6.9-2.5,10.3-5.8 c3.3-3.3,7.2-5.3,7.2-5.3s0,3.6-0.6,7.8c-0.6,4.2-5,6.6-5,6.6s7.5-0.6,9.6-4.3c2.1-3.7,0.1-6.8,5.6-12.2 c7.8,5,3.1,17.2,3.1,17.2s2.2-2.2,4.4-5c2.2-2.8,4.4-10.5-1.7-16.4c3.2-3.5,4.7-6.4,3.1-10c-1.7-3.6-7-3.7-7-3.7s4,4,2.5,9.1 c-1.5,5.1-10,5.8-10.2-1.4c-0.2-7.2,3.7-14,12.5-15.6C838.1,195.9,849.9,203.8,848.5,218.5z" style="fill: rgb(40, 112, 158);"/>
  <path id="XMLID_226_" class="st1" d="M809.5,214.5c-6.4,6.9-12.9,7.4-29.7,5.6c-16.8-1.8-28.7-11.5-28.7-11.5 s9.7,11.9,11.5,28.7c1.8,16.8,1.4,23.3-5.6,29.7c-6.9,6.4-14.2-3.9-14.2-3.9s7.3,3.2,9.7-3.9c2.4-7.1-2.7-7.6-1.1-13.1 s3.9-9.7,3.9-9.7s-4,1.7-7.6,5.9c-3.6,4.2-4,5.7-4,5.7s-0.8-5.3,1.5-10.1c2.4-4.9,4.2-3.9,3.1-8.3c-1.1-4.4,4.2-5.8,3.7-10.1 c-0.4-4.3-1.5-6.8-4.3-4.9c-2.8,1.9-3.3,5-3.3,5s-1.5-2.6-1.7-7.2c-0.1-4.6,1.4-10.8,1.4-10.8s6.2-1.5,10.8-1.4 c4.6,0.1,7.2,1.7,7.2,1.7s-3.1,0.6-5,3.3c-1.9,2.8,0.6,3.9,4.9,4.3c4.3,0.4,5.7-4.9,10.1-3.7c4.4,1.1,3.5-0.7,8.3-3.1 c4.9-2.4,10.1-1.5,10.1-1.5s-1.5,0.4-5.7,4.1c-4.2,3.6-5.9,7.6-5.9,7.6s4.2-2.2,9.7-3.9c5.5-1.6,6,3.4,13.1,1.1 c7.1-2.4,3.9-9.7,3.9-9.7S815.9,207.6,809.5,214.5z" style="fill: rgb(13, 76, 133);"/>
  <path id="XMLID_219_" class="st2" d="M945.9,306c14.7,1.4,22.6-10.4,21.1-19.2c-1.5-8.7-8.4-12.7-15.6-12.5 c-7.2,0.2-6.5,8.7-1.4,10.2c5.1,1.5,9.1-2.5,9.1-2.5s-0.1,5.4-3.7,7c-3.6,1.7-6.5,0.1-10-3.1c-5.8,6.1-13.6,3.9-16.4,1.7 s-5-4.4-5-4.4s12.2,4.7,17.2-3.1c-5.4-5.4-8.5-3.5-12.2-5.6c-3.7-2.1-4.3-9.6-4.3-9.6s2.4,4.4,6.6,5c4.2,0.6,7.8,0.6,7.8,0.6 s-1.9-3.9-5.3-7.2c-3.3-3.3-6.9-5.3-5.8-10.3c1.1-5,1.9-6.7,1.9-6.7s-0.1,2.4,3.3,6.1c3.5,3.7,3.5,3.7,3.5,3.7 s-4.4-17.2,6.2-35.1c0,0-17.2,18.3-23.3,40.5C913.7,284.1,931.2,304.6,945.9,306z" style="fill: rgb(40, 112, 158);"/>
  <path id="XMLID_213_" class="st2" d="M858.4,218.5c1.4,14.7,21.9,32.2,44.1,26.1c22.2-6.1,40.5-23.3,40.5-23.3 c-17.9,10.7-35.1,6.2-35.1,6.2s0,0,3.7,3.5c3.7,3.5,6.1,3.3,6.1,3.3s-1.7,0.8-6.7,1.9c-5,1.1-6.9-2.5-10.3-5.8 c-3.3-3.3-7.2-5.3-7.2-5.3s0,3.6,0.6,7.8c0.6,4.2,5,6.6,5,6.6s-7.5-0.6-9.6-4.3c-2.1-3.7-0.1-6.8-5.6-12.2 c-7.8,5-3.1,17.2-3.1,17.2s-2.2-2.2-4.4-5c-2.2-2.8-4.4-10.5,1.7-16.4c-3.2-3.5-4.7-6.4-3.1-10c1.7-3.6,7-3.7,7-3.7 s-4,4-2.5,9.1c1.5,5.1,10,5.8,10.2-1.4c0.2-7.2-3.7-14-12.5-15.6C868.9,195.9,857.1,203.8,858.4,218.5z" style="fill: rgb(40, 112, 158);"/>
  <path id="XMLID_157_" class="st1" d="M897.4,214.5c6.4,6.9,12.9,7.4,29.7,5.6c16.8-1.8,28.7-11.5,28.7-11.5s-9.7,11.9-11.5,28.7 c-1.8,16.8-1.4,23.3,5.6,29.7c6.9,6.4,14.2-3.9,14.2-3.9s-7.3,3.2-9.7-3.9c-2.4-7.1,2.7-7.6,1.1-13.1c-1.6-5.5-3.9-9.7-3.9-9.7 s4,1.7,7.6,5.9c3.6,4.2,4.1,5.7,4.1,5.7s0.8-5.3-1.5-10.1c-2.4-4.9-4.2-3.9-3.1-8.3c1.1-4.4-4.2-5.8-3.7-10.1 c0.4-4.3,1.5-6.8,4.3-4.9c2.8,1.9,3.3,5,3.3,5s1.5-2.6,1.7-7.2c0.1-4.6-1.4-10.8-1.4-10.8s-6.2-1.5-10.8-1.4 c-4.6,0.1-7.2,1.7-7.2,1.7s3.1,0.6,5,3.3c1.9,2.8-0.6,3.9-4.9,4.3c-4.3,0.4-5.7-4.9-10.1-3.7c-4.4,1.1-3.5-0.7-8.3-3.1 c-4.9-2.4-10.1-1.5-10.1-1.5s1.5,0.4,5.7,4.1c4.2,3.6,5.9,7.6,5.9,7.6s-4.2-2.2-9.7-3.9c-5.5-1.6-6,3.4-13.1,1.1 c-7.1-2.4-3.9-9.7-3.9-9.7S891.1,207.6,897.4,214.5z" style="fill: rgb(13, 76, 133);"/>
  <path d="M 910.7000122070312 311 L 894 327.70001220703125 L 894 351.3999938964844 L 870.2000122070312 351.3999938964844 L 853.5 368.20001220703125 L 836.7000122070312 351.3999938964844 L 813 351.3999938964844 L 813 327.70001220703125 L 796.2000122070312 311 L 813 294.20001220703125 L 813 270.5 L 836.7000122070312 270.5 L 853.5 253.6999969482422 L 870.2000122070312 270.5 L 894 270.5 L 894 294.20001220703125 Z" id="XMLID_264_" class="st3" style="fill: rgb(113, 174, 202);"/>
  <path d="M 853.5 381.1000061035156 L 832.9000244140625 360.6000061035156 L 803.9000244140625 360.6000061035156 L 803.9000244140625 331.5 L 783.2999877929688 311 L 803.9000244140625 290.3999938964844 L 803.9000244140625 261.3999938964844 L 832.9000244140625 261.3999938964844 L 853.5 240.8000030517578 L 874 261.3999938964844 L 903.0999755859375 261.3999938964844 L 903.0999755859375 290.3999938964844 L 923.5999755859375 311 L 903.0999755859375 331.5 L 903.0999755859375 360.6000061035156 L 874 360.6000061035156 Z" id="XMLID_261_" class="st6" style="fill: rgb(113, 174, 202); stroke: rgb(13, 76, 133); stroke-width: 4; stroke-miterlimit: 10;"/>
  <path d="M 813 351.3999938964844 L 836.7000122070312 351.3999938964844 L 853.5 368.20001220703125 L 870.2000122070312 351.3999938964844 L 894 351.3999938964844 L 894 327.70001220703125 L 910.7000122070312 311 L 894 294.20001220703125 L 894 270.5 L 870.2000122070312 270.5 L 853.5 253.6999969482422 L 836.7000122070312 270.5 L 813 270.5 L 813 294.20001220703125 L 796.2000122070312 311 L 813 327.70001220703125 Z" id="XMLID_260_" class="st7" style="fill: rgb(255, 255, 255); stroke: rgb(13, 76, 133); stroke-width: 4; stroke-miterlimit: 10;"/>
  <path id="XMLID_257_" class="st1" d="M857.9,280.8c0.7-3.6,2.1-6.8,4.9-9.4c-2.9-0.7-4.9,0.3-4.9,0.3c-0.7-4.3-4.4-4.6-4.4-4.6 s-3.7,0.3-4.4,4.6c0,0-2-1.1-4.9-0.3c2.7,2.5,4.1,5.7,4.8,9.2c-2.1-2.2-5.5-3.2-9.7-2.6c5.9,5.3,6.6,9.1,7.1,12.5 c0.3,2.4,2.9,8.2,4.3,11.4l0,0.1l2.8,4.8l2.8-4.8l0.1-0.1c1.4-3.2,3.9-8.9,4.2-11.3c0.5-3.4,1.2-7.2,7.1-12.5 C863.4,277.5,859.9,278.6,857.9,280.8z M853.9,290.6c0,1.7-0.1,3.2-0.2,4.5c-0.1,2.6-0.3,4.4-0.3,4.4s-0.2-1.8-0.3-4.4 c0-1.3-0.1-2.9-0.2-4.5c0-1.6,0-3.4-0.1-5.2c0-1.8,0-3.5,0.1-5.2c0-1.6,0.1-3.2,0.2-4.5c0.1-2.6,0.3-4.4,0.3-4.4s0.2,1.8,0.3,4.4 c0,1.3,0.1,2.9,0.2,4.5c0,1.6,0,3.4,0.1,5.2C854,287.2,853.9,288.9,853.9,290.6z" style="fill: rgb(13, 76, 133);"/>
  <path id="XMLID_149_" class="st1" d="M867.7,343.8c-5.9-5.3-6.6-9.1-7.1-12.5c-0.3-2.4-2.8-8.1-4.2-11.3l-0.1-0.1l-2.8-4.8 l-2.8,4.8l0,0.1c-1.4,3.2-4,9-4.3,11.4c-0.5,3.4-1.2,7.2-7.1,12.5c4.2,0.6,7.6-0.5,9.7-2.6c-0.7,3.5-2.1,6.7-4.8,9.2 c2.9,0.7,4.9-0.3,4.9-0.3c0.7,4.3,4.4,4.6,4.4,4.6s3.7-0.3,4.4-4.6c0,0,2,1.1,4.9,0.3c-2.9-2.5-4.3-5.8-4.9-9.4 C859.9,343.3,863.4,344.4,867.7,343.8z M854,336.5c0,1.8,0,3.5-0.1,5.2c0,1.6-0.1,3.2-0.2,4.5c-0.1,2.6-0.3,4.4-0.3,4.4 s-0.2-1.8-0.3-4.4c0-1.3-0.1-2.9-0.2-4.5c0-1.6,0-3.4-0.1-5.2c0-1.8,0-3.5,0.1-5.2c0-1.7,0.1-3.2,0.2-4.5 c0.1-2.6,0.3-4.4,0.3-4.4s0.2,1.8,0.3,4.4c0,1.3,0.1,2.9,0.2,4.5C853.9,333,854,334.8,854,336.5z" style="fill: rgb(13, 76, 133);"/>
  <path id="XMLID_247_" class="st1" d="M883.6,315.3c3.6,0.7,6.8,2.1,9.4,4.9c0.7-2.9-0.3-4.9-0.3-4.9c4.3-0.7,4.6-4.4,4.6-4.4 s-0.3-3.7-4.6-4.4c0,0,1.1-2,0.3-4.9c-2.5,2.7-5.7,4.1-9.2,4.8c2.2-2.1,3.2-5.5,2.6-9.7c-5.3,5.9-9.1,6.6-12.5,7.1 c-2.4,0.3-8.2,2.9-11.4,4.3l-0.1,0l-4.8,2.8l4.8,2.8l0.1,0.1c3.2,1.4,8.9,3.9,11.3,4.2c3.4,0.5,7.2,1.2,12.5,7.1 C886.9,320.9,885.9,317.4,883.6,315.3z M873.9,311.4c-1.7,0-3.2-0.1-4.5-0.2c-2.6-0.1-4.4-0.3-4.4-0.3s1.8-0.2,4.4-0.3 c1.3,0,2.9-0.1,4.5-0.2c1.6,0,3.4,0,5.2-0.1c1.8,0,3.5,0,5.2,0.1c1.6,0,3.2,0.1,4.5,0.2c2.6,0.1,4.4,0.3,4.4,0.3 s-1.8,0.2-4.4,0.3c-1.3,0-2.9,0.1-4.5,0.2c-1.6,0-3.4,0-5.2,0.1C877.3,311.4,875.5,311.4,873.9,311.4z" style="fill: rgb(13, 76, 133);"/>
  <path id="XMLID_144_" class="st1" d="M820.6,325.2c5.3-5.9,9.1-6.6,12.5-7.1c2.4-0.3,8.1-2.8,11.3-4.2l0.1-0.1l4.8-2.8l-4.8-2.8 l-0.1,0c-3.2-1.4-9-4-11.4-4.3c-3.4-0.5-7.2-1.2-12.5-7.1c-0.6,4.2,0.5,7.6,2.6,9.7c-3.5-0.7-6.7-2.1-9.2-4.8 c-0.7,2.9,0.3,4.9,0.3,4.9c-4.3,0.7-4.6,4.4-4.6,4.4s0.3,3.7,4.6,4.4c0,0-1.1,2-0.3,4.9c2.5-2.9,5.8-4.3,9.4-4.9 C821.1,317.4,820,320.9,820.6,325.2z M827.9,311.4c-1.8,0-3.5,0-5.2-0.1c-1.6,0-3.2-0.1-4.5-0.2c-2.6-0.1-4.4-0.3-4.4-0.3 s1.8-0.2,4.4-0.3c1.3,0,2.9-0.1,4.5-0.2c1.6,0,3.4,0,5.2-0.1c1.8,0,3.5,0,5.2,0.1c1.7,0,3.2,0.1,4.5,0.2c2.6,0.1,4.4,0.3,4.4,0.3 s-1.8,0.2-4.4,0.3c-1.3,0-2.9,0.1-4.5,0.2C831.4,311.4,829.7,311.4,827.9,311.4z" style="fill: rgb(13, 76, 133);"/>
  <path d="M 883.3 287 A 4.3 4.3 0 0 1 879 291.3 A 4.3 4.3 0 0 1 874.7 287 A 4.3 4.3 0 0 1 879 282.7 A 4.3 4.3 0 0 1 883.3 287 Z" id="XMLID_250_" class="st1" style="fill: rgb(13, 76, 133);"/>
  <path d="M 883.3 334.899994 A 4.3 4.3 0 0 1 879 339.199994 A 4.3 4.3 0 0 1 874.7 334.899994 A 4.3 4.3 0 0 1 879 330.599994 A 4.3 4.3 0 0 1 883.3 334.899994 Z" id="XMLID_252_" class="st1" style="fill: rgb(13, 76, 133);"/>
  <path d="M 834.500012 287 A 4.3 4.3 0 0 1 830.200012 291.3 A 4.3 4.3 0 0 1 825.900012 287 A 4.3 4.3 0 0 1 830.200012 282.7 A 4.3 4.3 0 0 1 834.500012 287 Z" id="XMLID_254_" class="st1" style="fill: rgb(13, 76, 133);"/>
  <path d="M 834.500012 334.899994 A 4.3 4.3 0 0 1 830.200012 339.199994 A 4.3 4.3 0 0 1 825.900012 334.899994 A 4.3 4.3 0 0 1 830.200012 330.599994 A 4.3 4.3 0 0 1 834.500012 334.899994 Z" id="XMLID_253_" class="st1" style="fill: rgb(13, 76, 133);"/>
</svg>