<?xml version="1.0" encoding="utf-8"?>
<svg viewBox="1047.2 194.7 232.5 232.7" width="232.5" height="232.7" xmlns="http://www.w3.org/2000/svg">
  <g id="XMLID_380_">
    <path d="M 1047.199951 194.800003 H 1279.699951 V 427.300003 H 1047.199951 V 194.800003 Z" id="XMLID_378_" class="st1" style="fill: rgb(13, 76, 133);"/>
    <path id="XMLID_481_" class="st3" d="M1163.4,311.1c-31.3,0-56.6,25.4-56.6,56.6c-31.3,0-56.6-25.4-56.6-56.6 c0-31.3,25.3-56.6,56.6-56.6C1106.8,285.7,1132.2,311.1,1163.4,311.1z" style="fill: rgb(113, 174, 202);"/>
    <path id="XMLID_477_" class="st3" d="M1163.4,311.1c0,31.3-25.3,56.6-56.6,56.6C1106.8,336.4,1132.2,311.1,1163.4,311.1z" style="fill: rgb(113, 174, 202);"/>
    <path id="XMLID_478_" class="st0" d="M1106.8,370.7h-3v-3c0-32.9,26.7-59.6,59.6-59.6h3v3 C1166.4,343.9,1139.7,370.7,1106.8,370.7z M1160.4,314.1c-27.1,1.5-48.9,23.3-50.4,50.5C1137,363.1,1158.8,341.3,1160.4,314.1z" style="fill: rgb(255, 255, 255);"/>
    <path id="XMLID_473_" class="st3" d="M1163.4,311.1c-31.3,0-56.6-25.4-56.6-56.6C1138.1,254.4,1163.4,279.8,1163.4,311.1z" style="fill: rgb(113, 174, 202);"/>
    <path id="XMLID_474_" class="st0" d="M1166.4,314.1h-3c-32.9,0-59.6-26.7-59.6-59.6v-3h3c32.9,0,59.6,26.7,59.6,59.6V314.1z M1109.9,257.5c1.5,27.1,23.3,48.9,50.4,50.4C1158.8,280.9,1137,259.1,1109.9,257.5z" style="fill: rgb(255, 255, 255);"/>
    <path id="XMLID_469_" class="st3" d="M1276.7,311.1c0,31.3-25.3,56.6-56.6,56.6c0-31.3-25.4-56.6-56.6-56.6 c31.3,0,56.6-25.4,56.6-56.6C1251.3,254.4,1276.7,279.8,1276.7,311.1z" style="fill: rgb(113, 174, 202);"/>
    <path id="XMLID_465_" class="st3" d="M1220.1,367.7c-31.3,0-56.6-25.4-56.6-56.6C1194.7,311.1,1220.1,336.4,1220.1,367.7z" style="fill: rgb(113, 174, 202);"/>
    <path id="XMLID_466_" class="st0" d="M1223.1,370.7h-3c-32.9,0-59.6-26.8-59.6-59.6v-3h3c32.9,0,59.6,26.8,59.6,59.6V370.7z M1166.5,314.1c1.5,27.1,23.3,48.9,50.5,50.5C1215.4,337.5,1193.7,315.7,1166.5,314.1z" style="fill: rgb(255, 255, 255);"/>
    <path id="XMLID_461_" class="st3" d="M1163.4,311.1c0-31.3,25.3-56.6,56.6-56.6C1220.1,285.7,1194.7,311.1,1163.4,311.1z" style="fill: rgb(113, 174, 202);"/>
    <path id="XMLID_462_" class="st0" d="M1163.4,314.1h-3v-3c0-32.9,26.8-59.6,59.6-59.6h3v3 C1223.1,287.3,1196.3,314.1,1163.4,314.1z M1217,257.5c-27.1,1.5-48.9,23.3-50.5,50.4C1193.7,306.4,1215.4,284.6,1217,257.5z" style="fill: rgb(255, 255, 255);"/>
    <path id="XMLID_457_" class="st3" d="M1220.1,254.4c-31.3,0-56.6,25.4-56.6,56.6c0-31.3-25.3-56.6-56.6-56.6 c0-31.3,25.3-56.6,56.6-56.6S1220.1,223.2,1220.1,254.4z" style="fill: rgb(113, 174, 202);"/>
    <path id="XMLID_453_" class="st1" d="M1163.4,311.1c-31.3,0-56.6-25.4-56.6-56.6C1138.1,254.4,1163.4,279.8,1163.4,311.1z" style="fill: rgb(13, 76, 133);"/>
    <path id="XMLID_445_" class="st1" d="M1220.1,254.4c0,31.3-25.4,56.6-56.6,56.6C1163.4,279.8,1188.8,254.4,1220.1,254.4z" style="fill: rgb(13, 76, 133);"/>
    <path id="XMLID_437_" class="st3" d="M1220.1,367.7c0,31.3-25.4,56.6-56.6,56.6s-56.6-25.4-56.6-56.6c31.3,0,56.6-25.4,56.6-56.6 C1163.4,342.3,1188.8,367.7,1220.1,367.7z" style="fill: rgb(113, 174, 202);"/>
    <path id="XMLID_409_" class="st1" d="M1163.4,311.1c0,31.3-25.3,56.6-56.6,56.6C1106.8,336.4,1132.2,311.1,1163.4,311.1z" style="fill: rgb(13, 76, 133);"/>
    <path id="XMLID_309_" class="st1" d="M1220.1,367.7c-31.3,0-56.6-25.4-56.6-56.6C1194.7,311.1,1220.1,336.4,1220.1,367.7z" style="fill: rgb(13, 76, 133);"/>
    <path id="XMLID_418_" class="st0" d="M1279.7,311.1c0-31.9-25.1-58-56.6-59.5v-0.1h-0.1c-1.6-31.5-27.7-56.6-59.6-56.6 c-31.9,0-58,25.1-59.5,56.6h-0.1v0.1c-31.5,1.6-56.6,27.7-56.6,59.5c0,31.9,25.1,58,56.6,59.6v0.1h0.1 c1.6,31.5,27.7,56.6,59.5,56.6c31.9,0,58-25.1,59.6-56.6h0.1v-0.1C1254.6,369,1279.7,342.9,1279.7,311.1z M1216.8,260 c-0.1,0.9-0.2,1.7-0.3,2.6c0,0.1-0.1,0.3-0.1,0.4c-0.1,0.7-0.2,1.4-0.4,2.1c-0.1,0.3-0.1,0.6-0.2,0.9c-0.1,0.5-0.2,1.1-0.4,1.6 c-0.1,0.3-0.2,0.7-0.3,1c-0.1,0.5-0.3,1-0.4,1.5c-0.1,0.3-0.2,0.7-0.3,1c-0.2,0.5-0.3,0.9-0.5,1.4c-0.1,0.3-0.3,0.7-0.4,1 c-0.2,0.5-0.3,0.9-0.5,1.4c-0.1,0.3-0.3,0.7-0.4,1c-0.2,0.4-0.4,0.9-0.6,1.3c-0.2,0.3-0.3,0.7-0.5,1c-0.2,0.4-0.4,0.9-0.7,1.3 c-0.2,0.3-0.3,0.6-0.5,0.9c-0.2,0.4-0.5,0.8-0.7,1.3c-0.2,0.3-0.4,0.6-0.5,0.9c-0.3,0.4-0.5,0.8-0.8,1.2 c-0.2,0.3-0.4,0.6-0.6,0.9c-0.3,0.4-0.6,0.8-0.9,1.2c-0.2,0.3-0.4,0.5-0.6,0.8c-0.3,0.4-0.7,0.8-1,1.3c-0.2,0.2-0.4,0.5-0.6,0.7 c-0.4,0.5-0.8,0.9-1.2,1.4c-0.1,0.2-0.3,0.3-0.4,0.5c-1.1,1.2-2.3,2.4-3.5,3.5c-0.2,0.1-0.3,0.3-0.5,0.4 c-0.5,0.4-0.9,0.8-1.4,1.2c-0.2,0.2-0.5,0.4-0.7,0.5c-0.4,0.3-0.8,0.7-1.3,1c-0.3,0.2-0.5,0.4-0.8,0.6c-0.4,0.3-0.8,0.6-1.2,0.9 c-0.3,0.2-0.6,0.4-0.8,0.6c-0.4,0.3-0.8,0.5-1.2,0.8c-0.3,0.2-0.6,0.4-0.9,0.5c-0.4,0.2-0.8,0.5-1.3,0.7 c-0.3,0.2-0.6,0.3-0.9,0.5c-0.4,0.2-0.9,0.4-1.3,0.7c-0.3,0.2-0.6,0.3-1,0.5c-0.4,0.2-0.9,0.4-1.3,0.6c-0.3,0.1-0.7,0.3-1,0.4 c-0.5,0.2-0.9,0.4-1.4,0.5c-0.3,0.1-0.7,0.3-1,0.4c-0.5,0.2-0.9,0.3-1.4,0.5c-0.3,0.1-0.7,0.2-1,0.3c-0.5,0.2-1,0.3-1.5,0.4 c-0.3,0.1-0.6,0.2-1,0.3c-0.5,0.1-1.1,0.3-1.7,0.4c-0.3,0.1-0.6,0.1-0.9,0.2c-0.7,0.1-1.4,0.3-2.2,0.4c-0.1,0-0.3,0-0.4,0.1 c-0.9,0.1-1.7,0.2-2.6,0.3c-0.3,0-0.5,0-0.8,0.1c-0.6,0-1.1,0.1-1.7,0.1c0-0.6,0.1-1.1,0.1-1.7c0-0.3,0-0.5,0.1-0.8 c0.1-0.9,0.2-1.7,0.3-2.6c0-0.1,0.1-0.3,0.1-0.4c0.1-0.7,0.2-1.4,0.4-2.1c0.1-0.3,0.1-0.6,0.2-0.9c0.1-0.5,0.2-1.1,0.4-1.6 c0.1-0.3,0.2-0.7,0.3-1c0.1-0.5,0.3-1,0.4-1.5c0.1-0.3,0.2-0.7,0.3-1c0.2-0.5,0.3-0.9,0.5-1.4c0.1-0.3,0.3-0.7,0.4-1 c0.2-0.5,0.3-0.9,0.5-1.4c0.1-0.3,0.3-0.7,0.4-1c0.2-0.4,0.4-0.9,0.6-1.3c0.2-0.3,0.3-0.7,0.5-1c0.2-0.4,0.4-0.9,0.7-1.3 c0.2-0.3,0.3-0.6,0.5-0.9c0.2-0.4,0.5-0.8,0.7-1.3c0.2-0.3,0.4-0.6,0.5-0.9c0.3-0.4,0.5-0.8,0.8-1.2c0.2-0.3,0.4-0.6,0.6-0.9 c0.3-0.4,0.6-0.8,0.9-1.2c0.2-0.3,0.4-0.5,0.6-0.8c0.3-0.4,0.7-0.8,1-1.3c0.2-0.2,0.4-0.5,0.6-0.7c0.4-0.5,0.8-0.9,1.2-1.4 c0.1-0.2,0.3-0.3,0.4-0.5c1.1-1.2,2.3-2.4,3.5-3.5c0.2-0.1,0.3-0.3,0.5-0.4c0.5-0.4,0.9-0.8,1.4-1.2c0.2-0.2,0.5-0.4,0.7-0.5 c0.4-0.3,0.8-0.7,1.3-1c0.3-0.2,0.5-0.4,0.8-0.6c0.4-0.3,0.8-0.6,1.2-0.9c0.3-0.2,0.6-0.4,0.8-0.6c0.4-0.3,0.8-0.5,1.2-0.8 c0.3-0.2,0.6-0.4,0.9-0.5c0.4-0.2,0.8-0.5,1.3-0.7c0.3-0.2,0.6-0.3,0.9-0.5c0.4-0.2,0.9-0.4,1.3-0.7c0.3-0.2,0.6-0.3,1-0.5 c0.4-0.2,0.9-0.4,1.3-0.6c0.3-0.1,0.7-0.3,1-0.4c0.5-0.2,0.9-0.4,1.4-0.5c0.3-0.1,0.7-0.3,1-0.4c0.5-0.2,0.9-0.3,1.4-0.5 c0.3-0.1,0.7-0.2,1-0.3c0.5-0.2,1-0.3,1.5-0.4c0.3-0.1,0.6-0.2,1-0.3c0.5-0.1,1.1-0.3,1.7-0.4c0.3-0.1,0.6-0.1,0.9-0.2 c0.7-0.1,1.4-0.3,2.2-0.4c0.1,0,0.3,0,0.4-0.1c0.9-0.1,1.7-0.2,2.6-0.3c0.3,0,0.5,0,0.8-0.1c0.6,0,1.1-0.1,1.7-0.1 c0,0.6-0.1,1.1-0.1,1.7C1216.8,259.5,1216.8,259.7,1216.8,260z M1169,314.3c0.9,0.1,1.7,0.2,2.6,0.3c0.2,0,0.3,0.1,0.4,0.1 c0.7,0.1,1.4,0.2,2.1,0.4c0.3,0.1,0.6,0.1,0.9,0.2c0.5,0.1,1.1,0.2,1.6,0.4c0.3,0.1,0.7,0.2,1,0.3c0.5,0.1,1,0.3,1.5,0.4 c0.3,0.1,0.7,0.2,1,0.3c0.5,0.2,0.9,0.3,1.4,0.5c0.3,0.1,0.7,0.3,1,0.4c0.4,0.2,0.9,0.3,1.3,0.5c0.3,0.1,0.7,0.3,1,0.4 c0.4,0.2,0.9,0.4,1.3,0.6c0.3,0.2,0.7,0.3,1,0.5c0.4,0.2,0.8,0.4,1.3,0.7c0.3,0.2,0.6,0.3,1,0.5c0.4,0.2,0.8,0.5,1.2,0.7 c0.3,0.2,0.6,0.4,0.9,0.6c0.4,0.3,0.8,0.5,1.2,0.8c0.3,0.2,0.6,0.4,0.9,0.6c0.4,0.3,0.8,0.6,1.2,0.9c0.3,0.2,0.5,0.4,0.8,0.6 c0.4,0.3,0.8,0.6,1.2,1c0.2,0.2,0.5,0.4,0.7,0.6c0.5,0.4,0.9,0.8,1.3,1.2c0.2,0.2,0.4,0.3,0.5,0.5c1.2,1.1,2.4,2.3,3.5,3.5 c0.2,0.2,0.3,0.4,0.5,0.5c0.4,0.4,0.8,0.9,1.2,1.3c0.2,0.2,0.4,0.5,0.6,0.7c0.3,0.4,0.7,0.8,1,1.2c0.2,0.3,0.4,0.5,0.6,0.8 c0.3,0.4,0.6,0.8,0.9,1.2c0.2,0.3,0.4,0.6,0.6,0.9c0.3,0.4,0.5,0.8,0.8,1.2c0.2,0.3,0.4,0.6,0.6,0.9c0.2,0.4,0.5,0.8,0.7,1.2 c0.2,0.3,0.3,0.6,0.5,1c0.2,0.4,0.4,0.8,0.7,1.3c0.2,0.3,0.3,0.7,0.5,1c0.2,0.4,0.4,0.9,0.6,1.3c0.1,0.3,0.3,0.7,0.4,1 c0.2,0.4,0.4,0.9,0.5,1.3c0.1,0.3,0.3,0.7,0.4,1c0.2,0.5,0.3,0.9,0.5,1.4c0.1,0.3,0.2,0.7,0.3,1c0.1,0.5,0.3,1,0.4,1.5 c0.1,0.3,0.2,0.7,0.3,1c0.1,0.5,0.3,1.1,0.4,1.6c0.1,0.3,0.1,0.6,0.2,0.9c0.1,0.7,0.3,1.4,0.4,2.1c0,0.1,0.1,0.3,0.1,0.4 c0.1,0.9,0.2,1.7,0.3,2.6c0,0.3,0,0.5,0.1,0.8c0,0.6,0.1,1.1,0.1,1.7c-0.6,0-1.1-0.1-1.7-0.1c-0.3,0-0.5,0-0.8-0.1 c-0.9-0.1-1.7-0.2-2.6-0.3c-0.2,0-0.3-0.1-0.4-0.1c-0.7-0.1-1.4-0.2-2.1-0.4c-0.3-0.1-0.6-0.1-0.9-0.2c-0.5-0.1-1.1-0.2-1.6-0.4 c-0.3-0.1-0.7-0.2-1-0.3c-0.5-0.1-1-0.3-1.5-0.4c-0.3-0.1-0.7-0.2-1-0.3c-0.5-0.2-0.9-0.3-1.4-0.5c-0.3-0.1-0.7-0.3-1-0.4 c-0.4-0.2-0.9-0.3-1.3-0.5c-0.3-0.1-0.7-0.3-1-0.4c-0.4-0.2-0.9-0.4-1.3-0.6c-0.3-0.2-0.7-0.3-1-0.5c-0.4-0.2-0.8-0.4-1.3-0.7 c-0.3-0.2-0.6-0.3-1-0.5c-0.4-0.2-0.8-0.5-1.2-0.7c-0.3-0.2-0.6-0.4-0.9-0.6c-0.4-0.3-0.8-0.5-1.2-0.8c-0.3-0.2-0.6-0.4-0.9-0.6 c-0.4-0.3-0.8-0.6-1.2-0.9c-0.3-0.2-0.5-0.4-0.8-0.6c-0.4-0.3-0.8-0.6-1.2-1c-0.2-0.2-0.5-0.4-0.7-0.6c-0.5-0.4-0.9-0.8-1.3-1.2 c-0.2-0.2-0.4-0.3-0.5-0.5c-1.2-1.1-2.4-2.3-3.5-3.5c-0.2-0.2-0.3-0.4-0.5-0.5c-0.4-0.4-0.8-0.9-1.2-1.3 c-0.2-0.2-0.4-0.5-0.6-0.7c-0.3-0.4-0.7-0.8-1-1.2c-0.2-0.3-0.4-0.5-0.6-0.8c-0.3-0.4-0.6-0.8-0.9-1.2c-0.2-0.3-0.4-0.6-0.6-0.9 c-0.3-0.4-0.5-0.8-0.8-1.2c-0.2-0.3-0.4-0.6-0.6-0.9c-0.2-0.4-0.5-0.8-0.7-1.2c-0.2-0.3-0.3-0.6-0.5-1c-0.2-0.4-0.4-0.8-0.7-1.3 c-0.2-0.3-0.3-0.7-0.5-1c-0.2-0.4-0.4-0.9-0.6-1.3c-0.1-0.3-0.3-0.7-0.4-1c-0.2-0.4-0.4-0.9-0.5-1.3c-0.1-0.3-0.3-0.7-0.4-1 c-0.2-0.5-0.3-0.9-0.5-1.4c-0.1-0.3-0.2-0.7-0.3-1c-0.1-0.5-0.3-1-0.4-1.5c-0.1-0.3-0.2-0.7-0.3-1c-0.1-0.5-0.3-1.1-0.4-1.6 c-0.1-0.3-0.1-0.6-0.2-0.9c-0.1-0.7-0.3-1.4-0.4-2.1c0-0.1-0.1-0.3-0.1-0.4c-0.1-0.9-0.2-1.7-0.3-2.6c0-0.3,0-0.5-0.1-0.8 c0-0.6-0.1-1.1-0.1-1.7c0.6,0,1.1,0.1,1.7,0.1C1168.5,314.3,1168.7,314.3,1169,314.3z M1160.2,316.6c-0.1,0.9-0.2,1.7-0.3,2.6 c0,0.1,0,0.3-0.1,0.4c-0.1,0.7-0.2,1.4-0.4,2.2c-0.1,0.3-0.1,0.6-0.2,0.9c-0.1,0.6-0.2,1.1-0.4,1.7c-0.1,0.3-0.2,0.6-0.3,1 c-0.1,0.5-0.3,1-0.4,1.5c-0.1,0.3-0.2,0.7-0.3,1c-0.2,0.5-0.3,0.9-0.5,1.4c-0.1,0.3-0.2,0.7-0.4,1c-0.2,0.5-0.4,0.9-0.5,1.4 c-0.1,0.3-0.3,0.7-0.4,1c-0.2,0.4-0.4,0.9-0.6,1.3c-0.2,0.3-0.3,0.6-0.5,1c-0.2,0.4-0.4,0.9-0.7,1.3c-0.2,0.3-0.3,0.6-0.5,0.9 c-0.2,0.4-0.5,0.8-0.7,1.3c-0.2,0.3-0.4,0.6-0.5,0.9c-0.3,0.4-0.5,0.8-0.8,1.2c-0.2,0.3-0.4,0.6-0.6,0.8 c-0.3,0.4-0.6,0.8-0.9,1.2c-0.2,0.3-0.4,0.5-0.6,0.8c-0.3,0.4-0.7,0.9-1,1.3c-0.2,0.2-0.4,0.5-0.5,0.7c-0.4,0.5-0.8,0.9-1.2,1.4 c-0.1,0.2-0.3,0.3-0.4,0.5c-1.1,1.2-2.3,2.4-3.5,3.5c-0.2,0.1-0.3,0.3-0.5,0.4c-0.5,0.4-0.9,0.8-1.4,1.2 c-0.2,0.2-0.5,0.4-0.7,0.6c-0.4,0.3-0.8,0.7-1.3,1c-0.3,0.2-0.5,0.4-0.8,0.6c-0.4,0.3-0.8,0.6-1.2,0.9c-0.3,0.2-0.6,0.4-0.9,0.6 c-0.4,0.3-0.8,0.5-1.2,0.8c-0.3,0.2-0.6,0.4-0.9,0.5c-0.4,0.2-0.8,0.5-1.3,0.7c-0.3,0.2-0.6,0.3-0.9,0.5 c-0.4,0.2-0.9,0.4-1.3,0.7c-0.3,0.2-0.6,0.3-1,0.5c-0.4,0.2-0.9,0.4-1.3,0.6c-0.3,0.1-0.7,0.3-1,0.4c-0.4,0.2-0.9,0.4-1.4,0.5 c-0.3,0.1-0.7,0.3-1,0.4c-0.5,0.2-0.9,0.3-1.4,0.5c-0.3,0.1-0.7,0.2-1,0.3c-0.5,0.2-1,0.3-1.5,0.4c-0.3,0.1-0.7,0.2-1,0.3 c-0.5,0.1-1.1,0.3-1.6,0.4c-0.3,0.1-0.6,0.1-0.9,0.2c-0.7,0.1-1.4,0.3-2.1,0.4c-0.1,0-0.3,0.1-0.4,0.1c-0.9,0.1-1.7,0.2-2.6,0.3 c-0.3,0-0.5,0-0.8,0.1c-0.6,0-1.1,0.1-1.7,0.1c0-0.6,0.1-1.1,0.1-1.7c0-0.3,0-0.5,0.1-0.8c0.1-0.9,0.2-1.7,0.3-2.6 c0-0.1,0-0.3,0.1-0.4c0.1-0.7,0.2-1.4,0.4-2.2c0.1-0.3,0.1-0.6,0.2-0.9c0.1-0.6,0.2-1.1,0.4-1.7c0.1-0.3,0.2-0.6,0.3-1 c0.1-0.5,0.3-1,0.4-1.5c0.1-0.3,0.2-0.7,0.3-1c0.2-0.5,0.3-0.9,0.5-1.4c0.1-0.3,0.2-0.7,0.4-1c0.2-0.5,0.4-0.9,0.5-1.4 c0.1-0.3,0.3-0.7,0.4-1c0.2-0.4,0.4-0.9,0.6-1.3c0.2-0.3,0.3-0.6,0.5-1c0.2-0.4,0.4-0.9,0.7-1.3c0.2-0.3,0.3-0.6,0.5-0.9 c0.2-0.4,0.5-0.8,0.7-1.3c0.2-0.3,0.4-0.6,0.5-0.9c0.3-0.4,0.5-0.8,0.8-1.2c0.2-0.3,0.4-0.6,0.6-0.8c0.3-0.4,0.6-0.8,0.9-1.2 c0.2-0.3,0.4-0.5,0.6-0.8c0.3-0.4,0.7-0.9,1-1.3c0.2-0.2,0.4-0.5,0.5-0.7c0.4-0.5,0.8-0.9,1.2-1.4c0.1-0.2,0.3-0.3,0.4-0.5 c1.1-1.2,2.3-2.4,3.5-3.5c0.2-0.1,0.3-0.3,0.5-0.4c0.5-0.4,0.9-0.8,1.4-1.2c0.2-0.2,0.5-0.4,0.7-0.6c0.4-0.3,0.8-0.7,1.3-1 c0.3-0.2,0.5-0.4,0.8-0.6c0.4-0.3,0.8-0.6,1.2-0.9c0.3-0.2,0.6-0.4,0.9-0.6c0.4-0.3,0.8-0.5,1.2-0.8c0.3-0.2,0.6-0.4,0.9-0.5 c0.4-0.2,0.8-0.5,1.3-0.7c0.3-0.2,0.6-0.3,0.9-0.5c0.4-0.2,0.9-0.4,1.3-0.7c0.3-0.2,0.6-0.3,1-0.5c0.4-0.2,0.9-0.4,1.3-0.6 c0.3-0.1,0.7-0.3,1-0.4c0.4-0.2,0.9-0.4,1.4-0.5c0.3-0.1,0.7-0.3,1-0.4c0.5-0.2,0.9-0.3,1.4-0.5c0.3-0.1,0.7-0.2,1-0.3 c0.5-0.2,1-0.3,1.5-0.4c0.3-0.1,0.7-0.2,1-0.3c0.5-0.1,1.1-0.3,1.6-0.4c0.3-0.1,0.6-0.1,0.9-0.2c0.7-0.1,1.4-0.3,2.1-0.4 c0.1,0,0.3-0.1,0.4-0.1c0.9-0.1,1.7-0.2,2.6-0.3c0.3,0,0.5,0,0.8-0.1c0.6,0,1.1-0.1,1.7-0.1c0,0.6-0.1,1.1-0.1,1.7 C1160.2,316.1,1160.2,316.3,1160.2,316.6z M1157.9,307.8c-0.9-0.1-1.7-0.2-2.6-0.3c-0.1,0-0.2,0-0.4-0.1 c-0.7-0.1-1.5-0.2-2.2-0.4c-0.3-0.1-0.6-0.1-0.8-0.2c-0.6-0.1-1.1-0.2-1.7-0.4c-0.3-0.1-0.6-0.2-1-0.3c-0.5-0.1-1-0.3-1.5-0.4 c-0.3-0.1-0.7-0.2-1-0.3c-0.5-0.2-1-0.3-1.4-0.5c-0.3-0.1-0.7-0.2-1-0.4c-0.5-0.2-0.9-0.4-1.4-0.5c-0.3-0.1-0.7-0.3-1-0.4 c-0.4-0.2-0.9-0.4-1.3-0.6c-0.3-0.2-0.6-0.3-1-0.5c-0.4-0.2-0.9-0.4-1.3-0.7c-0.3-0.2-0.6-0.3-0.9-0.5c-0.4-0.2-0.9-0.5-1.3-0.7 c-0.3-0.2-0.6-0.4-0.9-0.5c-0.4-0.3-0.8-0.5-1.3-0.8c-0.3-0.2-0.6-0.4-0.8-0.6c-0.4-0.3-0.8-0.6-1.3-0.9 c-0.3-0.2-0.5-0.4-0.8-0.6c-0.4-0.3-0.9-0.7-1.3-1c-0.2-0.2-0.4-0.3-0.7-0.5c-0.5-0.4-1-0.8-1.4-1.2c-0.1-0.1-0.3-0.3-0.4-0.4 c-1.2-1.1-2.4-2.3-3.6-3.6c-0.1-0.1-0.3-0.3-0.4-0.4c-0.4-0.5-0.8-0.9-1.2-1.4c-0.2-0.2-0.4-0.4-0.5-0.7c-0.3-0.4-0.7-0.9-1-1.3 c-0.2-0.3-0.4-0.5-0.6-0.8c-0.3-0.4-0.6-0.8-0.9-1.3c-0.2-0.3-0.4-0.6-0.6-0.8c-0.3-0.4-0.5-0.8-0.8-1.3 c-0.2-0.3-0.4-0.6-0.5-0.9c-0.3-0.4-0.5-0.8-0.7-1.3c-0.2-0.3-0.3-0.6-0.5-0.9c-0.2-0.4-0.5-0.9-0.7-1.3c-0.2-0.3-0.3-0.6-0.5-1 c-0.2-0.4-0.4-0.9-0.6-1.3c-0.1-0.3-0.3-0.6-0.4-1c-0.2-0.5-0.4-0.9-0.5-1.4c-0.1-0.3-0.3-0.7-0.4-1c-0.2-0.5-0.3-1-0.5-1.4 c-0.1-0.3-0.2-0.7-0.3-1c-0.2-0.5-0.3-1-0.4-1.5c-0.1-0.3-0.2-0.6-0.3-1c-0.1-0.6-0.3-1.1-0.4-1.7c-0.1-0.3-0.1-0.6-0.2-0.8 c-0.1-0.7-0.3-1.5-0.4-2.2c0-0.1,0-0.2-0.1-0.4c-0.1-0.9-0.2-1.7-0.3-2.6c0-0.3,0-0.5-0.1-0.8c0-0.6-0.1-1.1-0.1-1.7 c0.6,0,1.1,0.1,1.7,0.1c0.3,0,0.5,0,0.8,0.1c0.9,0.1,1.7,0.2,2.6,0.3c0.1,0,0.2,0,0.4,0.1c0.7,0.1,1.5,0.2,2.2,0.4 c0.3,0.1,0.6,0.1,0.8,0.2c0.6,0.1,1.1,0.2,1.7,0.4c0.3,0.1,0.6,0.2,1,0.3c0.5,0.1,1,0.3,1.5,0.4c0.3,0.1,0.7,0.2,1,0.3 c0.5,0.2,1,0.3,1.4,0.5c0.3,0.1,0.7,0.2,1,0.4c0.5,0.2,0.9,0.4,1.4,0.5c0.3,0.1,0.7,0.3,1,0.4c0.4,0.2,0.9,0.4,1.3,0.6 c0.3,0.2,0.6,0.3,1,0.5c0.4,0.2,0.9,0.4,1.3,0.7c0.3,0.2,0.6,0.3,0.9,0.5c0.4,0.2,0.9,0.5,1.3,0.7c0.3,0.2,0.6,0.4,0.9,0.5 c0.4,0.3,0.8,0.5,1.3,0.8c0.3,0.2,0.6,0.4,0.8,0.6c0.4,0.3,0.8,0.6,1.3,0.9c0.3,0.2,0.5,0.4,0.8,0.6c0.4,0.3,0.9,0.7,1.3,1 c0.2,0.2,0.4,0.3,0.7,0.5c0.5,0.4,1,0.8,1.4,1.2c0.1,0.1,0.3,0.3,0.4,0.4c1.2,1.1,2.4,2.3,3.6,3.6c0.1,0.1,0.3,0.3,0.4,0.4 c0.4,0.5,0.8,0.9,1.2,1.4c0.2,0.2,0.4,0.4,0.5,0.7c0.3,0.4,0.7,0.9,1,1.3c0.2,0.3,0.4,0.5,0.6,0.8c0.3,0.4,0.6,0.8,0.9,1.3 c0.2,0.3,0.4,0.6,0.6,0.8c0.3,0.4,0.5,0.8,0.8,1.3c0.2,0.3,0.4,0.6,0.5,0.9c0.3,0.4,0.5,0.8,0.7,1.3c0.2,0.3,0.3,0.6,0.5,0.9 c0.2,0.4,0.5,0.9,0.7,1.3c0.2,0.3,0.3,0.6,0.5,1c0.2,0.4,0.4,0.9,0.6,1.3c0.1,0.3,0.3,0.7,0.4,1c0.2,0.5,0.4,0.9,0.5,1.4 c0.1,0.3,0.3,0.7,0.4,1c0.2,0.5,0.3,1,0.5,1.4c0.1,0.3,0.2,0.7,0.3,1c0.2,0.5,0.3,1,0.4,1.5c0.1,0.3,0.2,0.6,0.3,1 c0.1,0.6,0.3,1.1,0.4,1.7c0.1,0.3,0.1,0.6,0.2,0.8c0.1,0.7,0.3,1.5,0.4,2.2c0,0.1,0,0.2,0.1,0.4c0.1,0.9,0.2,1.7,0.3,2.6 c0,0.3,0,0.5,0.1,0.8c0,0.6,0.1,1.1,0.1,1.7c-0.6,0-1.1-0.1-1.7-0.1C1158.4,307.8,1158.2,307.8,1157.9,307.8z M1163.4,200.8 c28.6,0,52,22.5,53.6,50.7c-0.9,0-1.8,0.1-2.7,0.2c-0.3,0-0.5,0.1-0.8,0.1c-0.7,0.1-1.3,0.2-1.9,0.2c-0.3,0-0.6,0.1-0.9,0.1 c-0.7,0.1-1.4,0.2-2.2,0.4c-0.2,0-0.3,0.1-0.5,0.1c-0.9,0.2-1.7,0.4-2.6,0.6c-0.2,0.1-0.4,0.1-0.6,0.2c-0.7,0.2-1.3,0.4-2,0.6 c-0.3,0.1-0.5,0.2-0.8,0.3c-0.6,0.2-1.3,0.4-1.9,0.6c-0.2,0.1-0.4,0.1-0.6,0.2c-0.8,0.3-1.7,0.6-2.5,1c-0.1,0-0.2,0.1-0.3,0.2 c-0.7,0.3-1.4,0.6-2.1,0.9c-0.2,0.1-0.5,0.2-0.7,0.3c-0.6,0.3-1.2,0.6-1.7,0.9c-0.2,0.1-0.4,0.2-0.7,0.4 c-0.8,0.4-1.5,0.8-2.2,1.3c0,0,0,0,0,0c-0.8,0.5-1.5,0.9-2.2,1.4c-0.2,0.1-0.4,0.3-0.6,0.4c-0.5,0.4-1.1,0.7-1.6,1.1 c-0.2,0.2-0.4,0.3-0.6,0.5c-0.6,0.4-1.1,0.9-1.7,1.3c-0.1,0.1-0.3,0.2-0.4,0.3c-0.7,0.6-1.3,1.1-2,1.7c-0.1,0.1-0.3,0.3-0.4,0.4 c-0.5,0.5-1,0.9-1.5,1.4c-0.2,0.2-0.4,0.4-0.6,0.6c-0.5,0.5-0.9,0.9-1.4,1.4c-0.2,0.2-0.3,0.3-0.5,0.5c-0.6,0.6-1.2,1.3-1.7,2 c-0.1,0.1-0.1,0.2-0.2,0.3c-0.5,0.6-1,1.2-1.4,1.8c-0.2,0.2-0.3,0.4-0.5,0.6c-0.4,0.5-0.7,1-1.1,1.5c-0.1,0.2-0.3,0.4-0.4,0.6 c-0.4,0.7-0.9,1.3-1.3,2c0,0.1-0.1,0.1-0.1,0.2c-0.5,0.7-0.9,1.5-1.3,2.3c-0.1,0.2-0.2,0.4-0.4,0.7c-0.3,0.6-0.6,1.1-0.9,1.7 c-0.1,0.3-0.2,0.5-0.4,0.8c-0.3,0.6-0.6,1.2-0.9,1.9c-0.1,0.2-0.2,0.4-0.2,0.5c-0.3,0.8-0.7,1.6-1,2.4c-0.1,0.2-0.1,0.4-0.2,0.6 c-0.2,0.4-0.3,0.9-0.5,1.3c-0.1-0.4-0.3-0.9-0.5-1.3c-0.1-0.2-0.1-0.4-0.2-0.6c-0.3-0.8-0.6-1.6-1-2.4c-0.1-0.2-0.2-0.4-0.3-0.6 c-0.3-0.6-0.5-1.2-0.8-1.8c-0.1-0.3-0.3-0.5-0.4-0.8c-0.3-0.6-0.6-1.1-0.8-1.6c-0.1-0.2-0.3-0.5-0.4-0.7 c-0.4-0.8-0.8-1.5-1.3-2.2c-0.1-0.1-0.1-0.2-0.2-0.3c-0.4-0.6-0.8-1.3-1.2-1.9c-0.2-0.2-0.3-0.5-0.5-0.7c-0.3-0.5-0.7-1-1-1.5 c-0.2-0.2-0.4-0.5-0.5-0.7c-0.4-0.6-0.8-1.1-1.3-1.6c-0.1-0.1-0.2-0.3-0.3-0.4c-0.5-0.7-1.1-1.3-1.7-1.9 c-0.2-0.2-0.4-0.4-0.6-0.6c-0.4-0.4-0.8-0.9-1.2-1.3c-0.2-0.2-0.4-0.4-0.7-0.7c-0.4-0.4-0.9-0.9-1.3-1.3 c-0.2-0.2-0.4-0.4-0.6-0.5c-0.6-0.6-1.3-1.1-1.9-1.7c-0.2-0.1-0.4-0.3-0.5-0.4c-0.5-0.4-1-0.8-1.5-1.2c-0.2-0.2-0.5-0.4-0.8-0.6 c-0.5-0.3-1-0.7-1.4-1c-0.2-0.2-0.5-0.3-0.7-0.5c-0.7-0.5-1.4-0.9-2.1-1.4c-0.1-0.1-0.2-0.1-0.3-0.2c-0.6-0.4-1.3-0.8-2-1.1 c-0.3-0.1-0.5-0.3-0.8-0.4c-0.5-0.3-1-0.5-1.6-0.8c-0.3-0.1-0.6-0.3-0.8-0.4c-0.6-0.3-1.2-0.6-1.9-0.8c-0.2-0.1-0.4-0.2-0.5-0.2 c-0.8-0.3-1.6-0.6-2.4-0.9c-0.3-0.1-0.5-0.2-0.8-0.3c-0.6-0.2-1.2-0.4-1.8-0.6c-0.3-0.1-0.6-0.2-0.9-0.3 c-0.6-0.2-1.2-0.4-1.8-0.5c-0.2-0.1-0.5-0.1-0.7-0.2c-0.9-0.2-1.7-0.4-2.6-0.6c-0.2,0-0.4-0.1-0.6-0.1c-0.7-0.1-1.4-0.3-2.1-0.4 c-0.3,0-0.6-0.1-0.9-0.1c-0.6-0.1-1.3-0.2-1.9-0.2c-0.3,0-0.6-0.1-0.8-0.1c-0.9-0.1-1.8-0.2-2.7-0.2 C1111.4,223.3,1134.9,200.8,1163.4,200.8z M1053.2,311.1c0-28.6,22.5-52,50.7-53.5c0,0.9,0.1,1.8,0.2,2.7c0,0.3,0.1,0.5,0.1,0.8 c0.1,0.7,0.2,1.3,0.2,2c0,0.3,0.1,0.6,0.1,0.9c0.1,0.7,0.2,1.4,0.4,2.1c0,0.2,0.1,0.4,0.1,0.5c0.2,0.9,0.4,1.7,0.6,2.6 c0.1,0.2,0.1,0.5,0.2,0.7c0.2,0.6,0.3,1.3,0.5,1.9c0.1,0.3,0.2,0.6,0.3,0.9c0.2,0.6,0.4,1.2,0.6,1.8c0.1,0.2,0.2,0.5,0.3,0.7 c0.3,0.8,0.6,1.6,1,2.4c0.1,0.2,0.1,0.3,0.2,0.5c0.3,0.6,0.6,1.3,0.9,1.9c0.1,0.3,0.3,0.5,0.4,0.8c0.3,0.5,0.5,1.1,0.8,1.6 c0.1,0.3,0.3,0.5,0.4,0.8c0.4,0.7,0.7,1.3,1.1,2c0.1,0.1,0.1,0.2,0.2,0.3c0.4,0.7,0.9,1.4,1.4,2.1c0.2,0.2,0.3,0.5,0.5,0.7 c0.3,0.5,0.7,1,1,1.4c0.2,0.2,0.4,0.5,0.6,0.7c0.4,0.5,0.8,1,1.2,1.5c0.1,0.2,0.3,0.4,0.4,0.5c0.5,0.6,1.1,1.3,1.7,1.9 c0.2,0.2,0.3,0.4,0.5,0.6c0.4,0.5,0.8,0.9,1.3,1.3c0.2,0.2,0.4,0.4,0.7,0.7c0.4,0.4,0.9,0.8,1.3,1.2c0.2,0.2,0.4,0.4,0.6,0.6 c0.6,0.6,1.3,1.1,1.9,1.7c0.1,0.1,0.3,0.2,0.4,0.3c0.5,0.4,1.1,0.9,1.6,1.3c0.2,0.2,0.5,0.4,0.7,0.5c0.5,0.4,1,0.7,1.5,1 c0.2,0.2,0.5,0.3,0.7,0.5c0.6,0.4,1.3,0.8,1.9,1.2c0.1,0.1,0.2,0.1,0.3,0.2c0.7,0.4,1.5,0.9,2.2,1.3c0.2,0.1,0.5,0.3,0.7,0.4 c0.5,0.3,1.1,0.6,1.6,0.8c0.3,0.1,0.5,0.3,0.8,0.4c0.6,0.3,1.2,0.6,1.8,0.8c0.2,0.1,0.4,0.2,0.6,0.3c0.8,0.3,1.6,0.7,2.4,1 c0.2,0.1,0.4,0.1,0.6,0.2c0.4,0.2,0.9,0.3,1.3,0.5c-0.5,0.1-0.9,0.3-1.3,0.5c-0.2,0.1-0.4,0.1-0.6,0.2c-0.8,0.3-1.6,0.6-2.4,1 c-0.2,0.1-0.4,0.2-0.5,0.2c-0.6,0.3-1.3,0.6-1.9,0.9c-0.3,0.1-0.5,0.2-0.8,0.4c-0.6,0.3-1.1,0.6-1.7,0.9 c-0.2,0.1-0.4,0.2-0.7,0.4c-0.8,0.4-1.5,0.9-2.3,1.3c-0.1,0-0.1,0.1-0.2,0.1c-0.7,0.4-1.4,0.9-2,1.3c-0.2,0.1-0.4,0.3-0.6,0.4 c-0.5,0.4-1,0.7-1.5,1.1c-0.2,0.2-0.4,0.3-0.6,0.5c-0.6,0.5-1.2,0.9-1.8,1.4c-0.1,0.1-0.2,0.1-0.3,0.2c-0.7,0.6-1.3,1.1-2,1.7 c-0.2,0.2-0.3,0.3-0.5,0.5c-0.5,0.4-1,0.9-1.4,1.4c-0.2,0.2-0.4,0.4-0.6,0.6c-0.5,0.5-0.9,1-1.4,1.5c-0.1,0.1-0.3,0.3-0.4,0.4 c-0.6,0.6-1.2,1.3-1.7,2c-0.1,0.1-0.2,0.2-0.3,0.4c-0.5,0.6-0.9,1.1-1.3,1.7c-0.2,0.2-0.3,0.4-0.5,0.6c-0.4,0.5-0.8,1.1-1.1,1.6 c-0.1,0.2-0.3,0.4-0.4,0.6c-0.5,0.7-1,1.5-1.4,2.2c0,0,0,0,0,0c-0.4,0.7-0.9,1.5-1.3,2.3c-0.1,0.2-0.2,0.4-0.3,0.7 c-0.3,0.6-0.6,1.2-0.9,1.7c-0.1,0.2-0.2,0.5-0.3,0.7c-0.3,0.7-0.6,1.4-0.9,2.1c0,0.1-0.1,0.2-0.1,0.3c-0.3,0.8-0.7,1.6-1,2.5 c-0.1,0.2-0.1,0.4-0.2,0.6c-0.2,0.6-0.4,1.3-0.7,1.9c-0.1,0.3-0.2,0.5-0.2,0.8c-0.2,0.7-0.4,1.3-0.6,2c-0.1,0.2-0.1,0.4-0.2,0.6 c-0.2,0.9-0.4,1.7-0.6,2.6c0,0.2-0.1,0.3-0.1,0.5c-0.1,0.7-0.3,1.5-0.4,2.2c0,0.3-0.1,0.6-0.1,0.8c-0.1,0.7-0.2,1.3-0.3,2 c0,0.3-0.1,0.5-0.1,0.8c-0.1,0.9-0.2,1.8-0.2,2.7C1075.7,363.1,1053.2,339.6,1053.2,311.1z M1163.4,421.3 c-28.6,0-52-22.5-53.5-50.7c0.9,0,1.8-0.1,2.7-0.2c0.3,0,0.5-0.1,0.8-0.1c0.7-0.1,1.3-0.2,2-0.3c0.3,0,0.6-0.1,0.9-0.1 c0.7-0.1,1.4-0.2,2.1-0.4c0.2,0,0.4-0.1,0.5-0.1c0.9-0.2,1.7-0.4,2.6-0.6c0.2-0.1,0.5-0.1,0.7-0.2c0.6-0.2,1.3-0.3,1.9-0.5 c0.3-0.1,0.6-0.2,0.9-0.3c0.6-0.2,1.2-0.4,1.8-0.6c0.2-0.1,0.5-0.2,0.7-0.3c0.8-0.3,1.6-0.6,2.4-1c0.2-0.1,0.3-0.1,0.5-0.2 c0.6-0.3,1.3-0.6,1.9-0.9c0.3-0.1,0.5-0.3,0.8-0.4c0.5-0.3,1.1-0.5,1.6-0.8c0.3-0.1,0.5-0.3,0.8-0.4c0.7-0.4,1.3-0.8,2-1.1 c0.1-0.1,0.2-0.1,0.3-0.2c0.7-0.4,1.4-0.9,2.1-1.4c0.2-0.2,0.5-0.3,0.7-0.5c0.5-0.3,1-0.7,1.5-1c0.2-0.2,0.5-0.4,0.7-0.5 c0.5-0.4,1-0.8,1.5-1.2c0.2-0.1,0.4-0.3,0.5-0.4c0.7-0.5,1.3-1.1,1.9-1.7c0.2-0.2,0.4-0.3,0.5-0.5c0.5-0.4,0.9-0.9,1.3-1.3 c0.2-0.2,0.4-0.4,0.6-0.6c0.4-0.4,0.8-0.9,1.3-1.3c0.2-0.2,0.4-0.4,0.5-0.6c0.6-0.6,1.1-1.3,1.7-1.9c0.1-0.1,0.2-0.3,0.3-0.4 c0.4-0.5,0.9-1.1,1.3-1.7c0.2-0.2,0.4-0.5,0.5-0.7c0.4-0.5,0.7-1,1-1.5c0.2-0.2,0.3-0.5,0.5-0.7c0.4-0.6,0.8-1.3,1.2-1.9 c0.1-0.1,0.1-0.2,0.2-0.3c0.4-0.7,0.9-1.5,1.3-2.2c0.1-0.2,0.3-0.5,0.4-0.7c0.3-0.5,0.6-1.1,0.8-1.6c0.1-0.3,0.3-0.5,0.4-0.8 c0.3-0.6,0.6-1.2,0.8-1.8c0.1-0.2,0.2-0.4,0.3-0.6c0.3-0.8,0.7-1.6,1-2.4c0.1-0.2,0.1-0.4,0.2-0.6c0.2-0.4,0.3-0.9,0.5-1.3 c0.1,0.5,0.3,0.9,0.5,1.3c0.1,0.2,0.1,0.4,0.2,0.6c0.3,0.8,0.6,1.6,1,2.5c0.1,0.2,0.2,0.4,0.2,0.5c0.3,0.6,0.6,1.3,0.9,1.9 c0.1,0.3,0.2,0.5,0.4,0.7c0.3,0.6,0.6,1.1,0.9,1.7c0.1,0.2,0.2,0.4,0.3,0.7c0.4,0.8,0.9,1.5,1.3,2.3c0,0.1,0.1,0.1,0.1,0.2 c0.4,0.7,0.9,1.4,1.3,2c0.1,0.2,0.3,0.4,0.4,0.6c0.4,0.5,0.7,1,1.1,1.6c0.2,0.2,0.3,0.4,0.5,0.6c0.5,0.6,0.9,1.2,1.4,1.8 c0.1,0.1,0.1,0.2,0.2,0.2c0.6,0.7,1.1,1.3,1.7,2c0.1,0.2,0.3,0.3,0.4,0.5c0.4,0.5,0.9,1,1.4,1.4c0.2,0.2,0.4,0.4,0.6,0.6 c0.5,0.5,1,1,1.5,1.4c0.1,0.1,0.3,0.3,0.4,0.4c0.7,0.6,1.3,1.2,2,1.7c0.1,0.1,0.2,0.2,0.4,0.3c0.6,0.5,1.1,0.9,1.7,1.3 c0.2,0.2,0.4,0.3,0.6,0.5c0.5,0.4,1.1,0.8,1.6,1.1c0.2,0.1,0.4,0.3,0.6,0.4c1.5,1,3,1.9,4.5,2.7c0.2,0.1,0.4,0.2,0.6,0.3 c0.6,0.3,1.2,0.6,1.8,0.9c0.2,0.1,0.5,0.2,0.7,0.3c0.7,0.3,1.4,0.7,2.1,1c0.1,0,0.2,0.1,0.3,0.1c0.8,0.3,1.6,0.7,2.5,1 c0.2,0.1,0.4,0.1,0.6,0.2c0.6,0.2,1.3,0.5,1.9,0.7c0.3,0.1,0.5,0.2,0.8,0.2c0.7,0.2,1.3,0.4,2,0.6c0.2,0.1,0.4,0.1,0.6,0.2 c0.9,0.2,1.7,0.4,2.6,0.6c0.2,0,0.3,0.1,0.5,0.1c0.7,0.1,1.5,0.3,2.2,0.4c0.3,0,0.5,0.1,0.8,0.1c0.7,0.1,1.3,0.2,2,0.3 c0.3,0,0.5,0.1,0.8,0.1c0.9,0.1,1.8,0.2,2.7,0.2C1215.5,398.8,1192,421.3,1163.4,421.3z M1223,364.6c0-0.9-0.1-1.8-0.2-2.7 c0-0.3-0.1-0.5-0.1-0.8c-0.1-0.7-0.2-1.3-0.3-2c0-0.3-0.1-0.5-0.1-0.8c-0.1-0.7-0.3-1.5-0.4-2.2c0-0.1-0.1-0.3-0.1-0.4 c-0.2-0.9-0.4-1.8-0.6-2.6c-0.1-0.2-0.1-0.4-0.2-0.6c-0.2-0.7-0.4-1.4-0.6-2c-0.1-0.3-0.2-0.5-0.2-0.8c-0.2-0.7-0.4-1.3-0.7-2 c-0.1-0.2-0.1-0.4-0.2-0.6c-0.3-0.8-0.6-1.7-1-2.5c0-0.1-0.1-0.2-0.1-0.3c-0.3-0.7-0.6-1.4-1-2.1c-0.1-0.2-0.2-0.4-0.3-0.7 c-0.3-0.6-0.6-1.2-0.9-1.8c-0.1-0.2-0.2-0.4-0.3-0.6c-0.8-1.5-1.8-3-2.7-4.5c-0.1-0.2-0.3-0.4-0.4-0.6c-0.4-0.5-0.8-1.1-1.2-1.6 c-0.2-0.2-0.3-0.4-0.5-0.6c-0.4-0.6-0.9-1.2-1.3-1.7c-0.1-0.1-0.2-0.2-0.3-0.3c-0.6-0.7-1.1-1.3-1.7-2c-0.1-0.1-0.3-0.3-0.4-0.4 c-0.5-0.5-0.9-1-1.4-1.5c-0.2-0.2-0.4-0.4-0.6-0.6c-0.5-0.5-1-0.9-1.4-1.4c-0.2-0.1-0.3-0.3-0.5-0.4c-0.6-0.6-1.3-1.2-2-1.7 c-0.1-0.1-0.2-0.1-0.2-0.2c-0.6-0.5-1.2-1-1.8-1.4c-0.2-0.2-0.4-0.3-0.6-0.5c-0.5-0.4-1-0.7-1.6-1.1c-0.2-0.1-0.4-0.3-0.6-0.4 c-0.7-0.4-1.4-0.9-2-1.3c-0.1,0-0.1-0.1-0.2-0.1c-0.7-0.5-1.5-0.9-2.3-1.3c-0.2-0.1-0.4-0.2-0.7-0.3c-0.6-0.3-1.1-0.6-1.7-0.9 c-0.2-0.1-0.5-0.2-0.7-0.4c-0.6-0.3-1.3-0.6-1.9-0.9c-0.2-0.1-0.4-0.2-0.5-0.2c-0.8-0.3-1.6-0.7-2.5-1c-0.2-0.1-0.4-0.1-0.6-0.2 c-0.4-0.2-0.9-0.3-1.3-0.5c0.4-0.1,0.9-0.3,1.3-0.5c0.2-0.1,0.4-0.1,0.6-0.2c0.8-0.3,1.6-0.6,2.4-1c0.2-0.1,0.4-0.2,0.6-0.3 c0.6-0.3,1.2-0.5,1.8-0.8c0.3-0.1,0.5-0.3,0.8-0.4c0.6-0.3,1.1-0.6,1.6-0.8c0.2-0.1,0.5-0.3,0.7-0.4c0.8-0.4,1.5-0.8,2.2-1.3 c0.1-0.1,0.2-0.1,0.3-0.2c0.6-0.4,1.3-0.8,1.9-1.2c0.2-0.2,0.5-0.3,0.7-0.5c0.5-0.3,1-0.7,1.5-1c0.2-0.2,0.5-0.3,0.7-0.5 c0.6-0.4,1.1-0.9,1.7-1.3c0.1-0.1,0.3-0.2,0.4-0.3c0.7-0.5,1.3-1.1,1.9-1.7c0.2-0.2,0.4-0.4,0.6-0.5c0.4-0.4,0.9-0.8,1.3-1.3 c0.2-0.2,0.4-0.4,0.6-0.6c0.4-0.4,0.9-0.9,1.3-1.4c0.2-0.2,0.3-0.4,0.5-0.5c0.6-0.6,1.1-1.3,1.7-1.9c0.1-0.2,0.3-0.3,0.4-0.5 c0.4-0.5,0.8-1,1.2-1.5c0.2-0.2,0.4-0.5,0.5-0.7c0.4-0.5,0.7-1,1-1.5c0.2-0.2,0.3-0.5,0.5-0.7c0.5-0.7,0.9-1.4,1.4-2.2 c0.1-0.1,0.1-0.2,0.1-0.3c0.4-0.7,0.8-1.3,1.2-2c0.1-0.3,0.3-0.5,0.4-0.8c0.3-0.5,0.6-1.1,0.8-1.6c0.1-0.3,0.3-0.5,0.4-0.8 c0.3-0.6,0.6-1.3,0.9-1.9c0.1-0.2,0.1-0.3,0.2-0.5c0.3-0.8,0.7-1.6,1-2.4c0.1-0.2,0.2-0.5,0.3-0.7c0.2-0.6,0.4-1.2,0.6-1.8 c0.1-0.3,0.2-0.6,0.3-0.9c0.2-0.6,0.4-1.3,0.5-1.9c0.1-0.2,0.1-0.5,0.2-0.7c0.2-0.9,0.4-1.7,0.6-2.6c0-0.2,0.1-0.4,0.1-0.5 c0.1-0.7,0.3-1.4,0.4-2.1c0-0.3,0.1-0.6,0.1-0.9c0.1-0.7,0.2-1.3,0.3-2c0-0.3,0.1-0.5,0.1-0.8c0.1-0.9,0.2-1.8,0.2-2.7 c28.2,1.5,50.7,25,50.7,53.5C1273.7,339.6,1251.2,363.1,1223,364.6z" style="fill: rgb(255, 255, 255);"/>
  </g>
  <g id="XMLID_400_">
    <g id="XMLID_414_">
      <path id="XMLID_441_" class="st0" d="M1141.2,240.6c0,0-1.6-6.8,4.8-5.5c6.5,1.3,10.9,10.2,13.2,14.8c2.3,4.6,1.7,7,0.7,6.7 c-1-0.3-2.6-5.7-6.7-10.4c-4.1-4.6-7.5-3.2-9.4-1.4c-1.8,1.8-0.5,4.6-0.5,4.6s2.5-2.5,5.8-0.1c-1.8,1.1-2.1,4.1-2.1,4.1 s2.1-1.8,5.8,0.7c3.7,2.4,9.1,9,9,10.6c-1.4,0.3-1.5,1.5-1.5,2c0,0.5,0.4,2.3,2.8,2.3s2.8-1.7,2.8-2.3c0-0.5-0.2-1.7-1.5-2 c-0.1-1.6,5.3-8.2,9-10.6c3.7-2.4,5.8-0.7,5.8-0.7s-0.3-3-2.1-4.1c3.4-2.4,5.8,0.1,5.8,0.1s1.3-2.8-0.5-4.6 c-1.8-1.8-5.3-3.3-9.4,1.4c-4.1,4.6-5.7,10.1-6.7,10.4c-1,0.3-1.6-2.1,0.7-6.7c2.3-4.6,6.7-13.5,13.2-14.8 c6.5-1.3,4.8,5.5,4.8,5.5s4.5-1.9,3.3-6.4c-1.2-4.5-8.3-2.5-8.3-2.5s-0.5-2.8-2.4-3.3c-1.8-0.5-3.4,0.6-4.8,5.5 c-2.4-0.9-3.6,0.5-4.2,3.1c-0.5,2.5-0.3,4-1.2,6.5c-0.9,2.5-2,3.2-2.5,2.5c-0.5-0.5-0.7-0.9,0.1-3.2c0-0.1,5-10.6,5.5-14.1 c0.5-3.5,1.2-7.5,7.4-13c-4.5-0.6-8.1,0.5-10.3,2.9c0.7-3.7,2.2-7.1,5.2-9.8c-3-0.7-5.1,0.4-5.1,0.4c-0.7-4.5-4.6-4.8-4.6-4.8 s-3.9,0.4-4.6,4.8c0,0-2.1-1.1-5.1-0.4c2.9,2.6,4.3,6,5,9.6c-2.2-2.3-5.8-3.3-10.1-2.7c6.2,5.6,6.9,9.5,7.4,13 c0.5,3.5,5.5,14,5.5,14.1c0.7,2.4,0.5,2.7,0.1,3.2c-0.5,0.6-1.6,0-2.5-2.5c-0.9-2.5-0.6-4-1.2-6.5c-0.5-2.5-1.8-4-4.2-3.1 c-1.5-4.8-3-5.9-4.8-5.5c-1.8,0.5-2.4,3.3-2.4,3.3s-7.1-2-8.3,2.5C1136.7,238.6,1141.2,240.6,1141.2,240.6z M1162.6,218 c0-1.7,0.1-3.3,0.2-4.7c0.1-2.8,0.3-4.6,0.3-4.6s0.2,1.8,0.3,4.6c0,1.4,0.1,3,0.2,4.7c0,1.7,0.1,3.6,0.1,5.4 c0,1.8,0,3.7-0.1,5.4c0,1.7-0.1,3.3-0.2,4.7c-0.1,2.8-0.3,4.6-0.3,4.6s-0.2-1.8-0.3-4.6c0-1.4-0.1-3-0.2-4.7 c0-1.7-0.1-3.6-0.1-5.4C1162.6,221.5,1162.6,219.7,1162.6,218z" style="fill: rgb(255, 255, 255);"/>
      <path id="XMLID_438_" class="st0" d="M1128,248c-1,1.6,1.8,4.4,1.8,4.4s2.7-2.8,12.2-1.2c0,0-7.1-4.5-6.8-11.6c0,0-4.1-0.1-5,2 c-4.1-2-6.4,2.3-6.4,2.3S1125.1,246.5,1128,248z" style="fill: rgb(255, 255, 255);"/>
      <path id="XMLID_421_" class="st0" d="M1183.5,251.2c9.5-1.6,12.2,1.2,12.2,1.2s2.8-2.8,1.8-4.4c2.9-1.5,4.1-4.2,4.1-4.2 s-2.3-4.2-6.4-2.3c-0.9-2-5-2-5-2C1190.7,246.6,1183.5,251.2,1183.5,251.2z" style="fill: rgb(255, 255, 255);"/>
    </g>
  </g>
  <g id="XMLID_423_">
    <path id="XMLID_455_" class="st0" d="M1137.9,387.7c1.2,4.5,8.3,2.5,8.3,2.5s0.5,2.8,2.4,3.3c1.8,0.5,3.4-0.6,4.8-5.5 c2.4,0.9,3.6-0.5,4.2-3.1c0.5-2.5,0.3-4,1.2-6.5c0.9-2.5,2-3.2,2.5-2.5c0.5,0.5,0.7,0.9-0.1,3.2c0,0.1-5,10.6-5.5,14.1 c-0.5,3.5-1.2,7.5-7.4,13c4.4,0.6,7.9-0.5,10.1-2.7c-0.7,3.6-2.2,7-5,9.6c3,0.7,5.1-0.4,5.1-0.4c0.7,4.5,4.6,4.8,4.6,4.8 s3.9-0.4,4.6-4.8c0,0,2.1,1.1,5.1,0.4c-3-2.6-4.4-6.1-5.2-9.8c2.2,2.4,5.8,3.5,10.3,2.9c-6.2-5.6-6.9-9.5-7.4-13 c-0.5-3.5-5.5-14-5.5-14.1c-0.7-2.4-0.5-2.7-0.1-3.2c0.5-0.6,1.6,0,2.5,2.5s0.6,4,1.2,6.5c0.5,2.5,1.8,4,4.2,3.1 c1.5,4.8,3,5.9,4.8,5.5c1.8-0.5,2.4-3.3,2.4-3.3s7.1,2,8.3-2.5c1.2-4.5-3.3-6.4-3.3-6.4s1.6,6.8-4.8,5.5 c-6.5-1.3-10.9-10.2-13.2-14.8c-2.3-4.6-1.7-7-0.7-6.7c1,0.3,2.6,5.7,6.7,10.4c4.1,4.6,7.5,3.2,9.4,1.4 c1.8-1.8,0.5-4.6,0.5-4.6s-2.5,2.5-5.8,0.1c1.8-1.1,2.1-4.1,2.1-4.1s-2.1,1.8-5.8-0.7c-3.7-2.4-9.1-9-9-10.6 c1.4-0.3,1.5-1.5,1.5-2s-0.4-2.3-2.8-2.3s-2.8,1.7-2.8,2.3s0.2,1.7,1.5,2c0.1,1.6-5.3,8.2-9,10.6c-3.7,2.4-5.8,0.7-5.8,0.7 s0.3,3,2.1,4.1c-3.4,2.4-5.8-0.1-5.8-0.1s-1.3,2.8,0.5,4.6c1.8,1.8,5.3,3.3,9.4-1.4c4.1-4.6,5.7-10.1,6.7-10.4 c1-0.3,1.6,2.1-0.7,6.7c-2.3,4.6-6.7,13.5-13.2,14.8c-6.5,1.3-4.8-5.5-4.8-5.5S1136.7,383.3,1137.9,387.7z M1162.6,398.6 c0-1.8,0-3.7,0.1-5.4c0-1.7,0.1-3.3,0.2-4.7c0.1-2.8,0.3-4.6,0.3-4.6s0.2,1.8,0.3,4.6c0,1.4,0.1,3,0.2,4.7c0,1.7,0,3.6,0.1,5.4 c0,1.8,0,3.7-0.1,5.4c0,1.7-0.1,3.3-0.2,4.7c-0.1,2.8-0.3,4.6-0.3,4.6s-0.2-1.8-0.3-4.6c0-1.4-0.1-3-0.2-4.7 C1162.6,402.2,1162.6,400.4,1162.6,398.6z" style="fill: rgb(255, 255, 255);"/>
    <path id="XMLID_440_" class="st0" d="M1128,373.9c-1-1.6,1.8-4.4,1.8-4.4s2.7,2.8,12.2,1.2c0,0-7.1,4.5-6.8,11.6 c0,0-4.1,0.1-5-2c-4.1,2-6.4-2.3-6.4-2.3S1125.1,375.4,1128,373.9z" style="fill: rgb(255, 255, 255);"/>
    <path id="XMLID_425_" class="st0" d="M1183.5,370.7c9.5,1.6,12.2-1.2,12.2-1.2s2.8,2.8,1.8,4.4c2.9,1.5,4.1,4.2,4.1,4.2 s-2.3,4.2-6.4,2.3c-0.9,2-5,2-5,2C1190.7,375.3,1183.5,370.7,1183.5,370.7z" style="fill: rgb(255, 255, 255);"/>
  </g>
  <g id="XMLID_508_">
    <g id="XMLID_509_">
      <path id="XMLID_521_" class="st0" d="M1233.2,289.4c0,0,6.8-1.6,5.5,4.8c-1.3,6.5-10.2,10.9-14.8,13.2c-4.6,2.3-7,1.7-6.7,0.7 c0.3-1,5.7-2.6,10.4-6.7c4.6-4.1,3.2-7.5,1.4-9.4c-1.8-1.8-4.6-0.5-4.6-0.5s2.5,2.5,0.1,5.8c-1.1-1.8-4.1-2.1-4.1-2.1 s1.8,2.1-0.7,5.8s-9,9.1-10.6,9c-0.3-1.4-1.5-1.5-2-1.5c-0.5,0-2.3,0.4-2.3,2.8c0,2.5,1.7,2.8,2.3,2.8c0.5,0,1.7-0.2,2-1.5 c1.6-0.1,8.2,5.3,10.6,9s0.7,5.8,0.7,5.8s3-0.3,4.1-2.1c2.4,3.4-0.1,5.8-0.1,5.8s2.8,1.3,4.6-0.5c1.8-1.8,3.3-5.3-1.4-9.4 c-4.6-4.1-10.1-5.7-10.4-6.7c-0.3-1,2.1-1.6,6.7,0.7c4.6,2.3,13.5,6.7,14.8,13.2c1.3,6.5-5.5,4.8-5.5,4.8s1.9,4.5,6.4,3.3 c4.5-1.2,2.5-8.3,2.5-8.3s2.8-0.5,3.3-2.4c0.5-1.8-0.6-3.4-5.5-4.8c0.9-2.4-0.5-3.6-3.1-4.2c-2.5-0.5-4-0.3-6.5-1.2 c-2.5-0.9-3.2-2-2.5-2.5c0.5-0.5,0.9-0.7,3.2,0.1c0.1,0,10.6,5,14.1,5.5c3.5,0.5,7.5,1.2,13,7.4c0.6-4.5-0.5-8.1-2.9-10.3 c3.7,0.7,7.1,2.2,9.8,5.2c0.7-3-0.4-5.1-0.4-5.1c4.5-0.7,4.8-4.6,4.8-4.6s-0.4-3.9-4.8-4.6c0,0,1.1-2.1,0.4-5.1 c-2.6,2.9-6,4.3-9.6,5c2.3-2.2,3.3-5.8,2.7-10.1c-5.6,6.2-9.5,6.9-13,7.4c-3.5,0.5-14,5.5-14.1,5.5c-2.4,0.7-2.7,0.5-3.2,0.1 c-0.6-0.5,0-1.6,2.5-2.5c2.5-0.9,4-0.6,6.5-1.2c2.5-0.5,4-1.8,3.1-4.2c4.8-1.5,5.9-3,5.5-4.8c-0.5-1.8-3.3-2.4-3.3-2.4 s2-7.1-2.5-8.3C1235.1,284.9,1233.2,289.4,1233.2,289.4z M1255.8,310.8c1.7,0,3.3,0.1,4.7,0.2c2.8,0.1,4.6,0.3,4.6,0.3 s-1.8,0.2-4.6,0.3c-1.4,0-3,0.1-4.7,0.2c-1.7,0-3.6,0.1-5.4,0.1c-1.8,0-3.7,0-5.4-0.1c-1.7,0-3.3-0.1-4.7-0.2 c-2.8-0.1-4.6-0.3-4.6-0.3s1.8-0.2,4.6-0.3c1.4,0,3-0.1,4.7-0.2c1.7,0,3.6,0,5.4-0.1C1252.2,310.8,1254.1,310.8,1255.8,310.8z " style="fill: rgb(255, 255, 255);"/>
      <path id="XMLID_514_" class="st0" d="M1225.7,276.2c-1.6-1-4.4,1.8-4.4,1.8s2.8,2.7,1.2,12.2c0,0,4.5-7.1,11.6-6.8 c0,0,0.1-4.1-2-5c2-4.1-2.3-6.4-2.3-6.4S1227.2,273.3,1225.7,276.2z" style="fill: rgb(255, 255, 255);"/>
      <path id="XMLID_510_" class="st0" d="M1222.6,331.7c1.6,9.5-1.2,12.2-1.2,12.2s2.8,2.8,4.4,1.8c1.5,2.9,4.2,4.1,4.2,4.1 s4.2-2.3,2.3-6.4c2-0.9,2-5,2-5C1227.1,338.8,1222.6,331.7,1222.6,331.7z" style="fill: rgb(255, 255, 255);"/>
    </g>
  </g>
  <g id="XMLID_443_">
    <path id="XMLID_491_" class="st0" d="M1086,286.1c-4.5,1.2-2.5,8.3-2.5,8.3s-2.8,0.5-3.3,2.4c-0.5,1.8,0.6,3.4,5.5,4.8 c-0.9,2.4,0.5,3.6,3.1,4.2c2.5,0.5,4,0.3,6.5,1.2c2.5,0.9,3.2,2,2.5,2.5c-0.5,0.5-0.9,0.7-3.2-0.1c-0.1,0-10.6-5-14.1-5.5 c-3.5-0.5-7.5-1.2-13-7.4c-0.6,4.4,0.5,7.9,2.7,10.1c-3.6-0.7-7-2.2-9.6-5c-0.7,3,0.4,5.1,0.4,5.1c-4.5,0.7-4.8,4.6-4.8,4.6 s0.4,3.9,4.8,4.6c0,0-1.1,2.1-0.4,5.1c2.6-3,6.1-4.4,9.8-5.2c-2.4,2.2-3.5,5.8-2.9,10.3c5.6-6.2,9.5-6.9,13-7.4 c3.5-0.5,14-5.5,14.1-5.5c2.4-0.7,2.7-0.5,3.2-0.1c0.6,0.5,0,1.6-2.5,2.5c-2.5,0.9-4,0.6-6.5,1.2c-2.5,0.5-4,1.8-3.1,4.2 c-4.8,1.5-5.9,3-5.5,4.8c0.5,1.8,3.3,2.4,3.3,2.4s-2,7.1,2.5,8.3c4.5,1.2,6.4-3.3,6.4-3.3s-6.8,1.6-5.5-4.8 c1.3-6.5,10.2-10.9,14.8-13.2c4.6-2.3,7-1.7,6.7-0.7c-0.3,1-5.7,2.6-10.4,6.7c-4.6,4.1-3.2,7.5-1.4,9.4 c1.8,1.8,4.6,0.5,4.6,0.5s-2.5-2.5-0.1-5.8c1.1,1.8,4.1,2.1,4.1,2.1s-1.8-2.1,0.7-5.8c2.4-3.7,9-9.1,10.6-9 c0.3,1.4,1.5,1.5,2,1.5c0.5,0,2.3-0.4,2.3-2.8c0-2.5-1.7-2.8-2.3-2.8c-0.5,0-1.7,0.2-2,1.5c-1.6,0.1-8.2-5.3-10.6-9 c-2.4-3.7-0.7-5.8-0.7-5.8s-3,0.3-4.1,2.1c-2.4-3.4,0.1-5.8,0.1-5.8s-2.8-1.3-4.6,0.5c-1.8,1.8-3.3,5.3,1.4,9.4 c4.6,4.1,10.1,5.7,10.4,6.7c0.3,1-2.1,1.6-6.7-0.7c-4.6-2.3-13.5-6.7-14.8-13.2c-1.3-6.5,5.5-4.8,5.5-4.8 S1090.5,284.9,1086,286.1z M1075.2,310.8c1.8,0,3.7,0,5.4,0.1c1.7,0,3.3,0.1,4.7,0.2c2.8,0.1,4.6,0.3,4.6,0.3 s-1.8,0.2-4.6,0.3c-1.4,0-3,0.1-4.7,0.2c-1.7,0-3.6,0.1-5.4,0.1c-1.8,0-3.7,0-5.4-0.1c-1.7,0-3.3-0.1-4.7-0.2 c-2.8-0.1-4.6-0.3-4.6-0.3s1.8-0.2,4.6-0.3c1.4,0,3-0.1,4.7-0.2C1071.5,310.8,1073.3,310.8,1075.2,310.8z" style="fill: rgb(255, 255, 255);"/>
    <path id="XMLID_486_" class="st0" d="M1099.8,276.2c1.6-1,4.4,1.8,4.4,1.8s-2.8,2.7-1.2,12.2c0,0-4.5-7.1-11.6-6.8 c0,0-0.1-4.1,2-5c-2-4.1,2.3-6.4,2.3-6.4S1098.3,273.3,1099.8,276.2z" style="fill: rgb(255, 255, 255);"/>
    <path id="XMLID_451_" class="st0" d="M1103,331.7c-1.6,9.5,1.2,12.2,1.2,12.2s-2.8,2.8-4.4,1.8c-1.5,2.9-4.2,4.1-4.2,4.1 s-4.2-2.3-2.3-6.4c-2-0.9-2-5-2-5C1098.5,338.8,1103,331.7,1103,331.7z" style="fill: rgb(255, 255, 255);"/>
  </g>
  <path id="XMLID_487_" class="st0" d="M1193.1,284.1c-7.6,7.6-15.2,14.2-22,19.3c5.1-6.8,11.7-14.4,19.3-22 c7.6-7.6,15.2-14.2,22-19.3C1207.3,268.9,1200.7,276.5,1193.1,284.1z" style="fill: rgb(255, 255, 255);"/>
  <path id="XMLID_446_" class="st0" d="M1136.5,340.7c-7.6,7.6-15.2,14.2-22,19.3c5.1-6.8,11.7-14.4,19.3-22 c7.6-7.6,15.2-14.2,22-19.3C1150.7,325.5,1144.1,333.1,1136.5,340.7z" style="fill: rgb(255, 255, 255);"/>
  <path id="XMLID_452_" class="st0" d="M1190.4,340.7c-7.6-7.6-14.2-15.2-19.3-22c6.8,5.1,14.4,11.7,22,19.3 c7.6,7.6,14.2,15.2,19.3,22C1205.6,354.9,1198,348.3,1190.4,340.7z" style="fill: rgb(255, 255, 255);"/>
  <path id="XMLID_444_" class="st0" d="M1133.8,284.1c-7.6-7.6-14.2-15.2-19.3-22c6.8,5.1,14.4,11.7,22,19.3 c7.6,7.6,14.2,15.2,19.3,22C1149,298.3,1141.4,291.7,1133.8,284.1z" style="fill: rgb(255, 255, 255);"/>
  <path id="XMLID_540_" class="st0" d="M1100.2,200.8c0,0,1.4,2.7,0.5,6.6c-3.4-3.7-7.8-5.6-12.5-6.5c2.9,2.8,4.3,7.5,3.5,13.1 c-7.2-8-12.4-9-16.9-9.6c-3.2-0.5-11.1-3.9-15.4-5.8l-0.1,0l-6.4-3.7l0.3-0.2h12.2c-1.6,0.1-2.5,0.2-2.5,0.2s2.4,0.2,6,0.4 c1.8,0.1,3.9,0.2,6.1,0.2c2.2,0.1,4.6,0.1,7,0.1c2.4,0,4.8,0,7-0.1c2.2,0,4.3-0.2,6.1-0.2c3.6-0.2,6-0.4,6-0.4s-0.9-0.1-2.5-0.2 h8.1c0,0.1,0,0.2,0,0.2S1106,199.9,1100.2,200.8z" style="fill: rgb(255, 255, 255);"/>
  <path id="XMLID_539_" class="st0" d="M1050.9,206.8L1050.9,206.8c2,4.4,5.4,12.3,5.9,15.5c0.6,4.6,1.6,9.7,9.6,16.9 c-5.7,0.8-10.3-0.6-13.1-3.5c1,4.7,2.8,9.1,6.5,12.5c-3.9,1-6.6-0.5-6.6-0.5c-1,5.8-6,6.3-6,6.3l0,0v-5.6c0,0,0,0,0,0 s0.2-2.4,0.4-6c0.1-1.8,0.2-3.9,0.2-6.1c0.1-2.2,0.1-4.6,0.1-7c0-2.4,0-4.8-0.1-7c0-2.2-0.2-4.3-0.2-6.1c-0.2-3.6-0.4-6-0.4-6 s0,0,0,0v-10l0,0L1050.9,206.8z" style="fill: rgb(255, 255, 255);"/>
  <path d="M 1085.399976 226.399994 A 5.8 5.8 0 0 1 1079.599976 232.199994 A 5.8 5.8 0 0 1 1073.799975 226.399994 A 5.8 5.8 0 0 1 1079.599976 220.599994 A 5.8 5.8 0 0 1 1085.399976 226.399994 Z" id="XMLID_538_" class="st0" style="fill: rgb(255, 255, 255);"/>
  <path id="XMLID_102_" class="st0" d="M1100.2,421.1c0,0,1.4-2.7,0.5-6.6c-3.4,3.7-7.8,5.6-12.5,6.5c2.9-2.8,4.3-7.5,3.5-13.1 c-7.2,8-12.4,9-16.9,9.6c-3.2,0.5-11.1,3.9-15.4,5.8l-0.1,0l-6.4,3.7l0.3,0.2h12.2c-1.6-0.1-2.5-0.2-2.5-0.2s2.4-0.2,6-0.4 c1.8-0.1,3.9-0.2,6.1-0.2c2.2-0.1,4.6-0.1,7-0.1c2.4,0,4.8,0,7,0.1c2.2,0,4.3,0.2,6.1,0.2c3.6,0.2,6,0.4,6,0.4s-0.9,0.1-2.5,0.2 h8.1c0-0.1,0-0.2,0-0.2S1106,422.1,1100.2,421.1z" style="fill: rgb(255, 255, 255);"/>
  <path id="XMLID_101_" class="st0" d="M1050.9,415.1L1050.9,415.1c2-4.4,5.4-12.3,5.9-15.5c0.6-4.6,1.6-9.7,9.6-16.9 c-5.7-0.8-10.3,0.6-13.1,3.5c1-4.7,2.8-9.1,6.5-12.5c-3.9-1-6.6,0.5-6.6,0.5c-1-5.8-6-6.3-6-6.3l0,0v5.6c0,0,0,0,0,0 s0.2,2.4,0.4,6c0.1,1.8,0.2,3.9,0.2,6.1c0.1,2.2,0.1,4.6,0.1,7c0,2.4,0,4.8-0.1,7c0,2.2-0.2,4.3-0.2,6.1c-0.2,3.6-0.4,6-0.4,6 s0,0,0,0v10l0,0L1050.9,415.1z" style="fill: rgb(255, 255, 255);"/>
  <path d="M 1085.399976 395.600006 A 5.8 5.8 0 0 1 1079.599976 401.400006 A 5.8 5.8 0 0 1 1073.799975 395.600006 A 5.8 5.8 0 0 1 1079.599976 389.800006 A 5.8 5.8 0 0 1 1085.399976 395.600006 Z" id="XMLID_100_" class="st0" style="fill: rgb(255, 255, 255);"/>
  <path id="XMLID_413_" class="st0" d="M1226.7,200.8c0,0-1.4,2.7-0.5,6.6c3.4-3.7,7.8-5.6,12.5-6.5c-2.9,2.8-4.3,7.5-3.5,13.1 c7.2-8,12.4-9,16.9-9.6c3.2-0.5,11.1-3.9,15.4-5.8l0.1,0l6.4-3.7l-0.3-0.2h-12.2c1.6,0.1,2.5,0.2,2.5,0.2s-2.4,0.2-6,0.4 c-1.8,0.1-3.9,0.2-6.1,0.2c-2.2,0.1-4.6,0.1-7,0.1c-2.4,0-4.8,0-7-0.1c-2.2,0-4.3-0.2-6.1-0.2c-3.6-0.2-6-0.4-6-0.4 s0.9-0.1,2.5-0.2h-8.1c0,0.1,0,0.2,0,0.2S1220.9,199.9,1226.7,200.8z" style="fill: rgb(255, 255, 255);"/>
  <path id="XMLID_336_" class="st0" d="M1276,206.8L1276,206.8c-2,4.4-5.4,12.3-5.9,15.5c-0.6,4.6-1.6,9.7-9.6,16.9 c5.7,0.8,10.3-0.6,13.1-3.5c-1,4.7-2.8,9.1-6.5,12.5c3.9,1,6.6-0.5,6.6-0.5c1,5.8,6,6.3,6,6.3l0,0v-5.6c0,0,0,0,0,0 s-0.2-2.4-0.4-6c-0.1-1.8-0.2-3.9-0.2-6.1c-0.1-2.2-0.1-4.6-0.1-7c0-2.4,0-4.8,0.1-7c0-2.2,0.2-4.3,0.2-6.1c0.2-3.6,0.4-6,0.4-6 s0,0,0,0v-10l0,0L1276,206.8z" style="fill: rgb(255, 255, 255);"/>
  <path d="M 1252.999951 226.399994 A 5.8 5.8 0 0 1 1247.199951 232.199994 A 5.8 5.8 0 0 1 1241.399951 226.399994 A 5.8 5.8 0 0 1 1247.199951 220.599994 A 5.8 5.8 0 0 1 1252.999951 226.399994 Z" id="XMLID_315_" class="st0" style="fill: rgb(255, 255, 255);"/>
  <path id="XMLID_269_" class="st0" d="M1226.7,421.1c0,0-1.4-2.7-0.5-6.6c3.4,3.7,7.8,5.6,12.5,6.5c-2.9-2.8-4.3-7.5-3.5-13.1 c7.2,8,12.4,9,16.9,9.6c3.2,0.5,11.1,3.9,15.4,5.8l0.1,0l6.4,3.7l-0.3,0.2h-12.2c1.6-0.1,2.5-0.2,2.5-0.2s-2.4-0.2-6-0.4 c-1.8-0.1-3.9-0.2-6.1-0.2c-2.2-0.1-4.6-0.1-7-0.1c-2.4,0-4.8,0-7,0.1c-2.2,0-4.3,0.2-6.1,0.2c-3.6,0.2-6,0.4-6,0.4 s0.9,0.1,2.5,0.2h-8.1c0-0.1,0-0.2,0-0.2S1220.9,422.1,1226.7,421.1z" style="fill: rgb(255, 255, 255);"/>
  <path id="XMLID_105_" class="st0" d="M1276,415.1L1276,415.1c-2-4.4-5.4-12.3-5.9-15.5c-0.6-4.6-1.6-9.7-9.6-16.9 c5.7-0.8,10.3,0.6,13.1,3.5c-1-4.7-2.8-9.1-6.5-12.5c3.9-1,6.6,0.5,6.6,0.5c1-5.8,6-6.3,6-6.3l0,0v5.6c0,0,0,0,0,0 s-0.2,2.4-0.4,6c-0.1,1.8-0.2,3.9-0.2,6.1c-0.1,2.2-0.1,4.6-0.1,7c0,2.4,0,4.8,0.1,7c0,2.2,0.2,4.3,0.2,6.1c0.2,3.6,0.4,6,0.4,6 s0,0,0,0v10l0,0L1276,415.1z" style="fill: rgb(255, 255, 255);"/>
  <path d="M 1252.999951 395.600006 A 5.8 5.8 0 0 1 1247.199951 401.400006 A 5.8 5.8 0 0 1 1241.399951 395.600006 A 5.8 5.8 0 0 1 1247.199951 389.800006 A 5.8 5.8 0 0 1 1252.999951 395.600006 Z" id="XMLID_104_" class="st0" style="fill: rgb(255, 255, 255);"/>
</svg>