<?xml version="1.0" encoding="utf-8"?>
<svg viewBox="120.2 556.1 226.731 226.7" xmlns="http://www.w3.org/2000/svg">
  <path d="M 120.300003 556.099976 H 346.800003 V 782.599976 H 120.300003 V 556.099976 Z" id="XMLID_49_" class="st4" style="fill: rgb(4, 99, 160);"/>
  <path id="XMLID_294_" class="st3" d="M199.2,669.3c-20,0-38.8-7.8-53-21.9c-14.1-14.1-21.9-32.9-21.9-52.9c0-9.3,1.7-18.4,5-27 l0.6-1.6l1.6-0.6c8.6-3.3,17.7-5,27-5c20,0,38.8,7.8,52.9,21.9c21,21,27.6,52.4,16.9,80l-0.6,1.6l-1.6,0.6 C217.5,667.6,208.5,669.3,199.2,669.3z" style="fill: rgb(113, 174, 202);"/>
  <path id="XMLID_276_" class="st0" d="M160.9,640.3c0,0-8.4-5.1-0.7-10.3c7.7-5.2,21-0.7,27.8,1.6c6.9,2.3,8.6,5.3,7.4,6 c-1.2,0.7-8.3-3.1-17-3.6c-8.7-0.5-10.7,4.3-10.7,8c0,3.6,4.1,5.2,4.1,5.2s0-4.9,5.7-5.9c-0.7,2.9,2,6.1,2,6.1s0.3-3.8,6.4-5.1 s18-0.1,19.5,1.6c-1.1,1.6-0.1,3,0.5,3.5c0.5,0.5,2.6,1.9,5.1-0.5c2.4-2.4,1.1-4.5,0.5-5.1s-1.9-1.5-3.5-0.5 c-1.7-1.5-2.9-13.4-1.6-19.5c1.3-6.1,5.1-6.4,5.1-6.4s-3.3-2.7-6.1-2c1-5.7,5.9-5.7,5.9-5.7s-1.5-4.1-5.2-4.1c-3.6,0-8.5,2-8,10.7 c0.5,8.7,4.3,15.7,3.6,17c-0.7,1.2-3.6-0.5-6-7.4c-2.3-6.9-6.8-20.1-1.6-27.8c5.2-7.7,10.3,0.7,10.3,0.7s2.5-6.3-3.1-9.6 c-5.6-3.3-10.7,5.8-10.7,5.8s-3.3-2.3-5.6-0.9c-2.3,1.4-2.7,4,0.6,10.2c-3.3,1.4-3.1,4.2-1.1,7.2c2,3.1,3.7,4.3,5.3,7.7 c1.6,3.4,1.2,5.2,0,5.1c-1-0.1-1.5-0.2-3.1-3.3c0-0.1-5.5-15.6-8.5-19.5c-3-4-6.2-8.6-5.6-20.3c-5,3.8-7.5,8.6-7.3,13.1 c-3-4.4-4.9-9.2-4.6-14.8c-3.7,2.3-4.7,5.4-4.7,5.4c-5.2-3.7-9.4-0.2-9.4-0.2s-3.5,4.2,0.2,9.4c0,0-3.2,1-5.4,4.7 c5.5-0.2,10.2,1.7,14.5,4.6c-4.4-0.1-9,2.4-12.8,7.3c11.7-0.6,16.3,2.6,20.3,5.6c4,3,19.4,8.5,19.5,8.5c3,1.6,3.2,2.2,3.3,3.1 c0.1,1.2-1.6,1.6-5.1,0c-3.4-1.6-4.6-3.3-7.7-5.3c-3.1-2-5.8-2.2-7.2,1.1c-6.2-3.3-8.9-2.9-10.2-0.6s0.9,5.6,0.9,5.6 s-9,5.1-5.8,10.7S160.9,640.3,160.9,640.3z M159.8,596.5c-1.7-1.7-3.2-3.4-4.5-4.8c-2.6-2.9-4.3-4.8-4.3-4.8s2,1.7,4.8,4.3 c1.4,1.3,3.1,2.8,4.8,4.5c1.8,1.7,3.6,3.5,5.4,5.3c1.8,1.8,3.6,3.7,5.3,5.4c1.7,1.7,3.2,3.4,4.5,4.8c2.6,2.9,4.3,4.8,4.3,4.8 s-2-1.7-4.8-4.3c-1.4-1.3-3.1-2.8-4.8-4.5c-1.8-1.7-3.6-3.5-5.4-5.3C163.3,600.1,161.5,598.3,159.8,596.5z" style="fill: rgb(255, 255, 255);"/>
  <path id="XMLID_290_" class="st3" d="M308.5,778.7c-20,0-38.8-7.8-53-21.9c-20.9-21-27.6-52.4-16.9-80l0.6-1.6l1.6-0.6 c8.6-3.3,17.7-5,27-5c20,0,38.8,7.8,53,21.9c21,20.9,27.6,52.3,16.9,80l-0.6,1.6l-1.6,0.6C326.9,777,317.8,778.7,308.5,778.7z" style="fill: rgb(113, 174, 202);"/>
  <path id="XMLID_227_" class="st0" d="M265.7,751.6c5.6,3.3,10.7-5.8,10.7-5.8s3.3,2.3,5.6,0.9c2.3-1.4,2.7-4-0.6-10.2 c3.3-1.4,3.1-4.2,1.1-7.2c-2-3.1-3.7-4.3-5.3-7.7c-1.6-3.4-1.2-5.2,0-5.1c1,0.1,1.5,0.2,3.1,3.3c0.1,0.1,5.5,15.6,8.5,19.5 c3,4,6.2,8.6,5.6,20.3c4.9-3.7,7.4-8.4,7.3-12.8c2.9,4.3,4.8,9.1,4.6,14.5c3.7-2.3,4.7-5.4,4.7-5.4c5.2,3.7,9.4,0.2,9.4,0.2 s3.5-4.2-0.2-9.4c0,0,3.2-1,5.4-4.7c-5.6,0.3-10.4-1.6-14.8-4.6c4.5,0.2,9.2-2.3,13.1-7.3c-11.7,0.6-16.3-2.6-20.3-5.6 c-4-3-19.4-8.5-19.5-8.5c-3-1.6-3.2-2.2-3.3-3.1c-0.1-1.2,1.6-1.6,5.1,0c3.4,1.6,4.6,3.3,7.7,5.3c3.1,2,5.8,2.2,7.2-1.1 c6.2,3.3,8.9,2.9,10.2,0.6c1.4-2.3-0.9-5.6-0.9-5.6s9-5.1,5.8-10.7c-3.3-5.6-9.6-3.1-9.6-3.1s8.4,5.1,0.7,10.3 c-7.7,5.2-21,0.7-27.8-1.6s-8.6-5.3-7.4-6c1.2-0.7,8.3,3.1,17,3.6c8.7,0.5,10.7-4.3,10.7-8c0-3.6-4.1-5.2-4.1-5.2s0,4.9-5.7,5.9 c0.7-2.9-2-6.1-2-6.1s-0.3,3.8-6.4,5.1c-6.1,1.3-18,0.1-19.5-1.6c1.1-1.6,0.1-3-0.5-3.5c-0.5-0.5-2.6-1.9-5.1,0.5 c-2.4,2.4-1.1,4.5-0.5,5.1c0.5,0.5,1.9,1.5,3.5,0.5c1.7,1.5,2.9,13.4,1.6,19.5c-1.3,6.1-5.1,6.4-5.1,6.4s3.3,2.7,6.1,2 c-1,5.7-5.9,5.7-5.9,5.7s1.5,4.1,5.2,4.1c3.6,0,8.5-2,8-10.7c-0.5-8.7-4.3-15.7-3.6-17c0.7-1.2,3.6,0.5,6,7.4 c2.3,6.9,6.8,20.1,1.6,27.8c-5.2,7.7-10.3-0.7-10.3-0.7S260.1,748.3,265.7,751.6z M301,737.8c-1.8-1.8-3.6-3.7-5.3-5.4 c-1.7-1.7-3.2-3.4-4.5-4.8c-2.6-2.9-4.3-4.8-4.3-4.8s2,1.7,4.8,4.3c1.4,1.3,3.1,2.8,4.8,4.5c1.8,1.7,3.6,3.5,5.4,5.3 c1.8,1.8,3.6,3.7,5.3,5.4c1.7,1.7,3.2,3.4,4.5,4.8c2.6,2.9,4.3,4.8,4.3,4.8s-2-1.7-4.8-4.3c-1.4-1.3-3.1-2.8-4.8-4.5 C304.7,741.5,302.8,739.7,301,737.8z" style="fill: rgb(255, 255, 255);"/>
  <path id="XMLID_282_" class="st3" d="M158.6,778.7c-9.3,0-18.4-1.7-27-5l-1.6-0.6l-0.6-1.6c-3.3-8.6-5-17.7-5-27 c0-20,7.8-38.8,21.9-52.9c14.1-14.1,33-21.9,53-21.9c9.3,0,18.4,1.7,27,5l1.6,0.6l0.6,1.6c10.7,27.6,4,59-16.9,80 C197.4,770.9,178.6,778.7,158.6,778.7z" style="fill: rgb(113, 174, 202);"/>
  <path id="XMLID_220_" class="st0" d="M204.5,742c0,0-5.1,8.4-10.3,0.7c-5.2-7.7-0.7-21,1.6-27.8c2.3-6.9,5.3-8.6,6-7.4 c0.7,1.2-3.1,8.3-3.6,17c-0.5,8.7,4.3,10.7,8,10.7c3.6,0,5.2-4.1,5.2-4.1s-4.9,0-5.9-5.7c2.9,0.7,6.1-2,6.1-2s-3.8-0.3-5.1-6.4 c-1.3-6.1-0.1-18,1.6-19.5c1.6,1.1,3,0.1,3.5-0.5c0.5-0.5,1.9-2.6-0.5-5.1c-2.4-2.4-4.5-1.1-5.1-0.5c-0.5,0.5-1.5,1.9-0.5,3.5 c-1.5,1.7-13.4,2.9-19.5,1.6c-6.1-1.3-6.4-5.1-6.4-5.1s-2.7,3.3-2,6.1c-5.7-1-5.7-5.9-5.7-5.9s-4.1,1.5-4.1,5.2 c0,3.6,2,8.5,10.7,8c8.7-0.5,15.7-4.3,17-3.6c1.2,0.7-0.5,3.6-7.4,6c-6.9,2.3-20.1,6.8-27.8,1.6c-7.7-5.2,0.7-10.3,0.7-10.3 s-6.3-2.5-9.6,3.1c-3.3,5.6,5.8,10.7,5.8,10.7s-2.3,3.3-0.9,5.6c1.4,2.3,4,2.7,10.2-0.6c1.4,3.3,4.2,3.1,7.2,1.1 c3.1-2,4.3-3.7,7.7-5.3c3.4-1.6,5.2-1.2,5.1,0c-0.1,1-0.2,1.5-3.3,3.1c-0.1,0-15.6,5.5-19.5,8.5c-4,3-8.6,6.2-20.3,5.6 c3.8,5,8.6,7.5,13.1,7.3c-4.4,3-9.2,4.9-14.8,4.6c2.3,3.7,5.4,4.7,5.4,4.7c-3.7,5.2-0.2,9.4-0.2,9.4s4.2,3.5,9.4-0.2 c0,0,1,3.2,4.7,5.4c-0.2-5.5,1.7-10.2,4.6-14.5c-0.1,4.4,2.4,9,7.3,12.8c-0.6-11.7,2.6-16.3,5.6-20.3c3-4,8.5-19.4,8.5-19.5 c1.6-3,2.2-3.2,3.1-3.3c1.2-0.1,1.6,1.6,0,5.1c-1.6,3.4-3.3,4.6-5.3,7.7c-2,3.1-2.2,5.8,1.1,7.2c-3.3,6.2-2.9,8.9-0.6,10.2 c2.3,1.4,5.6-0.9,5.6-0.9s5.1,9,10.7,5.8C207,748.3,204.5,742,204.5,742z M160.7,743.1c-1.7,1.7-3.4,3.2-4.8,4.5 c-2.9,2.6-4.8,4.3-4.8,4.3s1.7-2,4.3-4.8c1.3-1.4,2.8-3.1,4.5-4.8c1.7-1.8,3.5-3.6,5.3-5.4c1.8-1.8,3.7-3.6,5.4-5.3 c1.7-1.7,3.4-3.2,4.8-4.5c2.9-2.6,4.8-4.3,4.8-4.3s-1.7,2-4.3,4.8c-1.3,1.4-2.8,3.1-4.5,4.8c-1.7,1.8-3.5,3.6-5.3,5.4 C164.3,739.7,162.4,741.5,160.7,743.1z" style="fill: rgb(255, 255, 255);"/>
  <path id="XMLID_217_" class="st3" d="M267.9,669.3c-9.3,0-18.4-1.7-27-5l-1.6-0.6l-0.6-1.6c-10.7-27.6-4-59,16.9-80 c14.2-14.1,33-21.9,53-21.9c9.3,0,18.4,1.7,27,5l1.6,0.6l0.6,1.6c3.3,8.7,5,17.7,5,27c0,20-7.8,38.8-21.9,53 C306.8,661.5,288,669.3,267.9,669.3z" style="fill: rgb(113, 174, 202);"/>
  <path id="XMLID_5_" class="st0" d="M292.5,669.4c11.7-3.8,22.3-10.3,31.2-19.2c14.9-14.9,23.1-34.7,23.1-55.7 c0-9.8-1.8-19.3-5.3-28.4l-1.3-3.3l-3.3-1.3c-9.1-3.5-18.7-5.3-28.5-5.3c-21,0-40.8,8.2-55.7,23.1c-9,9-15.5,19.8-19.2,31.4 c-3.8-11.6-10.3-22.4-19.2-31.4c-14.9-14.9-34.7-23.1-55.7-23.1c-9.8,0-19.4,1.8-28.5,5.3l-3.3,1.3l-1.3,3.3 c-3.5,9.1-5.3,18.7-5.3,28.5c0,21.1,8.2,40.9,23.1,55.7c8.9,8.9,19.6,15.4,31.2,19.2c-11.7,3.8-22.3,10.3-31.2,19.2 c-14.9,14.9-23.1,34.7-23.1,55.7c0,9.8,1.8,19.4,5.3,28.5l1.3,3.3l3.3,1.3c9.1,3.5,18.7,5.3,28.5,5.3c21,0,40.8-8.2,55.7-23.1 c9-9,15.5-19.8,19.2-31.4c3.8,11.6,10.2,22.4,19.2,31.4c14.9,14.9,34.7,23.1,55.8,23.1c9.8,0,19.4-1.8,28.5-5.3l3.3-1.3l1.3-3.3 c11.3-29.1,4.3-62.2-17.8-84.2C314.8,679.7,304.1,673.2,292.5,669.4z M258.4,584.8c13.9-13.8,32-20.8,50.2-20.8 c8.7,0,17.4,1.6,25.6,4.8c3.2,8.2,4.8,16.9,4.8,25.6c0,18.2-6.9,36.3-20.8,50.2c-13.9,13.9-32,20.8-50.2,20.8 c-8.7,0-17.4-1.6-25.6-4.8C232.5,635.2,237.9,605.3,258.4,584.8z M268,673.3v0.2V673.3L268,673.3z M128.2,594.4 c0-8.7,1.6-17.4,4.8-25.6c8.2-3.2,16.9-4.8,25.6-4.8c18.1,0,36.3,6.9,50.2,20.8c20.5,20.5,25.8,50.4,16,75.8 c-8.2,3.2-16.9,4.8-25.6,4.8c-18.2,0-36.3-6.9-50.2-20.8C135.1,630.7,128.2,612.6,128.2,594.4z M199.2,673.3v0.2V673.3 L199.2,673.3z M208.7,754c-13.9,13.8-32,20.8-50.2,20.8c-8.7,0-17.4-1.6-25.6-4.8c-3.2-8.2-4.8-16.9-4.8-25.6 c0-18.1,6.9-36.3,20.8-50.2c13.9-13.9,32-20.8,50.2-20.8c8.7,0,17.4,1.6,25.6,4.8C234.6,703.6,229.2,733.5,208.7,754z M334.1,770 c-8.2,3.2-16.9,4.8-25.6,4.8c-18.2,0-36.3-6.9-50.2-20.8c-20.5-20.5-25.8-50.4-16-75.8c8.2-3.2,16.9-4.8,25.6-4.8 c18.2,0,36.3,6.9,50.2,20.8C338.6,714.7,343.9,744.6,334.1,770z" style="fill: rgb(255, 255, 255);"/>
  <path id="XMLID_183_" class="st0" d="M315.7,637.3c3.3-5.6-5.8-10.7-5.8-10.7s2.3-3.3,0.9-5.6c-1.4-2.3-4-2.7-10.2,0.6 c-1.4-3.3-4.2-3.1-7.2-1.1c-3.1,2-4.3,3.7-7.7,5.3c-3.4,1.6-5.2,1.2-5.1,0c0.1-1,0.2-1.5,3.3-3.1c0.1-0.1,15.6-5.5,19.5-8.5 c4-3,8.6-6.2,20.3-5.6c-3.7-4.9-8.4-7.4-12.8-7.3c4.3-2.9,9.1-4.8,14.5-4.6c-2.3-3.7-5.4-4.7-5.4-4.7c3.7-5.2,0.2-9.4,0.2-9.4 s-4.2-3.5-9.4,0.2c0,0-1-3.2-4.7-5.4c0.3,5.6-1.6,10.4-4.6,14.8c0.2-4.5-2.3-9.2-7.3-13.1c0.6,11.7-2.6,16.3-5.6,20.3 c-3,4-8.5,19.4-8.5,19.5c-1.6,3-2.2,3.2-3.1,3.3c-1.2,0.1-1.6-1.6,0-5.1c1.6-3.4,3.3-4.6,5.3-7.7c2-3.1,2.2-5.8-1.1-7.2 c3.3-6.2,2.9-8.9,0.6-10.2c-2.3-1.4-5.6,0.9-5.6,0.9s-5.1-9-10.7-5.8c-5.6,3.3-3.1,9.6-3.1,9.6s5.1-8.4,10.3-0.7 c5.2,7.7,0.7,21-1.6,27.8c-2.3,6.9-5.3,8.6-6,7.4c-0.7-1.2,3.1-8.3,3.6-17c0.5-8.7-4.3-10.7-8-10.7c-3.6,0-5.2,4.1-5.2,4.1 s4.9,0,5.9,5.7c-2.9-0.7-6.1,2-6.1,2s3.8,0.3,5.1,6.4c1.3,6.1,0.1,18-1.6,19.5c-1.6-1.1-3-0.1-3.5,0.5c-0.5,0.5-1.9,2.6,0.5,5.1 c2.4,2.4,4.5,1.1,5.1,0.5c0.5-0.5,1.5-1.9,0.5-3.5c1.5-1.7,13.4-2.9,19.5-1.6c6.1,1.3,6.4,5.1,6.4,5.1s2.7-3.3,2-6.1 c5.7,1,5.7,5.9,5.7,5.9s4.1-1.5,4.1-5.2c0-3.6-2-8.5-10.7-8c-8.7,0.5-15.7,4.3-17,3.6c-1.2-0.7,0.5-3.6,7.4-6 c6.9-2.3,20.1-6.8,27.8-1.6c7.7,5.2-0.7,10.3-0.7,10.3S312.5,642.9,315.7,637.3z M302,601.9c-1.8,1.8-3.7,3.6-5.4,5.3 c-1.7,1.7-3.4,3.2-4.8,4.5c-2.9,2.6-4.8,4.3-4.8,4.3s1.7-2,4.3-4.8c1.3-1.4,2.8-3.1,4.5-4.8c1.7-1.8,3.5-3.6,5.3-5.4 c1.8-1.8,3.7-3.6,5.4-5.3c1.7-1.7,3.4-3.2,4.8-4.5c2.9-2.6,4.8-4.3,4.8-4.3s-1.7,2-4.3,4.8c-1.3,1.4-2.8,3.1-4.5,4.8 C305.6,598.3,303.8,600.1,302,601.9z" style="fill: rgb(255, 255, 255);"/>
  <path d="M 238.000006 669.400024 A 4.4 4.4 0 0 1 233.600006 673.800025 A 4.4 4.4 0 0 1 229.200006 669.400024 A 4.4 4.4 0 0 1 233.600006 665.000024 A 4.4 4.4 0 0 1 238.000006 669.400024 Z" id="XMLID_47_" class="st4" style="fill: rgb(4, 99, 160);"/>
  <path id="XMLID_174_" class="st0" d="M346.8,637c-1.7,0-3.4,1.1-3.5,3.3c0,0.1,0,0.3,0,0.4c0,4.7,3.5,23.6,3.5,23.6V637z" style="fill: rgb(255, 255, 255);"/>
  <path id="XMLID_318_" class="st0" d="M343.2,698.2c0,0.1,0,0.3,0,0.4c0.1,2.2,1.8,3.3,3.5,3.3v-27.3 C346.8,674.6,343.2,693.5,343.2,698.2z" style="fill: rgb(255, 255, 255);"/>
  <path id="XMLID_319_" class="st0" d="M317.6,673c0.1,0,0.3,0,0.4,0c4.7,0,23.6-3.5,23.6-3.5s-19-3.5-23.6-3.5c-0.1,0-0.3,0-0.4,0 C313.2,666.1,313.2,672.8,317.6,673z" style="fill: rgb(255, 255, 255);"/>
  <path id="XMLID_320_" class="st0" d="M329,683.4c-0.1,0.1-0.2,0.2-0.2,0.2c-2.3,2.5,1.4,6.2,3.9,3.9c0.1-0.1,0.2-0.2,0.2-0.2 c2.6-2.6,11.1-15,11.1-15S331.5,680.8,329,683.4z" style="fill: rgb(255, 255, 255);"/>
  <path id="XMLID_321_" class="st0" d="M332.9,651.7c-0.1-0.1-0.2-0.2-0.2-0.2c-2.5-2.3-6.2,1.4-3.9,3.9c0.1,0.1,0.2,0.2,0.2,0.2 c2.6,2.6,15,11.1,15,11.1S335.5,654.2,332.9,651.7z" style="fill: rgb(255, 255, 255);"/>
  <path id="XMLID_323_" class="st0" d="M237.2,584.9c0-4.7-3.5-23.6-3.5-23.6s-3.5,19-3.5,23.6c0,0.1,0,0.3,0,0.4 c0.2,4.4,6.9,4.4,7.1,0C237.2,585.2,237.2,585,237.2,584.9z" style="fill: rgb(255, 255, 255);"/>
  <path id="XMLID_324_" class="st0" d="M262.8,559.7c2.2-0.1,3.3-1.8,3.3-3.5h-27.3c0,0,19,3.5,23.6,3.5 C262.5,559.7,262.6,559.7,262.8,559.7z" style="fill: rgb(255, 255, 255);"/>
  <path id="XMLID_325_" class="st0" d="M204.5,559.7c0.1,0,0.3,0,0.4,0c4.7,0,23.6-3.5,23.6-3.5h-27.3 C201.2,557.9,202.3,559.6,204.5,559.7z" style="fill: rgb(255, 255, 255);"/>
  <path id="XMLID_326_" class="st0" d="M215.6,570.3c-2.3,2.5,1.4,6.2,3.9,3.9c0.1-0.1,0.2-0.2,0.2-0.2c2.6-2.6,11.1-15,11.1-15 s-12.4,8.5-15,11.1C215.7,570.1,215.6,570.2,215.6,570.3z" style="fill: rgb(255, 255, 255);"/>
  <path id="XMLID_327_" class="st0" d="M251.7,570.3c-0.1-0.1-0.2-0.2-0.2-0.2c-2.6-2.6-15-11.1-15-11.1s8.5,12.4,11.1,15 c0.1,0.1,0.2,0.2,0.2,0.2C250.3,576.5,254,572.8,251.7,570.3z" style="fill: rgb(255, 255, 255);"/>
  <path id="XMLID_328_" class="st0" d="M123.9,640.6c0-0.1,0-0.3,0-0.4c-0.1-2.2-1.8-3.3-3.5-3.3v27.3 C120.3,664.2,123.9,645.2,123.9,640.6z" style="fill: rgb(255, 255, 255);"/>
  <path id="XMLID_329_" class="st0" d="M123.8,698.5c0-0.1,0-0.3,0-0.4c0-4.7-3.5-23.6-3.5-23.6v27.3 C122,701.8,123.7,700.7,123.8,698.5z" style="fill: rgb(255, 255, 255);"/>
  <path id="XMLID_330_" class="st0" d="M149.5,665.8c-0.1,0-0.3,0-0.4,0c-4.7,0-23.6,3.5-23.6,3.5s19,3.5,23.6,3.5 c0.1,0,0.3,0,0.4,0C153.9,672.6,153.9,666,149.5,665.8z" style="fill: rgb(255, 255, 255);"/>
  <path id="XMLID_331_" class="st0" d="M138.4,655.2c2.3-2.5-1.4-6.2-3.9-3.9c-0.1,0.1-0.2,0.2-0.2,0.2c-2.6,2.6-11.1,15-11.1,15 s12.4-8.5,15-11.1C138.2,655.3,138.3,655.2,138.4,655.2z" style="fill: rgb(255, 255, 255);"/>
  <path id="XMLID_332_" class="st0" d="M134.5,687.4c2.5,2.3,6.2-1.4,3.9-3.9c-0.1-0.1-0.2-0.2-0.2-0.2c-2.6-2.6-15-11.1-15-11.1 s8.5,12.4,11.1,15C134.3,687.2,134.4,687.3,134.5,687.4z" style="fill: rgb(255, 255, 255);"/>
  <path id="XMLID_333_" class="st0" d="M229.9,753.5c0,0.1,0,0.3,0,0.4c0,4.7,3.5,23.6,3.5,23.6s3.5-19,3.5-23.6c0-0.1,0-0.3,0-0.4 C236.8,749.1,230.1,749.1,229.9,753.5z" style="fill: rgb(255, 255, 255);"/>
  <path id="XMLID_334_" class="st0" d="M262.6,779.1c-0.1,0-0.3,0-0.4,0c-4.7,0-23.6,3.5-23.6,3.5h27.3 C265.9,780.9,264.8,779.2,262.6,779.1z" style="fill: rgb(255, 255, 255);"/>
  <path id="XMLID_335_" class="st0" d="M204.8,779.1c-0.1,0-0.3,0-0.4,0c-2.2,0.1-3.3,1.8-3.3,3.5h27.3 C228.4,782.6,209.4,779.1,204.8,779.1z" style="fill: rgb(255, 255, 255);"/>
  <path id="XMLID_337_" class="st0" d="M251.5,768.5c2.3-2.5-1.4-6.2-3.9-3.9c-0.1,0.1-0.2,0.2-0.2,0.2c-2.6,2.6-11.1,15-11.1,15 s12.4-8.5,15-11.1C251.4,768.7,251.4,768.6,251.5,768.5z" style="fill: rgb(255, 255, 255);"/>
  <path id="XMLID_375_" class="st0" d="M215.4,768.5c0.1,0.1,0.2,0.2,0.2,0.2c2.6,2.6,15,11.1,15,11.1s-8.5-12.4-11.1-15 c-0.1-0.1-0.2-0.2-0.2-0.2C216.8,762.3,213.1,765.9,215.4,768.5z" style="fill: rgb(255, 255, 255);"/>
</svg>