<?xml version="1.0" encoding="utf-8"?>
<svg viewBox="430.3 197.6 226.5 226.7" xmlns="http://www.w3.org/2000/svg">
  <path d="M 430.299988 197.800003 H 656.799988 V 424.300003 H 430.299988 V 197.800003 Z" id="XMLID_316_" class="st1" style="fill: rgb(13, 76, 133);"/>
  <g id="XMLID_298_">
    <path id="XMLID_192_" class="st0" d="M608.3,407.7c11.9-9.9,9.1-24.5,1.4-29.8c-7.6-5.3-15.6-3.2-20.8,2.3 c-5.1,5.5,1.6,11.3,6.6,8.6c4.9-2.7,4.9-8.6,4.9-8.6s3.9,4.1,2.5,8c-1.4,3.9-4.7,4.9-9.7,5.1c0.2,8.8-7.2,13-10.9,13.4 c-3.7,0.4-7,0.4-7,0.4s12.6-5.6,10.5-15c-8,0-8.8,3.7-13.2,4.9c-4.3,1.2-10.3-3.9-10.3-3.9s5,1.4,8.6-1.2 c3.5-2.7,6.2-5.3,6.2-5.3s-4.3-1.4-9.3-1.4c-4.9,0-9.1,1.2-11.9-3.3c-2.9-4.5-3.5-6.4-3.5-6.4s1.6,1.9,7,2.1 c5.3,0.2,5.3,0.2,5.3,0.2s-16-9.5-21.4-30.7c0,0,0.8,26.3,12.8,47.3S596.4,417.6,608.3,407.7z" style="fill: rgb(255, 255, 255);"/>
    <path id="XMLID_188_" class="st0" d="M478.7,407.7c11.9,9.9,40.1,7.6,52.1-13.4s12.8-47.3,12.8-47.3 c-5.3,21.2-21.4,30.7-21.4,30.7s0,0,5.3-0.2s7-2.1,7-2.1s-0.6,1.9-3.5,6.4c-2.9,4.5-7,3.3-11.9,3.3s-9.3,1.4-9.3,1.4 s2.7,2.7,6.2,5.3c3.5,2.7,8.6,1.2,8.6,1.2s-6,5.1-10.3,3.9c-4.3-1.2-5.1-4.9-13.2-4.9c-2.1,9.5,10.5,15,10.5,15s-3.3,0-7-0.4 c-3.7-0.4-11.1-4.5-10.9-13.4c-4.9-0.2-8.2-1.2-9.7-5.1c-1.4-3.9,2.5-8,2.5-8s0,5.9,4.9,8.6c4.9,2.7,11.7-3.1,6.6-8.6 c-5.1-5.5-13.2-7.7-20.8-2.3C469.6,383.2,466.8,397.8,478.7,407.7z" style="fill: rgb(255, 255, 255);"/>
    <path id="XMLID_86_" class="st3" d="M504.6,375.8c9.9,0.4,15-4.1,26.1-17.9c11.1-13.8,12.8-29.8,12.8-29.8s1.6,16,12.8,29.8 c11.1,13.8,16.3,18.3,26.1,17.9c9.9-0.4,7.6-13.4,7.6-13.4s-3.1,7.8-10.1,4.3c-7-3.5-3.6-7.6-8.9-10.5c-5.3-2.9-10-4.3-10-4.3 s4.2-1.7,10-1.2c5.8,0.4,7.3,1.2,7.3,1.2s-3.3-4.5-8.6-6.4c-5.3-1.9-6,0.2-8.4-3.9c-2.5-4.1-7.4-1.2-10.3-4.7 c-2.9-3.5-3.9-6.2-0.4-6.8c3.5-0.6,6.2,1.2,6.2,1.2s-0.8-3.1-4.1-6.6c-3.3-3.5-9.1-7-9.1-7s-5.8,3.5-9.1,7 c-3.3,3.5-4.1,6.6-4.1,6.6s2.7-1.9,6.2-1.2c3.5,0.6,2.5,3.3-0.4,6.8c-2.9,3.5-7.8,0.6-10.3,4.7c-2.5,4.1-3.1,2.1-8.4,3.9 s-8.6,6.4-8.6,6.4s1.4-0.8,7.3-1.2c5.8-0.4,10,1.2,10,1.2s-4.7,1.4-10,4.3c-5.3,2.9-1.9,7-8.9,10.5c-7,3.5-10.1-4.3-10.1-4.3 S494.8,375.4,504.6,375.8z" style="fill: rgb(113, 174, 202);"/>
  </g>
  <path id="XMLID_302_" class="st0" d="M608.3,214.3c11.9,9.9,9.1,24.5,1.4,29.8c-7.6,5.3-15.6,3.2-20.8-2.3 c-5.1-5.5,1.6-11.3,6.6-8.6c4.9,2.7,4.9,8.6,4.9,8.6s3.9-4.1,2.5-8c-1.4-3.9-4.7-4.9-9.7-5.1c0.2-8.8-7.2-13-10.9-13.4 c-3.7-0.4-7-0.4-7-0.4s12.6,5.6,10.5,15c-8,0-8.8-3.7-13.2-4.9c-4.3-1.2-10.3,3.9-10.3,3.9s5-1.4,8.6,1.2 c3.5,2.7,6.2,5.3,6.2,5.3s-4.3,1.4-9.3,1.4c-4.9,0-9.1-1.2-11.9,3.3c-2.9,4.5-3.5,6.4-3.5,6.4s1.6-1.9,7-2.1 c5.3-0.2,5.3-0.2,5.3-0.2s-16,9.5-21.4,30.7c0,0,0.8-26.3,12.8-47.3S596.4,204.4,608.3,214.3z" style="fill: rgb(255, 255, 255);"/>
  <path id="XMLID_289_" class="st0" d="M478.7,214.3c11.9-9.9,40.1-7.6,52.1,13.4s12.8,47.3,12.8,47.3 c-5.3-21.2-21.4-30.7-21.4-30.7s0,0,5.3,0.2s7,2.1,7,2.1s-0.6-1.9-3.5-6.4c-2.9-4.5-7-3.3-11.9-3.3s-9.3-1.4-9.3-1.4 s2.7-2.7,6.2-5.3c3.5-2.7,8.6-1.2,8.6-1.2s-6-5.1-10.3-3.9c-4.3,1.2-5.1,4.9-13.2,4.9c-2.1-9.5,10.5-15,10.5-15s-3.3,0-7,0.4 c-3.7,0.4-11.1,4.5-10.9,13.4c-4.9,0.2-8.2,1.2-9.7,5.1c-1.4,3.9,2.5,8,2.5,8s0-5.9,4.9-8.6c4.9-2.7,11.7,3.1,6.6,8.6 c-5.1,5.5-13.2,7.7-20.8,2.3C469.6,238.8,466.8,224.2,478.7,214.3z" style="fill: rgb(255, 255, 255);"/>
  <path id="XMLID_190_" class="st3" d="M504.6,246.2c9.9-0.4,15,4.1,26.1,17.9c11.1,13.8,12.8,29.8,12.8,29.8s1.6-16,12.8-29.8 c11.1-13.8,16.3-18.3,26.1-17.9c9.9,0.4,7.6,13.4,7.6,13.4s-3.1-7.8-10.1-4.3c-7,3.5-3.6,7.6-8.9,10.5c-5.3,2.9-10,4.3-10,4.3 s4.2,1.7,10,1.2c5.8-0.4,7.3-1.2,7.3-1.2s-3.3,4.5-8.6,6.4c-5.3,1.9-6-0.2-8.4,3.9c-2.5,4.1-7.4,1.2-10.3,4.7 c-2.9,3.5-3.9,6.2-0.4,6.8c3.5,0.6,6.2-1.2,6.2-1.2s-0.8,3.1-4.1,6.6c-3.3,3.5-9.1,7-9.1,7s-5.8-3.5-9.1-7 c-3.3-3.5-4.1-6.6-4.1-6.6s2.7,1.9,6.2,1.2c3.5-0.6,2.5-3.3-0.4-6.8c-2.9-3.5-7.8-0.6-10.3-4.7c-2.5-4.1-3.1-2.1-8.4-3.9 s-8.6-6.4-8.6-6.4s1.4,0.8,7.3,1.2c5.8,0.4,10-1.2,10-1.2s-4.7-1.4-10-4.3c-5.3-2.9-1.9-7-8.9-10.5c-7-3.5-10.1,4.3-10.1,4.3 S494.8,246.6,504.6,246.2z" style="fill: rgb(113, 174, 202);"/>
  <g id="XMLID_310_">
    <path id="XMLID_322_" class="st0" d="M446.8,375.8c9.9,11.9,24.5,9.1,29.8,1.4c5.3-7.6,3.2-15.6-2.3-20.8 c-5.5-5.1-11.3,1.6-8.6,6.6c2.7,4.9,8.6,4.9,8.6,4.9s-4.1,3.9-8,2.5c-3.9-1.4-4.9-4.7-5.1-9.7c-8.8,0.2-13-7.2-13.4-10.9 c-0.4-3.7-0.4-7-0.4-7s5.6,12.6,15,10.5c0-8-3.7-8.8-4.9-13.2c-1.2-4.3,3.9-10.3,3.9-10.3s-1.4,5,1.2,8.6 c2.7,3.5,5.3,6.2,5.3,6.2s1.4-4.3,1.4-9.3c0-4.9-1.2-9.1,3.3-11.9s6.4-3.5,6.4-3.5s-1.9,1.6-2.1,7c-0.2,5.3-0.2,5.3-0.2,5.3 s9.5-16,30.7-21.4c0,0-26.3,0.8-47.3,12.8C439.2,335.7,436.9,363.9,446.8,375.8z" style="fill: rgb(255, 255, 255);"/>
    <path id="XMLID_314_" class="st0" d="M446.8,246.2c-9.9,11.9-7.6,40.1,13.4,52.1c21,11.9,47.3,12.8,47.3,12.8 c-21.2-5.3-30.7-21.4-30.7-21.4s0,0,0.2,5.3c0.2,5.3,2.1,7,2.1,7s-1.9-0.6-6.4-3.5s-3.3-7-3.3-11.9c0-4.9-1.4-9.3-1.4-9.3 s-2.7,2.7-5.3,6.2c-2.7,3.5-1.2,8.6-1.2,8.6s-5.1-6-3.9-10.3c1.2-4.3,4.9-5.1,4.9-13.2c-9.5-2.1-15,10.5-15,10.5s0-3.3,0.4-7 c0.4-3.7,4.5-11.1,13.4-10.9c0.2-4.9,1.2-8.2,5.1-9.7c3.9-1.4,8,2.5,8,2.5s-5.9,0-8.6,4.9c-2.7,4.9,3.1,11.7,8.6,6.6 c5.5-5.1,7.7-13.2,2.3-20.8C471.3,237.2,456.7,234.3,446.8,246.2z" style="fill: rgb(255, 255, 255);"/>
    <path id="XMLID_311_" class="st3" d="M478.7,272.1c-0.4,9.9,4.1,15,17.9,26.1c13.8,11.1,29.8,12.8,29.8,12.8s-16,1.6-29.8,12.8 c-13.8,11.1-18.3,16.3-17.9,26.1c0.4,9.9,13.4,7.6,13.4,7.6s-7.8-3.1-4.3-10.1c3.5-7,7.6-3.6,10.5-8.9c2.9-5.3,4.3-10,4.3-10 s1.7,4.2,1.2,10c-0.4,5.8-1.2,7.3-1.2,7.3s4.5-3.3,6.4-8.6c1.9-5.3-0.2-6,3.9-8.4s1.2-7.4,4.7-10.3c3.5-2.9,6.2-3.9,6.8-0.4 c0.6,3.5-1.2,6.2-1.2,6.2s3.1-0.8,6.6-4.1c3.5-3.3,7-9.1,7-9.1s-3.5-5.8-7-9.1c-3.5-3.3-6.6-4.1-6.6-4.1s1.9,2.7,1.2,6.2 c-0.6,3.5-3.3,2.5-6.8-0.4c-3.5-2.9-0.6-7.8-4.7-10.3c-4.1-2.5-2.1-3.1-3.9-8.4c-1.9-5.3-6.4-8.6-6.4-8.6s0.8,1.4,1.2,7.3 c0.4,5.8-1.2,10-1.2,10s-1.4-4.7-4.3-10c-2.9-5.3-7-1.9-10.5-8.9c-3.5-7,4.3-10.1,4.3-10.1S479.1,262.3,478.7,272.1z" style="fill: rgb(113, 174, 202);"/>
  </g>
  <path id="XMLID_307_" class="st0" d="M640.2,375.8c-9.9,11.9-24.5,9.1-29.8,1.4c-5.3-7.6-3.2-15.6,2.3-20.8 c5.5-5.1,11.3,1.6,8.6,6.6c-2.7,4.9-8.6,4.9-8.6,4.9s4.1,3.9,8,2.5c3.9-1.4,4.9-4.7,5.1-9.7c8.8,0.2,13-7.2,13.4-10.9 s0.4-7,0.4-7s-5.6,12.6-15,10.5c0-8,3.7-8.8,4.9-13.2c1.2-4.3-3.9-10.3-3.9-10.3s1.4,5-1.2,8.6c-2.7,3.5-5.3,6.2-5.3,6.2 s-1.4-4.3-1.4-9.3c0-4.9,1.2-9.1-3.3-11.9c-4.5-2.9-6.4-3.5-6.4-3.5s1.9,1.6,2.1,7c0.2,5.3,0.2,5.3,0.2,5.3s-9.5-16-30.7-21.4 c0,0,26.3,0.8,47.3,12.8C647.8,335.7,650.1,363.9,640.2,375.8z" style="fill: rgb(255, 255, 255);"/>
  <path id="XMLID_304_" class="st0" d="M640.2,246.2c9.9,11.9,7.6,40.1-13.4,52.1c-21,11.9-47.3,12.8-47.3,12.8 c21.2-5.3,30.7-21.4,30.7-21.4s0,0-0.2,5.3c-0.2,5.3-2.1,7-2.1,7s1.9-0.6,6.4-3.5c4.5-2.9,3.3-7,3.3-11.9 c0-4.9,1.4-9.3,1.4-9.3s2.7,2.7,5.3,6.2c2.7,3.5,1.2,8.6,1.2,8.6s5.1-6,3.9-10.3s-4.9-5.1-4.9-13.2c9.5-2.1,15,10.5,15,10.5 s0-3.3-0.4-7c-0.4-3.7-4.5-11.1-13.4-10.9c-0.2-4.9-1.2-8.2-5.1-9.7c-3.9-1.4-8,2.5-8,2.5s5.9,0,8.6,4.9 c2.7,4.9-3.1,11.7-8.6,6.6c-5.5-5.1-7.7-13.2-2.3-20.8C615.7,237.2,630.3,234.3,640.2,246.2z" style="fill: rgb(255, 255, 255);"/>
  <path id="XMLID_300_" class="st3" d="M608.3,272.1c0.4,9.9-4.1,15-17.9,26.1c-13.8,11.1-29.8,12.8-29.8,12.8s16,1.6,29.8,12.8 c13.8,11.1,18.3,16.3,17.9,26.1c-0.4,9.9-13.4,7.6-13.4,7.6s7.8-3.1,4.3-10.1c-3.5-7-7.6-3.6-10.5-8.9c-2.9-5.3-4.3-10-4.3-10 s-1.7,4.2-1.2,10c0.4,5.8,1.2,7.3,1.2,7.3s-4.5-3.3-6.4-8.6c-1.9-5.3,0.2-6-3.9-8.4c-4.1-2.5-1.2-7.4-4.7-10.3 c-3.5-2.9-6.2-3.9-6.8-0.4c-0.6,3.5,1.2,6.2,1.2,6.2s-3.1-0.8-6.6-4.1c-3.5-3.3-7-9.1-7-9.1s3.5-5.8,7-9.1 c3.5-3.3,6.6-4.1,6.6-4.1s-1.9,2.7-1.2,6.2c0.6,3.5,3.3,2.5,6.8-0.4c3.5-2.9,0.6-7.8,4.7-10.3c4.1-2.5,2.1-3.1,3.9-8.4 c1.9-5.3,6.4-8.6,6.4-8.6s-0.8,1.4-1.2,7.3c-0.4,5.8,1.2,10,1.2,10s1.4-4.7,4.3-10c2.9-5.3,7-1.9,10.5-8.9 c3.5-7-4.3-10.1-4.3-10.1S607.9,262.3,608.3,272.1z" style="fill: rgb(113, 174, 202);"/>
  <path id="XMLID_313_" class="st0" d="M656.8,293v35.7c-9.9,0-17.8-8-17.8-17.8C638.9,301,646.9,293,656.8,293z" style="fill: rgb(255, 255, 255);"/>
  <path id="XMLID_301_" class="st0" d="M430.3,293v35.7c9.9,0,17.8-8,17.8-17.8C448.1,301,440.1,293,430.3,293z" style="fill: rgb(255, 255, 255);"/>
  <path id="XMLID_303_" class="st0" d="M561.4,424.1h-35.7c0-9.9,8-17.8,17.9-17.8C553.4,406.3,561.4,414.3,561.4,424.1z" style="fill: rgb(255, 255, 255);"/>
  <path id="XMLID_299_" class="st0" d="M561.4,197.6h-35.7c0,9.8,8,17.8,17.9,17.8C553.4,215.5,561.4,207.5,561.4,197.6z" style="fill: rgb(255, 255, 255);"/>
</svg>