<?xml version="1.0" encoding="utf-8"?>
<svg viewBox="1053.1 556.1 226.7 226.7" width="226.7" height="226.7" xmlns="http://www.w3.org/2000/svg">
  <g id="XMLID_338_">
    <path d="M 1130.5999755859375 705.2999877929688 L 1085.300048828125 705.2999877929688 L 1053.199951171875 673.2000122070312 L 1053.199951171875 693.2999877929688 L 1079.4000244140625 719.5 L 1116.4000244140625 719.5 L 1116.4000244140625 756.5 L 1142.5 782.5999755859375 L 1162.5999755859375 782.5999755859375 L 1130.5999755859375 750.5999755859375 Z" id="XMLID_339_" class="st3" style="fill: rgb(113, 174, 202);"/>
    <path id="XMLID_340_" class="st0" d="M1108.2,782.2c-2.1-0.1-4.5-0.2-7-0.2c-2.6-0.1-5.3-0.1-8.1-0.1c-2.7,0-5.5,0-8,0.1 c-2.6,0-5,0.2-7,0.2c-4.1,0.2-6.9,0.4-6.9,0.4s0,0,0,0h43.8c0,0,0,0,0,0S1112.3,782.4,1108.2,782.2z" style="fill: rgb(255, 255, 255);"/>
    <path id="XMLID_343_" class="st0" d="M1116.4,719.5h-37l-26.2-26.2v21.1l0,0c0,0,5.8,0.5,6.9,7.2c0,0,3.1-1.6,7.6-0.5 c-4.5,4-6.6,9.1-7.7,14.6c3.2-3.5,8.7-5.2,15.3-4.3c-9.3,8.3-10.4,14.2-11.1,19.5c-0.5,3.7-4.4,12.6-6.6,17.6l-0.1,0.2l-4.4,7.5 v0v6.5h6.5l0,0l7.4-4.3l0.1-0.1c4.9-2.2,14-6.2,17.8-6.7c5.3-0.7,11.2-1.8,19.5-11.1c0.9,6.5-0.7,11.9-4.1,15.1 c5.4-1.1,10.4-3.2,14.4-7.5c1.1,4.5-0.5,7.6-0.5,7.6c6.7,1.1,7.2,6.9,7.2,6.9l0,0h21.1l-26.2-26.2V719.5z M1093.1,752 c-3.7,0-6.7-3-6.7-6.7s3-6.7,6.7-6.7s6.7,3,6.7,6.7S1096.8,752,1093.1,752z" style="fill: rgb(255, 255, 255);"/>
    <path id="XMLID_344_" class="st0" d="M1053.6,757.8c0.1-2.1,0.2-4.5,0.2-7c0.1-2.6,0.1-5.3,0.1-8c0-2.7,0-5.5-0.1-8.1 c0-2.6-0.2-5-0.2-7c-0.2-4.1-0.4-6.9-0.4-6.9v0v43.9v0C1053.2,764.7,1053.4,762,1053.6,757.8z" style="fill: rgb(255, 255, 255);"/>
    <path id="XMLID_345_" class="st1" d="M1057.6,768.6l0.1-0.2c2.3-5,6.1-13.9,6.6-17.6c0.7-5.3,1.8-11.2,11.1-19.5 c-6.7-0.9-12.1,0.8-15.3,4.3c1.1-5.6,3.2-10.7,7.7-14.6c-4.5-1.1-7.6,0.5-7.6,0.5c-1.1-6.7-6.9-7.2-6.9-7.2l0,0v6.4v0 c0,0,0.2,2.7,0.4,6.9c0.1,2.1,0.2,4.5,0.2,7c0.1,2.6,0.1,5.3,0.1,8.1c0,2.7,0,5.5-0.1,8c0,2.6-0.2,5-0.2,7 c-0.2,4.1-0.4,6.9-0.4,6.9v0v11.5v0L1057.6,768.6z" style="fill: rgb(13, 76, 133);"/>
    <path id="XMLID_346_" class="st1" d="M1114.2,775.7c0,0,1.6-3.1,0.5-7.6c-3.9,4.3-8.9,6.4-14.4,7.5c3.4-3.3,5-8.6,4.1-15.1 c-8.3,9.3-14.2,10.3-19.5,11.1c-3.7,0.5-12.8,4.5-17.8,6.7l-0.1,0.1l-7.4,4.3l0,0h11.5c0,0,0,0,0,0s2.7-0.2,6.9-0.4 c2.1-0.1,4.5-0.2,7-0.2c2.6-0.1,5.3-0.1,8-0.1c2.7,0,5.5,0,8.1,0.1c2.6,0.1,5,0.2,7,0.2c4.1,0.2,6.9,0.4,6.9,0.4s0,0,0,0h6.5l0,0 C1121.4,782.6,1120.9,776.8,1114.2,775.7z" style="fill: rgb(13, 76, 133);"/>
    <path d="M 1099.799975 745.299988 A 6.7 6.7 0 0 1 1093.099976 751.999988 A 6.7 6.7 0 0 1 1086.399976 745.299988 A 6.7 6.7 0 0 1 1093.099976 738.599988 A 6.7 6.7 0 0 1 1099.799975 745.299988 Z" id="XMLID_347_" class="st1" style="fill: rgb(13, 76, 133);"/>
    <path d="M 1216.300048828125 756.5 L 1216.300048828125 719.5 L 1253.300048828125 719.5 L 1279.5 693.2999877929688 L 1279.699951171875 693.5 L 1279.699951171875 673.4000244140625 L 1279.5 673.2000122070312 L 1247.4000244140625 705.2999877929688 L 1202.0999755859375 705.2999877929688 L 1202.0999755859375 750.5999755859375 L 1170.0999755859375 782.5999755859375 L 1190.0999755859375 782.5999755859375 Z" id="XMLID_348_" class="st3" style="fill: rgb(113, 174, 202);"/>
    <path id="XMLID_349_" class="st0" d="M1254.7,782.2c-2.1-0.1-4.5-0.2-7-0.2c-2.6-0.1-5.3-0.1-8-0.1c-2.7,0-5.5,0-8.1,0.1 c-2.6,0.1-5,0.2-7,0.2c-4.1,0.2-6.9,0.4-6.9,0.4s0,0,0,0h43.8c0,0,0,0,0,0S1258.8,782.4,1254.7,782.2z" style="fill: rgb(255, 255, 255);"/>
    <path id="XMLID_352_" class="st0" d="M1253.3,719.5h-37v37l-26.2,26.2h21.1l0,0c0,0,0.5-5.8,7.2-6.9c0,0-1.6-3.1-0.5-7.6 c3.9,4.3,8.9,6.4,14.4,7.5c-3.4-3.3-5-8.6-4.1-15.1c8.3,9.3,14.2,10.3,19.5,11.1c3.7,0.5,12.8,4.5,17.8,6.7l0.1,0.1l7.4,4.3l0,0 h6.7v-6.9l-0.2,0.4l-4.3-7.4l-0.1-0.1c-2.2-4.9-6.2-14-6.7-17.8c-0.7-5.3-1.8-11.2-11.1-19.5c6.5-0.9,11.9,0.7,15.1,4.1 c-1.1-5.4-3.2-10.4-7.5-14.4c4.5-1.1,7.6,0.5,7.6,0.5c1.1-6.7,6.9-7.2,6.9-7.2s0.1,0,0.2,0v-20.9l-0.2-0.2L1253.3,719.5z M1243.1,752c-3.7,0-6.7-3-6.7-6.7s3-6.7,6.7-6.7c3.7,0,6.7,3,6.7,6.7S1246.8,752,1243.1,752z" style="fill: rgb(255, 255, 255);"/>
    <path id="XMLID_353_" class="st0" d="M1279.1,727.7c-0.1,2.1-0.2,4.5-0.2,7c-0.1,2.6-0.1,5.3-0.1,8.1c0,2.7,0,5.5,0.1,8 c0,2.6,0.2,5,0.2,7c0.2,4.1,0.4,6.9,0.4,6.9s0.1-1.1,0.2-2.9v-38.1c-0.1-1.8-0.2-2.9-0.2-2.9S1279.2,723.6,1279.1,727.7z" style="fill: rgb(255, 255, 255);"/>
    <path id="XMLID_354_" class="st1" d="M1272.5,721.6c0,0-3.1-1.6-7.6-0.5c4.3,3.9,6.4,8.9,7.5,14.4c-3.3-3.4-8.6-5-15.1-4.1 c9.3,8.3,10.3,14.2,11.1,19.5c0.5,3.7,4.5,12.8,6.7,17.8l0.1,0.1l4.3,7.4l0.2-0.4v-14c-0.1,1.8-0.2,2.9-0.2,2.9s-0.2-2.7-0.4-6.9 c-0.1-2.1-0.2-4.5-0.2-7c-0.1-2.6-0.1-5.3-0.1-8c0-2.7,0-5.5,0.1-8.1c0.1-2.6,0.2-5,0.2-7c0.2-4.1,0.4-6.9,0.4-6.9 s0.1,1.1,0.2,2.9v-9.3c-0.1,0-0.2,0-0.2,0S1273.6,714.9,1272.5,721.6z" style="fill: rgb(13, 76, 133);"/>
    <path id="XMLID_355_" class="st1" d="M1265.6,778.3L1265.6,778.3c-5-2.3-14.1-6.3-17.9-6.8c-5.3-0.7-11.2-1.8-19.5-11.1 c-0.9,6.5,0.7,11.9,4.1,15.1c-5.4-1.1-10.4-3.2-14.4-7.5c-1.1,4.5,0.5,7.6,0.5,7.6c-6.7,1.1-7.2,6.9-7.2,6.9l0,0h6.5c0,0,0,0,0,0 s2.7-0.2,6.9-0.4c2.1-0.1,4.5-0.2,7-0.2c2.6-0.1,5.3-0.1,8.1-0.1c2.7,0,5.5,0,8,0.1c2.6,0,5,0.2,7,0.2c4.1,0.2,6.9,0.4,6.9,0.4 s0,0,0,0h11.5l0,0L1265.6,778.3z" style="fill: rgb(13, 76, 133);"/>
    <path d="M 1249.799975 745.299988 A 6.7 6.7 0 0 1 1243.099976 751.999988 A 6.7 6.7 0 0 1 1236.399976 745.299988 A 6.7 6.7 0 0 1 1243.099976 738.599988 A 6.7 6.7 0 0 1 1249.799975 745.299988 Z" id="XMLID_356_" class="st1" style="fill: rgb(13, 76, 133);"/>
    <path d="M 1130.5999755859375 633.5 L 1130.5999755859375 588.2000122070312 L 1162.5999755859375 556.0999755859375 L 1142.5 556.0999755859375 L 1116.4000244140625 582.2999877929688 L 1116.4000244140625 619.2999877929688 L 1079.4000244140625 619.2999877929688 L 1053.199951171875 645.5 L 1053.199951171875 665.5999755859375 L 1085.300048828125 633.5 Z" id="XMLID_357_" class="st3" style="fill: rgb(113, 174, 202);"/>
    <path id="XMLID_358_" class="st0" d="M1085,556.8c2.6,0.1,5.3,0.1,8,0.1c2.7,0,5.5,0,8.1-0.1c2.6,0,5-0.2,7-0.2 c3.8-0.2,6.5-0.4,6.8-0.4h-43.8c0.3,0,3,0.3,6.8,0.4C1080.1,556.6,1082.4,556.8,1085,556.8z" style="fill: rgb(255, 255, 255);"/>
    <path id="XMLID_359_" class="st0" d="M1053.6,611.1c0.1-2.1,0.2-4.5,0.2-7c0.1-2.6,0.1-5.3,0.1-8.1c0-2.7,0-5.5-0.1-8 c0-2.6-0.2-5-0.2-7c-0.2-4.1-0.4-6.9-0.4-6.9v0V618v0C1053.2,618,1053.4,615.2,1053.6,611.1z" style="fill: rgb(255, 255, 255);"/>
    <path id="XMLID_362_" class="st0" d="M1116.4,619.3v-37l26.2-26.2h-21.1c0,0-0.6,5.8-7.2,6.9c0,0,1.6,3.1,0.5,7.6 c-4-4.5-9.1-6.6-14.6-7.7c3.5,3.2,5.2,8.7,4.3,15.3c-8.3-9.3-14.2-10.4-19.5-11.1c-3.7-0.5-12.6-4.4-17.6-6.6l-0.2-0.1l-7.5-4.3 h-6.5v6.5v0l4.4,7.5l0.1,0.2c2.3,5,6.1,13.9,6.6,17.6c0.7,5.3,1.8,11.2,11.1,19.5c-6.7,0.9-12.1-0.8-15.3-4.3 c1.1,5.6,3.2,10.7,7.7,14.6c-4.5,1.1-7.6-0.5-7.6-0.5c-1.1,6.7-6.9,7.2-6.9,7.2l0,0v21.1l26.2-26.2H1116.4z M1093.1,586.8 c3.7,0,6.7,3,6.7,6.7c0,3.7-3,6.7-6.7,6.7s-6.7-3-6.7-6.7C1086.4,589.8,1089.4,586.8,1093.1,586.8z" style="fill: rgb(255, 255, 255);"/>
    <path id="XMLID_363_" class="st1" d="M1060.1,617.2c0,0,3.1,1.6,7.6,0.5c-4.5-4-6.6-9.1-7.7-14.6c3.2,3.5,8.7,5.2,15.3,4.3 c-9.3-8.3-10.4-14.2-11.1-19.5c-0.5-3.7-4.4-12.6-6.6-17.6l-0.1-0.2l-4.4-7.5v0v11.5v0c0,0,0.2,2.7,0.4,6.9 c0.1,2.1,0.2,4.5,0.2,7c0.1,2.6,0.1,5.3,0.1,8c0,2.7,0,5.5-0.1,8.1c0,2.6-0.2,5-0.2,7c-0.2,4.1-0.4,6.9-0.4,6.9v0v6.4l0,0 C1053.2,624.4,1059.1,623.8,1060.1,617.2z" style="fill: rgb(13, 76, 133);"/>
    <path id="XMLID_364_" class="st1" d="M1067.4,560.6c5,2.3,13.9,6.1,17.6,6.6c5.3,0.7,11.2,1.8,19.5,11.1 c0.9-6.7-0.8-12.1-4.3-15.3c5.6,1.1,10.7,3.2,14.6,7.7c1.1-4.5-0.5-7.6-0.5-7.6c6.6-1.1,7.2-6.9,7.2-6.9h-6.5 c-0.3,0-3,0.3-6.8,0.4c-2.1,0.1-4.5,0.2-7,0.2c-2.6,0.1-5.3,0.1-8.1,0.1c-2.7,0-5.5,0-8-0.1c-2.6,0-5-0.2-7-0.2 c-3.9-0.2-6.5-0.4-6.8-0.4h-11.5l7.5,4.3L1067.4,560.6z" style="fill: rgb(13, 76, 133);"/>
    <path d="M 1099.799975 593.5 A 6.7 6.7 0 0 1 1093.099976 600.2 A 6.7 6.7 0 0 1 1086.399976 593.5 A 6.7 6.7 0 0 1 1093.099976 586.8 A 6.7 6.7 0 0 1 1099.799975 593.5 Z" id="XMLID_365_" class="st1" style="fill: rgb(13, 76, 133);"/>
    <path d="M 1202.0999755859375 633.5 L 1247.4000244140625 633.5 L 1279.5 665.5999755859375 L 1279.699951171875 665.4000244140625 L 1279.699951171875 645.2999877929688 L 1279.5 645.5 L 1253.300048828125 619.2999877929688 L 1216.300048828125 619.2999877929688 L 1216.300048828125 582.2999877929688 L 1190.0999755859375 556.0999755859375 L 1170.0999755859375 556.0999755859375 L 1202.0999755859375 588.2000122070312 Z" id="XMLID_366_" class="st3" style="fill: rgb(113, 174, 202);"/>
    <path id="XMLID_369_" class="st0" d="M1216.3,619.3h37l26.2,26.2l0.2-0.2v-20.9c-0.1,0-0.2,0-0.2,0s-5.8-0.5-6.9-7.2 c0,0-3.1,1.6-7.6,0.5c4.3-3.9,6.4-8.9,7.5-14.4c-3.3,3.4-8.6,5-15.1,4.1c9.3-8.3,10.3-14.2,11.1-19.5c0.5-3.7,4.5-12.8,6.7-17.8 l0.1-0.1l4.3-7.4l0.2,0.4v-6.8h-6.7l-7.5,4.3l-0.2,0.1c-5,2.3-13.9,6.1-17.6,6.6c-5.3,0.7-11.2,1.8-19.5,11.1 c-0.9-6.7,0.8-12.1,4.3-15.3c-5.6,1.1-10.7,3.2-14.6,7.7c-1.1-4.5,0.5-7.6,0.5-7.6c-6.6-1.1-7.2-6.9-7.2-6.9h-21.1l26.2,26.2 V619.3z M1243.1,586.8c3.7,0,6.7,3,6.7,6.7c0,3.7-3,6.7-6.7,6.7c-3.7,0-6.7-3-6.7-6.7C1236.4,589.8,1239.4,586.8,1243.1,586.8z" style="fill: rgb(255, 255, 255);"/>
    <path id="XMLID_370_" class="st0" d="M1231.6,556.8c2.6,0.1,5.3,0.1,8.1,0.1c2.7,0,5.5,0,8-0.1c2.6,0,5-0.2,7-0.2 c3.9-0.2,6.5-0.4,6.8-0.4h-43.8c0.3,0,3,0.3,6.8,0.4C1226.6,556.6,1229,556.8,1231.6,556.8z" style="fill: rgb(255, 255, 255);"/>
    <path id="XMLID_371_" class="st0" d="M1279.1,580.9c-0.1,2.1-0.2,4.5-0.2,7c-0.1,2.6-0.1,5.3-0.1,8c0,2.7,0,5.5,0.1,8.1 c0.1,2.6,0.2,5,0.2,7c0.2,4.1,0.4,6.9,0.4,6.9s0.1-1.1,0.2-2.9V577c-0.1-1.8-0.2-2.9-0.2-2.9S1279.2,576.8,1279.1,580.9z" style="fill: rgb(255, 255, 255);"/>
    <path id="XMLID_372_" class="st1" d="M1275.2,570L1275.2,570c-2.3,5-6.3,14.1-6.8,17.9c-0.7,5.3-1.8,11.2-11.1,19.5 c6.5,0.9,11.9-0.7,15.1-4.1c-1.1,5.4-3.2,10.4-7.5,14.4c4.5,1.1,7.6-0.5,7.6-0.5c1.1,6.7,6.9,7.2,6.9,7.2s0.1,0,0.2,0V615 c-0.1,1.8-0.2,2.9-0.2,2.9s-0.2-2.7-0.4-6.9c-0.1-2.1-0.2-4.5-0.2-7c-0.1-2.6-0.1-5.3-0.1-8.1c0-2.7,0-5.5,0.1-8 c0-2.6,0.2-5,0.2-7c0.2-4.1,0.4-6.9,0.4-6.9s0.1,1.1,0.2,2.9v-14l-0.2-0.4L1275.2,570z" style="fill: rgb(13, 76, 133);"/>
    <path id="XMLID_373_" class="st1" d="M1218.4,563.1c0,0-1.6,3.1-0.5,7.6c4-4.5,9.1-6.6,14.6-7.7c-3.5,3.2-5.2,8.7-4.3,15.3 c8.3-9.3,14.2-10.4,19.5-11.1c3.7-0.5,12.6-4.4,17.6-6.6l0.2-0.1l7.5-4.3h-11.5c-0.3,0-3,0.3-6.8,0.4c-2.1,0.1-4.5,0.2-7,0.2 c-2.6,0.1-5.3,0.1-8,0.1c-2.7,0-5.5,0-8.1-0.1c-2.6,0-5-0.2-7-0.2c-3.8-0.2-6.5-0.4-6.8-0.4h-6.5 C1211.2,556.2,1211.8,562,1218.4,563.1z" style="fill: rgb(13, 76, 133);"/>
    <path d="M 1249.799975 593.5 A 6.7 6.7 0 0 1 1243.099976 600.2 A 6.7 6.7 0 0 1 1236.399976 593.5 A 6.7 6.7 0 0 1 1243.099976 586.8 A 6.7 6.7 0 0 1 1249.799975 593.5 Z" id="XMLID_374_" class="st1" style="fill: rgb(13, 76, 133);"/>
  </g>
  <path id="XMLID_218_" class="st1" d="M1178.4,612.9c1.3-6.8,4-13.1,9.5-17.9c-5.5-1.3-9.3,0.7-9.3,0.7c-1.3-8.2-8.5-8.8-8.5-8.8 s-7.2,0.7-8.5,8.8c0,0-3.8-2-9.3-0.7c5.2,4.8,7.8,11,9.2,17.6c-4-4.1-10.5-6.1-18.5-5c11.4,10.2,12.7,17.4,13.6,23.9 c0.7,4.6,5.5,15.7,8.2,21.8l0.1,0.1l5.3,9.1l5.3-9.2l0.1-0.3c2.8-6.1,7.5-17,8.1-21.5c0.9-6.5,2.2-13.7,13.6-23.9 C1189.1,606.6,1182.4,608.6,1178.4,612.9z M1170.9,631.5c-0.1,3.2-0.2,6.1-0.3,8.6c-0.2,5-0.5,8.4-0.5,8.4s-0.3-3.4-0.5-8.4 c-0.1-2.5-0.2-5.5-0.3-8.6c-0.1-3.1-0.1-6.5-0.1-9.9c0-3.4,0-6.7,0.1-9.9c0.1-3.1,0.2-6.1,0.3-8.6c0.2-5,0.5-8.4,0.5-8.4 s0.3,3.4,0.5,8.4c0.1,2.5,0.2,5.5,0.3,8.6c0.1,3.1,0.1,6.5,0.1,9.9C1171,625,1171,628.4,1170.9,631.5z" style="fill: rgb(13, 76, 133);"/>
  <path id="XMLID_212_" class="st1" d="M1197.2,733.3c-11.4-10.2-12.7-17.4-13.6-23.9c-0.6-4.5-5.3-15.4-8.1-21.5l-0.1-0.3l-5.3-9.2 l-5.3,9.1l-0.1,0.1c-2.7,6.1-7.6,17.2-8.2,21.8c-0.9,6.5-2.2,13.7-13.6,23.9c8,1.1,14.5-0.9,18.5-5c-1.3,6.7-3.9,12.8-9.2,17.6 c5.5,1.3,9.3-0.7,9.3-0.7c1.3,8.2,8.5,8.8,8.5,8.8s7.2-0.7,8.5-8.8c0,0,3.8,2,9.3,0.7c-5.5-4.8-8.1-11.1-9.5-17.9 C1182.4,732.4,1189.1,734.4,1197.2,733.3z M1171,719.4c0,3.4,0,6.7-0.1,9.9c-0.1,3.1-0.2,6.1-0.3,8.6c-0.2,5-0.5,8.4-0.5,8.4 s-0.3-3.4-0.5-8.4c-0.1-2.5-0.2-5.5-0.3-8.6c-0.1-3.1-0.1-6.5-0.1-9.9c0-3.4,0-6.7,0.1-9.9c0.1-3.2,0.2-6.1,0.3-8.6 c0.2-5,0.5-8.4,0.5-8.4s0.3,3.4,0.5,8.4c0.1,2.5,0.2,5.5,0.3,8.6C1171,712.6,1171,716,1171,719.4z" style="fill: rgb(13, 76, 133);"/>
  <path id="XMLID_208_" class="st1" d="M1227.6,678.9c6.8,1.3,13.1,4,17.9,9.5c1.3-5.5-0.7-9.3-0.7-9.3c8.2-1.3,8.8-8.5,8.8-8.5 s-0.7-7.2-8.8-8.5c0,0,2-3.8,0.7-9.3c-4.8,5.2-11,7.8-17.6,9.2c4.1-4,6.1-10.5,5-18.5c-10.2,11.4-17.4,12.7-23.9,13.6 c-4.6,0.7-15.7,5.5-21.8,8.2l-0.1,0.1l-9.1,5.3l9.2,5.3l0.3,0.1c6.1,2.8,17,7.5,21.5,8.1c6.5,0.9,13.7,2.2,23.9,13.6 C1234,689.5,1231.9,682.8,1227.6,678.9z M1209.1,671.3c-3.2-0.1-6.1-0.2-8.6-0.3c-5-0.2-8.4-0.5-8.4-0.5s3.4-0.3,8.4-0.5 c2.5-0.1,5.5-0.2,8.6-0.3c3.1-0.1,6.5-0.1,9.9-0.1c3.4,0,6.7,0,9.9,0.1c3.1,0.1,6.1,0.2,8.6,0.3c5,0.2,8.4,0.5,8.4,0.5 s-3.4,0.3-8.4,0.5c-2.5,0.1-5.5,0.2-8.6,0.3c-3.1,0.1-6.5,0.1-9.9,0.1C1215.5,671.4,1212.2,671.4,1209.1,671.3z" style="fill: rgb(13, 76, 133);"/>
  <path id="XMLID_78_" class="st1" d="M1107.2,697.7c10.2-11.4,17.4-12.7,23.9-13.6c4.5-0.6,15.4-5.3,21.5-8.1l0.3-0.1l9.2-5.3 l-9.1-5.3l-0.1-0.1c-6.1-2.7-17.2-7.6-21.8-8.2c-6.5-0.9-13.7-2.2-23.9-13.6c-1.1,8,0.9,14.5,5,18.5c-6.7-1.3-12.8-3.9-17.6-9.2 c-1.3,5.5,0.7,9.3,0.7,9.3c-8.2,1.3-8.8,8.5-8.8,8.5s0.7,7.2,8.8,8.5c0,0-2,3.8-0.7,9.3c4.8-5.5,11.1-8.1,17.9-9.5 C1108.2,682.8,1106.1,689.5,1107.2,697.7z M1121.2,671.4c-3.4,0-6.7,0-9.9-0.1c-3.1-0.1-6.1-0.2-8.6-0.3c-5-0.2-8.4-0.5-8.4-0.5 s3.4-0.3,8.4-0.5c2.5-0.1,5.5-0.2,8.6-0.3c3.1-0.1,6.5-0.1,9.9-0.1c3.4,0,6.7,0,9.9,0.1c3.2,0.1,6.1,0.2,8.6,0.3 c5,0.2,8.4,0.5,8.4,0.5s-3.4,0.3-8.4,0.5c-2.5,0.1-5.5,0.2-8.6,0.3C1127.9,671.4,1124.6,671.4,1121.2,671.4z" style="fill: rgb(13, 76, 133);"/>
</svg>