<?xml version="1.0" encoding="utf-8"?>
<svg viewBox="120.3 197.7 226.5 226.5" width="226.5" height="226.5" xmlns="http://www.w3.org/2000/svg">
  <g id="XMLID_69_">
    <path d="M 120.300003 197.699997 H 346.800003 V 424.199997 H 120.300003 V 197.699997 Z" id="XMLID_43_" class="st0" style="fill: rgb(255, 255, 255);"/>
    <path id="XMLID_44_" class="st4" d="M134.3,355c0,0,6.5-10.7,13-0.9c6.5,9.7,0.9,26.6-2.1,35.3c-3,8.7-6.7,10.9-7.6,9.4 c-0.9-1.6,3.9-10.5,4.6-21.5c0.7-11-5.5-13.5-10.1-13.5c-4.6,0-6.5,5.2-6.5,5.2s6.2,0,7.4,7.2c-3.7-0.9-7.8,2.5-7.8,2.5 s4.8,0.4,6.5,8.2c1.6,7.7,0.2,22.7-2,24.7c-2.1-1.4-3.8-0.1-4.5,0.6c-0.7,0.7-2.4,3.3,0.7,6.4c3.1,3.1,5.7,1.4,6.4,0.7 c0.7-0.7,1.9-2.4,0.6-4.5c1.9-2.2,16.9-3.7,24.7-2c7.7,1.6,8.2,6.5,8.2,6.5s3.4-4.1,2.5-7.8c7.2,1.3,7.2,7.4,7.2,7.4 s5.2-1.9,5.2-6.5s-2.5-10.8-13.5-10.1c-11,0.7-19.9,5.5-21.5,4.6s0.7-4.6,9.4-7.6c8.7-3,25.5-8.6,35.3-2.1c9.7,6.5-0.9,13-0.9,13 s8,3.2,12.1-3.9c4.1-7.1-7.3-13.5-7.3-13.5s2.9-4.2,1.1-7.1c-1.7-2.9-5-3.4-12.9,0.8c-1.8-4.1-5.3-3.9-9.2-1.4 c-3.9,2.5-5.4,4.7-9.7,6.7c-4.4,2.1-6.5,1.5-6.4,0c0.1-1.2,0.3-1.9,4.1-4c0.2-0.1,19.7-7,24.8-10.8c5.1-3.8,11-7.9,25.8-7.1 c-4.9-6.4-10.9-9.5-16.6-9.3c5.6-3.8,11.7-6.2,18.8-5.8c-2.9-4.7-6.9-6-6.9-6c4.7-6.5,0.2-11.9,0.2-11.9s-5.4-4.5-11.9,0.2 c0,0-1.3-4-6-6.9c0.3,6.9-2.2,12.9-5.8,18.4c0.1-5.6-3.1-11.4-9.3-16.2c0.8,14.8-3.3,20.7-7.1,25.8c-3.8,5-10.8,24.6-10.8,24.8 c-2.1,3.9-2.8,4-4,4.1c-1.5,0.1-2.1-2.1,0-6.4c2.1-4.4,4.2-5.9,6.7-9.7c2.5-3.9,2.8-7.3-1.4-9.2c4.2-7.9,3.7-11.2,0.8-12.9 s-7.1,1.1-7.1,1.1s-6.4-11.5-13.5-7.3C131.1,347,134.3,355,134.3,355z M189.8,353.6c2.2-2.1,4.3-4,6.1-5.7 c3.6-3.3,6.1-5.4,6.1-5.4s-2.1,2.5-5.4,6.1c-1.7,1.8-3.6,3.9-5.7,6.1c-2.1,2.2-4.4,4.5-6.7,6.9c-2.3,2.3-4.6,4.6-6.9,6.7 c-2.2,2.1-4.3,4-6.1,5.7c-3.6,3.3-6.1,5.4-6.1,5.4s2.1-2.5,5.4-6.1c1.7-1.8,3.6-3.9,5.7-6.1c2.1-2.2,4.4-4.5,6.7-6.9 C185.3,358,187.6,355.7,189.8,353.6z" style="fill: rgb(4, 99, 160);"/>
    <path id="XMLID_53_" class="st4" d="M328.9,342.8c-7.1-4.1-13.5,7.3-13.5,7.3s-4.2-2.9-7.1-1.1s-3.4,5,0.8,12.9 c-4.1,1.8-3.9,5.3-1.4,9.2c2.5,3.9,4.7,5.4,6.7,9.7c2.1,4.4,1.5,6.5,0,6.4c-1.2-0.1-1.9-0.3-4-4.1c-0.1-0.2-7-19.7-10.8-24.8 c-3.8-5.1-7.9-11-7.1-25.8c-6.2,4.7-9.4,10.6-9.3,16.2c-3.7-5.5-6.1-11.5-5.8-18.4c-4.7,2.9-6,6.9-6,6.9 c-6.5-4.7-11.9-0.2-11.9-0.2s-4.5,5.4,0.2,11.9c0,0-4,1.3-6.9,6c7.1-0.4,13.2,2,18.8,5.8c-5.7-0.3-11.7,2.9-16.6,9.3 c14.8-0.8,20.7,3.3,25.8,7.1c5,3.8,24.6,10.8,24.8,10.8c3.9,2.1,4,2.8,4.1,4c0.1,1.5-2.1,2.1-6.4,0c-4.4-2.1-5.9-4.2-9.7-6.7 c-3.9-2.5-7.3-2.8-9.2,1.4c-7.9-4.2-11.2-3.7-12.9-0.8c-1.7,2.9,1.1,7.1,1.1,7.1s-11.5,6.4-7.3,13.5c4.1,7.1,12.1,3.9,12.1,3.9 s-10.7-6.5-0.9-13c9.7-6.5,26.6-0.9,35.3,2.1c8.7,3,10.9,6.7,9.4,7.6c-1.6,0.9-10.5-3.9-21.5-4.6c-11-0.7-13.5,5.5-13.5,10.1 c0,4.6,5.2,6.5,5.2,6.5s0-6.2,7.2-7.4c-0.9,3.7,2.5,7.8,2.5,7.8s0.4-4.8,8.2-6.5c7.7-1.6,22.7-0.2,24.7,2 c-1.4,2.1-0.1,3.8,0.6,4.5c0.7,0.7,3.3,2.4,6.4-0.7c3.1-3.1,1.4-5.7,0.7-6.4c-0.7-0.7-2.4-1.9-4.5-0.6c-2.2-1.9-3.7-16.9-2-24.7 c1.6-7.7,6.5-8.2,6.5-8.2s-4.1-3.4-7.8-2.5c1.3-7.2,7.4-7.2,7.4-7.2s-1.9-5.2-6.5-5.2c-4.6,0-10.8,2.5-10.1,13.5 c0.7,11,5.5,19.9,4.6,21.5c-0.9,1.6-4.6-0.7-7.6-9.4c-3-8.7-8.6-25.5-2.1-35.3c6.5-9.7,15.8,5,15.8,5S336,347,328.9,342.8z M284.1,360.3c2.3,2.3,4.6,4.6,6.7,6.9c2.1,2.2,4,4.3,5.7,6.1c3.3,3.6,5.4,6.1,5.4,6.1s-2.5-2.1-6.1-5.4 c-1.8-1.7-3.9-3.6-6.1-5.7c-2.2-2.1-4.5-4.4-6.9-6.7c-2.3-2.3-4.6-4.6-6.7-6.9c-2.1-2.2-4-4.3-5.7-6.1c-3.3-3.6-5.4-6.1-5.4-6.1 s2.5,2.1,6.1,5.4c1.8,1.7,3.9,3.6,6.1,5.7C279.5,355.7,281.8,358,284.1,360.3z" style="fill: rgb(4, 99, 160);"/>
    <path id="XMLID_59_" class="st4" d="M138.2,279.1c7.1,4.1,13.5-7.3,13.5-7.3s4.2,2.9,7.1,1.1s3.4-5-0.8-12.9 c4.1-1.8,3.9-5.3,1.4-9.2c-2.5-3.9-4.7-5.4-6.7-9.7c-2.1-4.4-1.5-6.5,0-6.4c1.2,0.1,1.9,0.3,4,4.1c0.1,0.2,7,19.7,10.8,24.8 c3.8,5.1,7.9,11,7.1,25.8c6.2-4.7,9.4-10.6,9.3-16.2c3.7,5.5,6.1,11.5,5.8,18.4c4.7-2.9,6-6.9,6-6.9c6.5,4.7,11.9,0.2,11.9,0.2 s4.5-5.4-0.2-11.9c0,0,4-1.3,6.9-6c-7.1,0.4-13.2-2-18.8-5.8c5.7,0.3,11.7-2.9,16.6-9.3c-14.8,0.8-20.7-3.3-25.8-7.1 c-5-3.8-24.6-10.8-24.8-10.8c-3.9-2.1-4-2.8-4.1-4c-0.1-1.5,2.1-2.1,6.4,0c4.4,2.1,5.9,4.2,9.7,6.7c3.9,2.5,7.3,2.8,9.2-1.4 c7.9,4.2,11.2,3.7,12.9,0.8c1.7-2.9-1.1-7.1-1.1-7.1s11.5-6.4,7.3-13.5c-4.1-7.1-12.1-3.9-12.1-3.9s10.7,6.5,0.9,13 c-9.7,6.5-26.6,0.9-35.3-2.1c-8.7-3-10.9-6.7-9.4-7.6c1.6-0.9,10.5,3.9,21.5,4.6c11,0.7,13.5-5.5,13.5-10.1s-5.2-6.5-5.2-6.5 s0,6.2-7.2,7.4c0.9-3.7-2.5-7.8-2.5-7.8s-0.4,4.8-8.2,6.5c-7.7,1.6-22.7,0.2-24.7-2c1.4-2.1,0.1-3.8-0.6-4.5 c-0.7-0.7-3.3-2.4-6.4,0.7c-3.1,3.1-1.4,5.7-0.7,6.4c0.7,0.7,2.4,1.9,4.5,0.6c2.2,1.9,3.7,16.9,2,24.7c-1.6,7.7-6.5,8.2-6.5,8.2 s4.1,3.4,7.8,2.5c-1.3,7.2-7.4,7.2-7.4,7.2s1.9,5.2,6.5,5.2c4.6,0,10.8-2.5,10.1-13.5c-0.7-11-5.5-19.9-4.6-21.5s4.6,0.7,7.6,9.4 c3,8.7,8.6,25.5,2.1,35.3c-6.5,9.7-13-0.9-13-0.9S131.1,274.9,138.2,279.1z M183,261.7c-2.3-2.3-4.6-4.6-6.7-6.9 c-2.1-2.2-4-4.3-5.7-6.1c-3.3-3.6-5.4-6.1-5.4-6.1s2.5,2.1,6.1,5.4c1.8,1.7,3.9,3.6,6.1,5.7c2.2,2.1,4.5,4.4,6.9,6.7 c2.3,2.3,4.6,4.6,6.7,6.9c2.1,2.2,4,4.3,5.7,6.1c3.3,3.6,5.4,6.1,5.4,6.1s-2.5-2.1-6.1-5.4c-1.8-1.7-3.9-3.6-6.1-5.7 C187.6,266.2,185.3,263.9,183,261.7z" style="fill: rgb(4, 99, 160);"/>
    <path id="XMLID_56_" class="st4" d="M332.8,266.9c0,0-6.5,10.7-13,0.9c-6.5-9.7-0.9-26.6,2.1-35.3c3-8.7,6.7-10.9,7.6-9.4 s-3.9,10.5-4.6,21.5c-0.7,11,5.5,13.5,10.1,13.5c4.6,0,6.5-5.2,6.5-5.2s-6.2,0-7.4-7.2c3.7,0.9,7.8-2.5,7.8-2.5s-4.8-0.4-6.5-8.2 c-1.6-7.7-0.2-22.7,2-24.7c2.1,1.4,3.8,0.1,4.5-0.6c0.7-0.7,2.4-3.3-0.7-6.4c-3.1-3.1-5.7-1.4-6.4-0.7c-0.7,0.7-1.9,2.4-0.6,4.5 c-1.9,2.2-16.9,3.7-24.7,2c-7.7-1.6-8.2-6.5-8.2-6.5s-3.4,4.1-2.5,7.8c-7.2-1.3-7.2-7.4-7.2-7.4s-5.2,1.9-5.2,6.5 c0,4.6,2.5,10.8,13.5,10.1c11-0.7,19.9-5.5,21.5-4.6c1.6,0.9-0.7,4.6-9.4,7.6c-8.7,3-25.5,8.6-35.3,2.1c-9.7-6.5,0.9-13,0.9-13 s-8-3.2-12.1,3.9c-4.1,7.1,7.3,13.5,7.3,13.5s-2.9,4.2-1.1,7.1c1.7,2.9,5,3.4,12.9-0.8c1.8,4.1,5.3,3.9,9.2,1.4 c3.9-2.5,5.4-4.7,9.7-6.7c4.4-2.1,6.5-1.5,6.4,0c-0.1,1.2-0.3,1.9-4.1,4c-0.2,0.1-19.7,7-24.8,10.8c-5.1,3.8-11,7.9-25.8,7.1 c4.9,6.4,10.9,9.5,16.6,9.3c-5.6,3.8-11.7,6.2-18.8,5.8c2.9,4.7,6.9,6,6.9,6c-4.7,6.5-0.2,11.9-0.2,11.9s5.4,4.5,11.9-0.2 c0,0,1.3,4,6,6.9c-0.3-6.9,2.2-12.9,5.8-18.4c-0.1,5.6,3.1,11.4,9.3,16.2c-0.8-14.8,3.3-20.7,7.1-25.8c3.8-5,10.8-24.6,10.8-24.8 c2.1-3.9,2.8-4,4-4.1c1.5-0.1,2.1,2.1,0,6.4c-2.1,4.4-4.2,5.9-6.7,9.7c-2.5,3.9-2.8,7.3,1.4,9.2c-4.2,7.9-3.7,11.2-0.8,12.9 s7.1-1.1,7.1-1.1s6.4,11.5,13.5,7.3C336,274.9,332.8,266.9,332.8,266.9z M277.3,268.4c-2.2,2.1-4.3,4-6.1,5.7 c-3.6,3.3-6.1,5.4-6.1,5.4s2.1-2.5,5.4-6.1c1.7-1.8,3.6-3.9,5.7-6.1c2.1-2.2,4.4-4.5,6.7-6.9c2.3-2.3,4.6-4.6,6.9-6.7 c2.2-2.1,4.3-4,6.1-5.7c3.6-3.3,6.1-5.4,6.1-5.4s-2.1,2.5-5.4,6.1c-1.7,1.8-3.6,3.9-5.7,6.1c-2.1,2.2-4.4,4.5-6.7,6.9 C281.8,263.9,279.5,266.2,277.3,268.4z" style="fill: rgb(4, 99, 160);"/>
    <g id="XMLID_65_">
      <path id="XMLID_71_" class="st5" d="M226,295c4,4,6.1,9.3,6.3,14.6c-5.3-0.1-10.6-2.2-14.6-6.3c-4-4-6.1-9.3-6.3-14.6 C216.7,288.9,222,291,226,295z" style="fill: rgb(17, 75, 135);"/>
      <path id="XMLID_62_" class="st5" d="M249.5,318.5c4,4,6.1,9.3,6.3,14.6c-5.3-0.1-10.6-2.2-14.6-6.3c-4-4-6.1-9.3-6.3-14.6 C240.1,312.4,245.4,314.4,249.5,318.5z" style="fill: rgb(17, 75, 135);"/>
      <path id="XMLID_63_" class="st5" d="M249.5,303.4c-4,4-9.3,6.1-14.6,6.3c0.1-5.3,2.2-10.6,6.3-14.6c4-4,9.3-6.1,14.6-6.3 C255.6,294.1,253.5,299.4,249.5,303.4z" style="fill: rgb(17, 75, 135);"/>
      <path id="XMLID_46_" class="st5" d="M226,326.9c-4,4-9.3,6.1-14.6,6.3c0.1-5.3,2.2-10.6,6.3-14.6c4-4,9.3-6.1,14.6-6.3 C232.2,317.5,230.1,322.8,226,326.9z" style="fill: rgb(17, 75, 135);"/>
      <path d="M 236.600006 287.5 A 3 3 0 0 1 233.600006 290.5 A 3 3 0 0 1 230.600006 287.5 A 3 3 0 0 1 233.600006 284.5 A 3 3 0 0 1 236.600006 287.5 Z" id="XMLID_64_" class="st5" style="fill: rgb(17, 75, 135);"/>
      <path d="M 260 311 A 3 3 0 0 1 257 314 A 3 3 0 0 1 254 311 A 3 3 0 0 1 257 308 A 3 3 0 0 1 260 311 Z" id="XMLID_66_" class="st5" style="fill: rgb(17, 75, 135);"/>
      <path d="M 236.600006 334.399994 A 3 3 0 0 1 233.600006 337.399994 A 3 3 0 0 1 230.600006 334.399994 A 3 3 0 0 1 233.600006 331.399994 A 3 3 0 0 1 236.600006 334.399994 Z" id="XMLID_68_" class="st5" style="fill: rgb(17, 75, 135);"/>
      <path d="M 213.100006 311 A 3 3 0 0 1 210.100006 314 A 3 3 0 0 1 207.100006 311 A 3 3 0 0 1 210.100006 308 A 3 3 0 0 1 213.100006 311 Z" id="XMLID_67_" class="st5" style="fill: rgb(17, 75, 135);"/>
    </g>
  </g>
  <path id="XMLID_74_" class="st3" d="M312.8,295.3c13.2,0,25.2,5.2,34,13.6c-8.9,8.4-20.8,13.6-34,13.6c-13.2,0-25.2-5.2-34-13.6 C287.6,300.4,299.6,295.3,312.8,295.3z" style="fill: rgb(113, 174, 202);"/>
  <path id="XMLID_76_" class="st3" d="M158.3,295.3c13.2,0,25.2,5.2,34,13.6c-8.9,8.4-20.8,13.6-34,13.6c-13.2,0-25.2-5.2-34-13.6 C133.1,300.4,145.1,295.3,158.3,295.3z" style="fill: rgb(113, 174, 202);"/>
  <path id="XMLID_81_" class="st3" d="M249.2,386.1c0,13.2-5.2,25.2-13.6,34c-8.4-8.9-13.6-20.8-13.6-34c0-13.2,5.2-25.2,13.6-34 C244,360.9,249.2,372.9,249.2,386.1z" style="fill: rgb(113, 174, 202);"/>
  <path id="XMLID_75_" class="st3" d="M249.2,231.7c0,13.2-5.2,25.2-13.6,34c-8.4-8.9-13.6-20.8-13.6-34c0-13.2,5.2-25.2,13.6-34 C244,206.5,249.2,218.5,249.2,231.7z" style="fill: rgb(113, 174, 202);"/>
</svg>